<svg preserveAspectRatio="none" width="100%" height="100%" overflow="visible" style="display: block;" viewBox="0 0 108.001 139.003" fill="none" xmlns="http://www.w3.org/2000/svg">
<g id="Frame 2405">
<g id="path66">
<path d="M0 30.1172L15.5876 60.2339V78.7672L0 108.884V30.1172Z" fill="#5B57A2"/>
</g>
<g id="path68">
<path d="M62.3518 48.6516L76.826 39.3849H108.001L62.3518 68.3433V48.6516Z" fill="#D90751"/>
</g>
<g id="path70">
<path d="M62.3511 30.1167V69.5L45.6501 59.075V0L62.3511 30.1167Z" fill="#FAB718"/>
</g>
<g id="path72">
<path d="M108.001 39.3833H76.8253L61.2377 30.1167L45.6501 0L108.001 39.3833V39.3833Z" fill="#ED6F26"/>
</g>
<g id="path74">
<path d="M62.3511 108.881V90.3479L45.6501 79.9229V138.998L62.3511 108.881Z" fill="#63B22F"/>
</g>
<g id="path76">
<path d="M76.8247 99.6172L15.5876 60.2339L0 30.1172L108 99.6172H76.8247V99.6172Z" fill="#1487C9"/>
</g>
<g id="path78">
<path d="M45.6501 139.003L62.3511 108.886L76.8253 99.6194H108.001L45.6501 139.003Z" fill="#017F36"/>
</g>
<g id="path80">
<path d="M0 108.886L45.6495 79.9279L30.0619 69.5029L15.5876 78.7696L0 108.886Z" fill="#984995"/>
</g>
</g>
</svg>
