<svg width="68" height="45" viewBox="0 0 68 45" fill="none" xmlns="http://www.w3.org/2000/svg">
<rect width="68" height="45" rx="6" fill="#FDECD1"/>
<path d="M41.207 8.62516L26.5742 8.67511L27.0176 35.267L41.6504 35.2171L41.207 8.62516Z" fill="#FF5F00"/>
<path d="M27.536 22.0247C27.4454 16.6161 29.8862 11.8103 33.7093 8.69309C30.8236 6.44528 27.2058 5.09359 23.2841 5.10692C13.9933 5.13851 6.60333 12.7361 6.76001 22.0953C6.91669 31.4545 14.5602 39.001 23.851 38.9694C27.7727 38.956 31.3448 37.5799 34.155 35.3127C30.2287 32.2689 27.6265 27.4332 27.536 22.0247Z" fill="#EB001B"/>
<path d="M61.4615 21.7969C61.6181 31.1561 54.2282 38.7536 44.9374 38.7852C41.0156 38.7986 37.3979 37.4469 34.5121 35.1991C38.3819 32.0817 40.7761 27.2761 40.6855 21.8675C40.595 16.4589 37.9935 11.6703 34.0665 8.57942C36.8766 6.31224 40.4487 4.9361 44.3705 4.92277C53.6613 4.89118 61.3056 12.4847 61.4615 21.7969Z" fill="#F79E1B"/>
</svg>
