<svg width="68" height="44" viewBox="0 0 68 44" fill="none" xmlns="http://www.w3.org/2000/svg">
<path d="M0 6C0 2.68629 2.68629 0 6 0L62 0C65.3137 0 68 2.68629 68 6V38C68 41.3137 65.3137 44 62 44H6C2.68629 44 0 41.3137 0 38L0 6Z" fill="url(#paint0_linear_5619_10164)"/>
<path d="M7.99988 12.9336L11.7937 19.8669V24.1336L7.99988 31.0669V12.9336Z" fill="#5B57A2"/>
<path d="M23.1738 17.2002L26.6967 15.0669H34.2843L23.1738 21.7336V17.2002Z" fill="#D90751"/>
<path d="M23.1741 12.9333V22L19.1093 19.6V6L23.1741 12.9333Z" fill="#FAB718"/>
<path d="M34.2845 15.0667H26.6969L22.9031 12.9333L19.1093 6L34.2845 15.0667Z" fill="#ED6F26"/>
<path d="M23.1741 31.0661V26.7994L19.1093 24.3994V37.9994L23.1741 31.0661Z" fill="#63B22F"/>
<path d="M26.698 28.9336L11.7937 19.8669L7.99988 12.9336L34.2856 28.9336H26.698Z" fill="#1487C9"/>
<path d="M19.1093 37.9998L23.1741 31.0664L26.6969 28.9331H34.2845L19.1093 37.9998Z" fill="#017F36"/>
<path d="M7.99988 31.0672L19.1103 24.4005L15.3165 22.0005L11.7937 24.1338L7.99988 31.0672Z" fill="#984995"/>
<defs>
<linearGradient id="paint0_linear_5619_10164" x1="25.8717" y1="16.775" x2="63.7282" y2="29.0599" gradientUnits="userSpaceOnUse">
<stop stop-color="#1D1347"/>
<stop offset="1" stop-color="#221263"/>
</linearGradient>
</defs>
</svg>
