<svg width="66" height="44" viewBox="0 0 66 44" fill="none" xmlns="http://www.w3.org/2000/svg">
<rect width="66" height="44" rx="6" fill="#F9D1D7"/>
<path d="M16.616 4.71613H29.7829C31.6209 4.71613 32.7641 6.21424 32.3353 8.05831L26.2052 34.3773C25.7726 36.215 23.9323 37.7144 22.0931 37.7144H8.92747C7.09206 37.7144 5.94633 36.215 6.3751 34.3773L12.5078 8.05831C12.9366 6.21424 14.7758 4.71613 16.616 4.71613Z" fill="#E21836"/>
<path d="M28.6875 4.71429H43.8291C45.6667 4.71429 44.8381 6.21241 44.4058 8.05648L38.2766 34.3755C37.8466 36.2131 37.9807 37.7125 36.1392 37.7125H20.9976C19.1561 37.7125 18.0165 36.2131 18.4491 34.3755L24.5779 8.05648C25.0131 6.21241 26.8485 4.71429 28.6875 4.71429Z" fill="#00447C"/>
<path d="M43.2279 4.71429H56.3948C58.2353 4.71429 59.3785 6.21241 58.9462 8.05648L52.817 34.3755C52.3844 36.2131 50.5429 37.7125 48.7027 37.7125H35.5419C33.7004 37.7125 32.5582 36.2131 32.9895 34.3755L39.1196 8.05648C39.5484 6.21241 41.3864 4.71429 43.2279 4.71429Z" fill="#007B84"/>
<path d="M20.0555 13.1487C18.7015 13.1625 18.3016 13.1487 18.1739 13.1185C18.1248 13.3519 17.2111 17.5667 17.2085 17.5702C17.0118 18.4229 16.8687 19.0307 16.3824 19.4232C16.1064 19.6514 15.7842 19.7615 15.4107 19.7615C14.8102 19.7615 14.4604 19.4634 14.4016 18.8979L14.3904 18.7037C14.3904 18.7037 14.5733 17.5615 14.5733 17.5551C14.5733 17.5551 15.5323 13.7142 15.704 13.2065C15.713 13.1776 15.7155 13.1625 15.7178 13.1487C13.8512 13.1651 13.5204 13.1487 13.4976 13.1185C13.4851 13.1599 13.4389 13.3981 13.4389 13.3981L12.4597 17.7271L12.3756 18.0943L12.2129 19.2952C12.2129 19.6514 12.2829 19.9422 12.4221 20.188C12.8682 20.9676 14.1407 21.0844 14.8606 21.0844C15.7881 21.0844 16.6581 20.8873 17.2461 20.5276C18.2666 19.9245 18.5336 18.982 18.7718 18.1443L18.8822 17.7146C18.8822 17.7146 19.87 13.7254 20.0379 13.2065C20.0443 13.1776 20.0468 13.1625 20.0555 13.1487ZM23.4165 16.3668C23.1784 16.3668 22.7432 16.4246 22.3523 16.6162C22.2105 16.689 22.0763 16.7731 21.9348 16.8569L22.0625 16.3957L21.9926 16.318C21.1636 16.4859 20.9781 16.5083 20.2123 16.6162L20.1482 16.6589C20.0593 17.396 19.9803 17.9503 19.6507 19.3993C19.5252 19.9333 19.3949 20.4725 19.2643 21.0052L19.2996 21.073C20.0843 21.0316 20.3224 21.0316 21.0044 21.0428L21.0596 20.9828C21.1463 20.5389 21.1575 20.435 21.3494 19.536C21.4396 19.1098 21.6277 18.1733 21.7204 17.8399C21.8908 17.7609 22.059 17.6833 22.2195 17.6833C22.6017 17.6833 22.5551 18.0167 22.5404 18.1496C22.524 18.3726 22.3847 19.1012 22.2419 19.7267L22.1466 20.1304C22.0802 20.4285 22.0073 20.7183 21.9409 21.0139L21.9698 21.073C22.7432 21.0316 22.9791 21.0316 23.6396 21.0428L23.7172 20.9828C23.8366 20.2896 23.8716 20.1041 24.0834 19.0947L24.19 18.631C24.397 17.7234 24.501 17.2632 24.3443 16.8883C24.1787 16.4682 23.7814 16.3668 23.4165 16.3668ZM27.1712 17.3171C26.7601 17.396 26.4979 17.4486 26.2373 17.4827C25.9789 17.5241 25.727 17.5616 25.3297 17.6168L25.2982 17.6454L25.2693 17.6682C25.2279 17.9641 25.1991 18.2198 25.1442 18.5206C25.0976 18.8315 25.0261 19.1849 24.9096 19.6926C24.8194 20.0813 24.7729 20.2167 24.7215 20.3534C24.6714 20.4901 24.6162 20.623 24.5148 21.0052L24.5386 21.0405L24.5585 21.0729C24.9298 21.0553 25.1727 21.0428 25.4224 21.0405C25.6718 21.0315 25.9301 21.0405 26.33 21.0428L26.365 21.0142L26.4025 20.9827C26.4603 20.6381 26.469 20.5453 26.5043 20.3772C26.5393 20.1968 26.5996 19.9471 26.7475 19.2802C26.8175 18.967 26.8955 18.6547 26.968 18.3351C27.0434 18.0167 27.1224 17.7031 27.1975 17.3899L27.1863 17.352L27.1712 17.3171ZM27.1799 16.0358C26.8064 15.8154 26.1507 15.8853 25.7094 16.1899C25.2694 16.4884 25.2194 16.912 25.5916 17.1354C25.9588 17.3497 26.617 17.2859 27.0545 16.9787C27.4935 16.6739 27.5484 16.2541 27.1799 16.0358ZM29.4391 21.142C30.1949 21.142 30.9697 20.9337 31.5528 20.3156C32.0015 19.8143 32.2072 19.0685 32.2784 18.7614C32.5105 17.7434 32.3298 17.2681 32.1029 16.9786C31.7582 16.5373 31.1491 16.3958 30.5172 16.3958C30.1372 16.3958 29.2321 16.4333 28.5251 17.0851C28.0174 17.5553 27.7828 18.1933 27.6413 18.805C27.4985 19.4283 27.3341 20.5502 28.3659 20.9678C28.6843 21.1045 29.1432 21.142 29.4391 21.142ZM29.3801 18.8515C29.5544 18.0807 29.7601 17.4337 30.2851 17.4337C30.6966 17.4337 30.7264 17.9151 30.5435 18.6885C30.5107 18.8602 30.3605 19.4985 30.1574 19.7704C30.0155 19.9709 29.8477 20.0926 29.6622 20.0926C29.607 20.0926 29.2787 20.0926 29.2735 19.6051C29.271 19.3644 29.3201 19.1186 29.3801 18.8515ZM34.1678 21.0429L34.2268 20.9829C34.3106 20.539 34.3244 20.4347 34.5099 19.5361C34.6026 19.1099 34.7945 18.1734 34.8847 17.84C35.0554 17.7607 35.2207 17.6831 35.3863 17.6831C35.766 17.6831 35.7198 18.0165 35.7047 18.1494C35.6909 18.3727 35.5516 19.1009 35.4062 19.7264L35.316 20.1302C35.247 20.4286 35.1719 20.7181 35.1055 21.014L35.1344 21.0731C35.9104 21.0317 36.1373 21.0317 36.8016 21.0429L36.8819 20.9829C36.9984 20.2893 37.0298 20.1038 37.2481 19.0948L37.352 18.6308C37.56 17.7232 37.6653 17.2633 37.5112 16.8884C37.3408 16.4683 36.9409 16.3669 36.5812 16.3669C36.3427 16.3669 35.9053 16.4244 35.5166 16.6163C35.3777 16.6891 35.2384 16.7729 35.1017 16.857L35.2207 16.3958L35.1569 16.3178C34.3282 16.486 34.1389 16.5084 33.3741 16.6163L33.3154 16.659C33.2226 17.3961 33.1472 17.9501 32.8176 19.3994C32.6921 19.9334 32.5618 20.4726 32.4315 21.0053L32.4665 21.0731C33.2525 21.0317 33.4871 21.0317 34.1678 21.0429ZM39.8693 21.0729C39.9181 20.8348 40.2079 19.4233 40.2104 19.4233C40.2104 19.4233 40.4572 18.3877 40.4723 18.3501C40.4723 18.3501 40.55 18.2423 40.6276 18.1996H40.7419C41.8199 18.1996 43.0372 18.1996 43.9913 17.4977C44.6406 17.0163 45.0844 16.3055 45.2824 15.4415C45.3338 15.2297 45.3716 14.9778 45.3716 14.7258C45.3716 14.3949 45.3052 14.0676 45.1133 13.8118C44.6268 13.1311 43.6579 13.1186 42.5394 13.1135C42.5359 13.1135 41.9881 13.1186 41.9881 13.1186C40.5564 13.1363 39.9822 13.1311 39.7464 13.1022C39.7265 13.2065 39.6889 13.392 39.6889 13.392C39.6889 13.392 39.1761 15.7689 39.1761 15.7727C39.1761 15.7727 37.9488 20.8261 37.891 21.0642C39.1411 21.0492 39.6536 21.0492 39.8693 21.0729ZM40.8195 16.8507C40.8195 16.8507 41.3648 14.4787 41.3622 14.4877L41.3799 14.3661L41.3876 14.2733L41.6055 14.2958C41.6055 14.2958 42.7301 14.3924 42.7564 14.3949C43.2002 14.5666 43.3832 15.0092 43.2554 15.5869C43.1389 16.1148 42.7965 16.5587 42.3565 16.7731C41.9942 16.9547 41.5503 16.9698 41.093 16.9698H40.7971L40.8195 16.8507ZM44.2145 18.8955C44.0704 19.5097 43.9048 20.6317 44.9315 21.0316C45.2588 21.1709 45.5521 21.2123 45.8503 21.1972C46.1651 21.1802 46.4568 21.0223 46.7271 20.7951C46.7027 20.8885 46.6783 20.9819 46.6539 21.0756L46.7004 21.1356C47.4389 21.1044 47.668 21.1044 48.4681 21.1105L48.5407 21.0553C48.6575 20.3685 48.7676 19.7017 49.0712 18.3878C49.2191 17.7584 49.3667 17.1352 49.5185 16.5084L49.4948 16.4394C48.6687 16.5925 48.4479 16.6252 47.6533 16.7378L47.5929 16.787C47.5849 16.8508 47.5766 16.9121 47.5689 16.9734C47.4453 16.7738 47.2662 16.6034 46.9899 16.4971C46.6366 16.3582 45.8066 16.5373 45.0932 17.1868C44.5919 17.6506 44.3512 18.286 44.2145 18.8955ZM45.9495 18.933C46.1263 18.1759 46.3294 17.5354 46.8558 17.5354C47.1886 17.5354 47.3638 17.8425 47.3282 18.3663C47.2999 18.4969 47.2694 18.6346 47.2332 18.7902C47.1805 19.0152 47.1234 19.2382 47.0679 19.4616C47.0114 19.6144 46.9456 19.7585 46.8734 19.8544C46.738 20.0463 46.4158 20.1654 46.2303 20.1654C46.1776 20.1654 45.8529 20.1654 45.8416 19.6866C45.8391 19.4481 45.8882 19.2026 45.9495 18.933ZM55.0095 16.4333L54.9457 16.3604C54.1282 16.526 53.9803 16.5523 53.2293 16.6537L53.1741 16.7089C53.1715 16.7179 53.1693 16.7317 53.1654 16.7442L53.1629 16.7317C52.6038 18.0215 52.6202 17.7433 52.1651 18.7587C52.1625 18.7125 52.1625 18.6836 52.16 18.6345L52.046 16.4333L51.9745 16.3604C51.1182 16.526 51.098 16.5523 50.3072 16.6537L50.2456 16.7089C50.2369 16.7352 50.2369 16.7641 50.2318 16.7956L50.2369 16.8068C50.3358 17.312 50.312 17.1993 50.4112 17.9965C50.4574 18.3877 50.519 18.7812 50.5653 19.1676C50.6432 19.8143 50.6869 20.1326 50.7822 21.1195C50.2482 22.0008 50.1217 22.3342 49.6076 23.1077L49.6111 23.1154L49.2491 23.6879C49.2077 23.7483 49.1702 23.7897 49.1175 23.8073C49.0598 23.8359 48.9847 23.841 48.8804 23.841H48.6798L48.3816 24.8327L49.4044 24.8503C50.0049 24.8478 50.3823 24.567 50.5855 24.1895L51.2286 23.0875H51.2184L51.2861 23.0098C51.7187 22.0784 55.0095 16.4333 55.0095 16.4333ZM44.2145 29.4575H43.7806L45.3865 24.1457H45.9193L46.0884 23.5985L46.1048 24.207C46.0849 24.5832 46.3808 24.9166 47.1581 24.8614H48.057L48.3664 23.8386H48.0281C47.8336 23.8386 47.7434 23.7895 47.7547 23.6842L47.7383 23.0651H46.0736V23.0684C45.5354 23.0796 43.9282 23.12 43.6028 23.2067C43.209 23.3081 42.794 23.6066 42.794 23.6066L42.9571 23.0587H41.3999L41.0754 24.1457L39.448 29.5387H39.1322L38.8225 30.5541H41.924L41.82 30.8927H43.3483L43.4497 30.5541H43.8784L44.2145 29.4575ZM42.942 25.225C42.6926 25.294 42.2285 25.5033 42.2285 25.5033L42.6413 24.1457H43.8784L43.58 25.1348C43.58 25.1348 43.1978 25.1573 42.942 25.225ZM42.9657 27.1644C42.9657 27.1644 42.5771 27.2132 42.3213 27.271C42.0694 27.3473 41.5969 27.588 41.5969 27.588L42.0231 26.1753H43.2668L42.9657 27.1644ZM42.2725 29.47H41.0315L41.3912 28.2777H42.6284L42.2725 29.47ZM45.2612 26.1753H47.0501L46.793 27.0078H44.9804L44.7083 27.918H46.2943L45.0934 29.609C45.0093 29.7332 44.9339 29.7771 44.8501 29.8121C44.766 29.8548 44.6556 29.9049 44.5279 29.9049H44.0879L43.7856 30.9017H44.9364C45.5347 30.9017 45.888 30.6295 46.1489 30.2723L46.9724 29.1452L47.1493 30.2896C47.1868 30.504 47.3409 30.6295 47.4452 30.6783C47.5604 30.7361 47.6794 30.8352 47.8476 30.85C48.028 30.8577 48.1583 30.8638 48.2449 30.8638H48.8104L49.1499 29.7482H48.9269C48.7988 29.7482 48.5784 29.7267 48.5408 29.6866C48.5033 29.6378 48.5033 29.5627 48.4831 29.4485L48.3037 28.3015H47.569L47.8913 27.918H49.7003L49.9786 27.0078H48.3037L48.5646 26.1753H50.2344L50.5441 25.1486H45.5658L45.2612 26.1753ZM30.1523 29.7018L30.5698 28.3128H32.2859L32.5994 27.2797H30.8818L31.144 26.4248H32.8225L33.1335 25.4244H28.9337L28.6292 26.4248H29.5833L29.3288 27.2797H28.3721L28.055 28.3305H29.0088L28.4523 30.1681C28.3772 30.4114 28.4876 30.5041 28.5576 30.6171C28.6292 30.7272 28.7017 30.8 28.8647 30.8414C29.0329 30.879 29.1481 30.9014 29.3047 30.9014H31.2393L31.584 29.757L30.7265 29.8748C30.5609 29.8748 30.1023 29.8549 30.1523 29.7018ZM30.3491 23.0525L29.9143 23.8384C29.8212 24.0101 29.7374 24.1167 29.662 24.1658C29.5956 24.2072 29.464 24.2245 29.2734 24.2245H29.0465L28.7432 25.23H29.4967C29.8591 25.23 30.1373 25.0971 30.2702 25.0307C30.413 24.9543 30.4506 24.998 30.561 24.8914L30.8155 24.6709H33.1685L33.4808 23.6241H31.7584L32.0591 23.0525H30.3491ZM33.823 29.722C33.7829 29.6642 33.8118 29.5625 33.8731 29.3507L34.5163 27.2219H36.8042C37.1376 27.2171 37.3783 27.2133 37.5349 27.202C37.7031 27.1844 37.886 27.1244 38.0853 27.0165C38.2911 26.9036 38.3963 26.7845 38.4852 26.6478C38.5844 26.5114 38.7436 26.2129 38.8803 25.7527L39.6887 23.0588L37.3145 23.0726C37.3145 23.0726 36.5834 23.1804 36.2615 23.2995C35.9367 23.4324 35.4726 23.8034 35.4726 23.8034L35.687 23.0649H34.2204L32.167 29.8747C32.0942 30.1392 32.0454 30.3311 32.0342 30.4463C32.0303 30.5705 32.1908 30.6934 32.2948 30.7862C32.4177 30.8789 32.5993 30.8639 32.7736 30.8789C32.9568 30.8927 33.2174 30.9014 33.5772 30.9014H34.7043L35.0503 29.7332L34.0413 29.8285C33.9334 29.8285 33.8555 29.7708 33.823 29.722ZM34.9312 25.7841H37.3344L37.1816 26.263C37.1601 26.2742 37.1087 26.2392 36.8642 26.2681H34.7833L34.9312 25.7841ZM35.4126 24.1782H37.836L37.6617 24.7549C37.6617 24.7549 36.5195 24.7437 36.3366 24.7774C35.5317 24.9167 35.0615 25.3467 35.0615 25.3467L35.4126 24.1782ZM37.2354 27.8665C37.2155 27.938 37.184 27.9817 37.1401 28.0144C37.0913 28.0459 37.0123 28.0571 36.8946 28.0571H36.5521L36.5723 27.474H35.148L35.0903 30.3248C35.088 30.5305 35.1079 30.6496 35.2584 30.7449C35.409 30.864 35.8727 30.879 36.4969 30.879H37.3894L37.7116 29.8119L36.9347 29.8546L36.6763 29.8697C36.641 29.8546 36.6073 29.8408 36.5698 29.8033C36.537 29.7709 36.4818 29.7908 36.4908 29.585L36.4969 28.8543L37.3118 28.8206C37.7518 28.8206 37.9398 28.6774 38.1003 28.5411C38.2534 28.4104 38.3034 28.2602 38.3612 28.0571L38.4979 27.4101H37.3782L37.2354 27.8665Z" fill="white"/>
</svg>
