<svg width="68" height="44" viewBox="0 0 68 44" fill="none" xmlns="http://www.w3.org/2000/svg">
<g clip-path="url(#clip0_5619_10188)">
<path d="M0 6C0 2.68629 2.68629 0 6 0L62 0C65.3137 0 68 2.68629 68 6V38C68 41.3137 65.3137 44 62 44H6C2.68629 44 0 41.3137 0 38L0 6Z" fill="#FEFEFE"/>
<path d="M0 6C0 2.68629 2.68629 0 6 0H62C65.3137 0 68 2.68629 68 6V38C68 41.3137 65.3137 44 62 44H6C2.68629 44 0 41.3137 0 38V6Z" fill="url(#paint0_radial_5619_10188)"/>
<path d="M60.3322 28.4966C59.9559 28.1516 59.4556 27.939 58.9045 27.939H54.7688C54.7773 28.0998 54.8007 28.2566 54.8362 28.4088C54.8449 28.4426 54.8525 28.4767 54.8623 28.5102C54.866 28.5239 54.8698 28.5374 54.8737 28.5509C55.217 29.6396 56.2341 30.4292 57.4361 30.4292H60.9855C61.0071 30.3075 61.0204 30.183 61.0204 30.0551C61.0204 29.4376 60.7543 28.8836 60.3322 28.4966Z" fill="url(#paint1_linear_5619_10188)"/>
<path d="M54.8581 30.7931V33.9462H56.7801V32.1709H58.7147C59.7252 32.1709 60.5872 31.5975 60.9203 30.7931H54.8581Z" fill="#00925A"/>
<path d="M51.4512 28.5738L50.1055 31.4894H49.9692V27.939H48.0575V33.9469H49.6797C50.1059 33.9469 50.493 33.6992 50.6716 33.3124L52.0174 30.3968H52.1539V33.9469H54.0654V27.939H52.4431C52.0172 27.939 51.6298 28.1868 51.4512 28.5738Z" fill="#00925A"/>
<path d="M42.5503 28.7288L43.3467 31.4893H43.4832L44.2795 28.7288C44.4143 28.2611 44.8424 27.939 45.3292 27.939H47.2382V33.9469H45.3267V30.397H45.19L44.0976 33.9469H42.7322L41.6399 30.397H41.5033V33.9469H39.5919V27.939H41.5008C41.9874 27.939 42.4155 28.2611 42.5503 28.7288Z" fill="#00925A"/>
</g>
<defs>
<radialGradient id="paint0_radial_5619_10188" cx="0" cy="0" r="1" gradientTransform="matrix(-63 39.907 -37.8677 -58.5459 66 1.53488)" gradientUnits="userSpaceOnUse">
<stop offset="0.0874215" stop-color="#E7EEFF"/>
<stop offset="0.58822" stop-color="#D6E2FF"/>
</radialGradient>
<linearGradient id="paint1_linear_5619_10188" x1="61.0204" y1="30.943" x2="39.5919" y2="30.943" gradientUnits="userSpaceOnUse">
<stop stop-color="#1F5BD7"/>
<stop offset="1" stop-color="#00AFFF"/>
</linearGradient>
<clipPath id="clip0_5619_10188">
<path d="M0 6C0 2.68629 2.68629 0 6 0L62 0C65.3137 0 68 2.68629 68 6V38C68 41.3137 65.3137 44 62 44H6C2.68629 44 0 41.3137 0 38L0 6Z" fill="white"/>
</clipPath>
</defs>
</svg>
