<svg width="68" height="45" viewBox="0 0 68 45" fill="none" xmlns="http://www.w3.org/2000/svg">
<rect width="68" height="45" rx="6" fill="#D6E0EE"/>
<path d="M58.522 14.1118H54.9596C53.8826 14.1118 53.0541 14.4408 52.557 15.5098L45.7637 30.8881H50.5687C50.5687 30.8881 51.3972 28.8322 51.5629 28.3388C52.06 28.3388 56.7822 28.3388 57.445 28.3388C57.6106 28.9144 58.0249 30.8059 58.0249 30.8059H62.3329L58.522 14.1118ZM52.8884 24.8848C53.3027 23.898 54.711 20.1973 54.711 20.1973C54.711 20.2796 55.1253 19.2105 55.291 18.6348L55.6223 20.1151C55.6223 20.1151 56.5336 24.1447 56.6993 24.9671H52.8884V24.8848Z" fill="#3362AB"/>
<path d="M46.0944 25.3783C46.0944 28.8322 42.9462 31.1348 38.0583 31.1348C35.9872 31.1348 33.9989 30.7237 32.9219 30.2302L33.5846 26.4473L34.1646 26.6941C35.6558 27.352 36.6499 27.5987 38.4726 27.5987C39.7981 27.5987 41.2065 27.1052 41.2065 25.9539C41.2065 25.2138 40.6266 24.7204 38.8039 23.898C37.0642 23.0756 34.7445 21.7598 34.7445 19.375C34.7445 16.0855 37.9755 13.8651 42.532 13.8651C44.2718 13.8651 45.763 14.1941 46.6743 14.6052L46.0115 18.2237L45.6802 17.8947C44.8517 17.5658 43.7747 17.2368 42.2006 17.2368C40.4609 17.3191 39.6324 18.0592 39.6324 18.7171C39.6324 19.4572 40.6266 20.0329 42.2006 20.773C44.8517 22.0066 46.0944 23.4046 46.0944 25.3783Z" fill="#3362AB"/>
<path d="M5.66602 14.2763L5.74886 13.9474H12.8736C13.8678 13.9474 14.6134 14.2763 14.8619 15.3454L16.436 22.7467C14.8619 18.7994 11.2167 15.5921 5.66602 14.2763Z" fill="#F9B50B"/>
<path d="M26.4605 14.1118L19.2529 30.8059H14.365L10.2227 16.8256C13.2051 18.717 15.6905 21.6776 16.6018 23.7335L17.0989 25.4605L21.5726 14.0295H26.4605V14.1118Z" fill="#3362AB"/>
<path d="M28.3664 14.0295H32.9229L30.0233 30.8059H25.4668L28.3664 14.0295Z" fill="#3362AB"/>
</svg>
