<svg width="56" height="56" viewBox="0 0 56 56" fill="none" xmlns="http://www.w3.org/2000/svg">
  <rect width="56" height="56" rx="16" fill="#DA2032"/>
  <path d="M28.3799 14.667C30.7465 14.667 32.9776 15.2237 34.9141 16.21C34.4246 16.6946 34.0282 17.2734 33.7549 17.917C32.169 17.1524 30.3436 16.7178 28.3799 16.7178C22.0216 16.7179 17.0986 21.4024 17.0986 26.9062C17.0987 30.2101 18.8028 33.0692 21.5986 35.1025C21.864 35.2955 22.0215 35.6035 22.0215 35.9316V38.627L25.3037 36.9385C25.3973 36.8891 25.4992 36.8545 25.6055 36.8359C25.623 36.8329 25.6406 36.8303 25.6582 36.8281C25.7598 36.8158 25.8619 36.8183 25.9609 36.8359C26.775 36.9714 27.6547 37.0937 28.3799 37.0938C34.7382 37.0938 39.6619 32.4101 39.6621 26.9062C39.6621 26.3469 39.6111 25.7984 39.5176 25.2637C40.2251 25.1502 40.8861 24.899 41.4717 24.5361C41.6297 25.2995 41.7139 26.0915 41.7139 26.9062C41.7137 33.7099 35.6966 39.1455 28.3799 39.1455C27.5883 39.1455 26.7083 39.0326 25.9512 38.9131L21.4648 41.2197C21.1469 41.3832 20.7661 41.3698 20.4609 41.1836C20.1558 40.9973 19.9697 40.6651 19.9697 40.3076V36.4424C16.9868 34.1122 15.047 30.8055 15.0469 26.9062C15.0469 20.1026 21.0632 14.6672 28.3799 14.667Z" fill="#F5F5F5"/>
  <path d="M42.6665 20C42.6665 22.2091 40.8756 24 38.6665 24C36.4574 24 34.6665 22.2091 34.6665 20C34.6665 17.7909 36.4574 16 38.6665 16C40.8756 16 42.6665 17.7909 42.6665 20Z" fill="#F5F5F5"/>
</svg>
