<svg preserveAspectRatio="none" width="100%" height="100%" overflow="visible" style="display: block;" viewBox="0 0 24 24" fill="none" xmlns="http://www.w3.org/2000/svg">
<g id="mos ru">
<g id="Group 2">
<path id="Vector" d="M0.774173 18.0755H1.49684V18.6932C1.53937 18.6017 1.59604 18.5148 1.6669 18.4324C1.73774 18.3455 1.81805 18.27 1.90778 18.2059C2.00226 18.1418 2.1038 18.0915 2.21244 18.0549C2.32109 18.0183 2.43679 18 2.55961 18C2.87135 18 3.11462 18.0641 3.28938 18.1922C3.46414 18.3203 3.5846 18.4873 3.65071 18.6932C3.75936 18.4873 3.91051 18.3203 4.10416 18.1922C4.30254 18.0641 4.53164 18 4.79143 18C5.18346 18 5.48576 18.1121 5.6983 18.3363C5.91088 18.5605 6.01713 18.9083 6.01713 19.3796V21.7133H5.23777V19.5512C5.23777 19.2263 5.17402 18.9975 5.04648 18.8648C4.92367 18.7275 4.75599 18.6589 4.54344 18.6589C4.28837 18.6589 4.09708 18.7436 3.96954 18.9129C3.84675 19.0776 3.78533 19.2904 3.78533 19.5512V21.7133H3.00597V19.5512C3.00597 19.2263 2.94222 18.9975 2.81468 18.8648C2.69187 18.7275 2.52419 18.6589 2.31165 18.6589C2.05657 18.6589 1.86528 18.7436 1.73774 18.9129C1.61493 19.0776 1.55353 19.2904 1.55353 19.5512V21.7133H0.774173V18.0755Z" fill="var(--fill-0, #CC0029)"/>
<path id="Vector_2" d="M8.60325 21.7887C8.34346 21.7887 8.10022 21.7499 7.87348 21.6721C7.65149 21.5897 7.45784 21.4707 7.29252 21.3152C7.1272 21.1596 6.9973 20.9674 6.90283 20.7386C6.80837 20.5052 6.76112 20.2353 6.76112 19.9287V19.7914C6.76112 19.5031 6.80837 19.2492 6.90283 19.0295C6.9973 18.8053 7.1272 18.6177 7.29252 18.4667C7.45784 18.3111 7.65149 18.1945 7.87348 18.1167C8.10022 18.0389 8.34346 18 8.60325 18C8.86305 18 9.10393 18.0389 9.32594 18.1167C9.55265 18.1945 9.74867 18.3111 9.91399 18.4667C10.0793 18.6177 10.2092 18.8053 10.3037 19.0295C10.3982 19.2492 10.4454 19.5031 10.4454 19.7914V19.9287C10.4454 20.2353 10.3982 20.5052 10.3037 20.7386C10.2092 20.9674 10.0793 21.1596 9.91399 21.3152C9.74867 21.4707 9.55265 21.5897 9.32594 21.6721C9.10393 21.7499 8.86305 21.7887 8.60325 21.7887ZM8.60325 21.1298C8.74024 21.1298 8.87013 21.107 8.99295 21.0612C9.12046 21.0154 9.23146 20.9445 9.32594 20.8484C9.42512 20.7523 9.50307 20.6288 9.55974 20.4778C9.62116 20.3268 9.65186 20.1437 9.65186 19.9287V19.7914C9.65186 19.5947 9.62116 19.4254 9.55974 19.2835C9.50307 19.1417 9.42512 19.025 9.32594 18.9334C9.23146 18.8419 9.12046 18.7733 8.99295 18.7275C8.87013 18.6818 8.74024 18.6589 8.60325 18.6589C8.46627 18.6589 8.33401 18.6818 8.20647 18.7275C8.08369 18.7733 7.97268 18.8419 7.87348 18.9334C7.77903 19.025 7.70108 19.1417 7.63968 19.2835C7.58298 19.4254 7.55465 19.5947 7.55465 19.7914V19.9287C7.55465 20.1437 7.58298 20.3268 7.63968 20.4778C7.70108 20.6288 7.77903 20.7523 7.87348 20.8484C7.97268 20.9445 8.08369 21.0154 8.20647 21.0612C8.33401 21.107 8.46627 21.1298 8.60325 21.1298Z" fill="var(--fill-0, #CC0029)"/>
<path id="Vector_3" d="M12.6389 21.7887C12.3603 21.7887 12.1217 21.759 11.9233 21.6995C11.7297 21.64 11.5667 21.56 11.4345 21.4593C11.3069 21.3586 11.2077 21.242 11.1369 21.1093C11.0708 20.972 11.0283 20.8301 11.0094 20.6837H11.7887C11.8218 20.8118 11.9021 20.9194 12.0296 21.0063C12.1571 21.0887 12.3603 21.1298 12.6389 21.1298C12.9507 21.1298 13.1703 21.0887 13.2979 21.0063C13.4254 20.9239 13.4892 20.8164 13.4892 20.6837C13.4892 20.6242 13.4726 20.5693 13.4396 20.519C13.4065 20.4641 13.3522 20.416 13.2766 20.3748C13.2057 20.3291 13.1089 20.2879 12.9861 20.2513C12.8633 20.2147 12.7098 20.1849 12.5256 20.1621C12.313 20.1346 12.1194 20.0957 11.9446 20.0454C11.7698 19.9905 11.621 19.9195 11.4982 19.8326C11.3754 19.7457 11.281 19.6404 11.2148 19.5169C11.1487 19.3933 11.1157 19.2446 11.1157 19.0707C11.1157 18.9243 11.1463 18.787 11.2077 18.6589C11.2692 18.5262 11.3636 18.4118 11.4912 18.3157C11.6187 18.2196 11.7769 18.1441 11.9659 18.0892C12.1595 18.0297 12.3839 18 12.6389 18C12.8846 18 13.0971 18.0297 13.2766 18.0892C13.4561 18.1487 13.6049 18.2288 13.723 18.3295C13.8458 18.4301 13.9379 18.5491 13.9993 18.6864C14.0654 18.8191 14.1079 18.9586 14.1268 19.1051H13.3475C13.3097 18.9632 13.2317 18.8534 13.1137 18.7756C13.0003 18.6978 12.8421 18.6589 12.6389 18.6589C12.3603 18.6589 12.1666 18.7001 12.058 18.7824C11.9493 18.8648 11.895 18.9609 11.895 19.0707C11.895 19.1348 11.9092 19.192 11.9375 19.2423C11.9659 19.2927 12.0131 19.3384 12.0792 19.3796C12.1453 19.4162 12.2351 19.4505 12.3485 19.4825C12.4665 19.5146 12.6153 19.5398 12.7948 19.5581C13.0121 19.5855 13.2105 19.6267 13.39 19.6816C13.5742 19.7365 13.73 19.8097 13.8576 19.9012C13.9898 19.9882 14.0914 20.098 14.1622 20.2307C14.2331 20.3588 14.2685 20.5098 14.2685 20.6837C14.2685 20.8393 14.2331 20.9857 14.1622 21.123C14.0961 21.2557 13.9946 21.3724 13.8576 21.473C13.7253 21.5691 13.5553 21.6469 13.3475 21.7064C13.1444 21.7613 12.9082 21.7887 12.6389 21.7887Z" fill="var(--fill-0, #CC0029)"/>
<path id="Vector_4" d="M15.6503 21.7891C15.4898 21.7891 15.3551 21.7365 15.2465 21.6312C15.1378 21.526 15.0835 21.3956 15.0835 21.24C15.0835 21.0799 15.1378 20.9495 15.2465 20.8488C15.3551 20.7435 15.4898 20.6909 15.6503 20.6909C15.8109 20.6909 15.9456 20.7435 16.0542 20.8488C16.1628 20.9495 16.2171 21.0799 16.2171 21.24C16.2171 21.3956 16.1628 21.526 16.0542 21.6312C15.9456 21.7365 15.8109 21.7891 15.6503 21.7891Z" fill="var(--fill-0, #CC0029)"/>
<path id="Vector_5" d="M17.2415 18.0755H17.9641V18.6932C18.0397 18.5056 18.1625 18.3432 18.3326 18.2059C18.5074 18.0686 18.7223 18 18.9772 18C19.0953 18 19.1827 18.0046 19.2395 18.0137C19.3008 18.0229 19.3435 18.032 19.3671 18.0412V18.7275C19.2867 18.7047 19.2136 18.6887 19.1473 18.6795C19.0812 18.6658 19.0008 18.6589 18.9065 18.6589C18.7506 18.6589 18.616 18.6864 18.5026 18.7413C18.394 18.7916 18.3042 18.8602 18.2334 18.9472C18.1625 19.0295 18.1082 19.1279 18.0704 19.2423C18.0374 19.3521 18.0208 19.4665 18.0208 19.5855V21.7133H17.2415V18.0755Z" fill="var(--fill-0, #CC0029)"/>
<path id="Vector_6" d="M21.3129 21.7894C20.869 21.7894 20.5337 21.6659 20.3068 21.4188C20.08 21.1671 19.9667 20.785 19.9667 20.2725V18.0762H20.7462V20.2039C20.7462 20.5105 20.8097 20.7416 20.9373 20.8971C21.0697 21.0527 21.2775 21.1305 21.5608 21.1305C21.7168 21.1305 21.8489 21.1053 21.9577 21.055C22.071 21.0047 22.1632 20.936 22.2341 20.8491C22.3049 20.7622 22.3566 20.6638 22.3898 20.554C22.4277 20.4396 22.4466 20.3229 22.4466 20.2039V18.0762H23.2258V21.7139H22.5031V21.0962C22.4134 21.2838 22.2669 21.4462 22.064 21.5835C21.8655 21.7208 21.6151 21.7894 21.3129 21.7894Z" fill="var(--fill-0, #CC0029)"/>
</g>
<path id="Vector_7" fill-rule="evenodd" clip-rule="evenodd" d="M7.8871 12.991H10.2581V14.3857C10.2581 14.5214 10.2819 14.6467 10.3919 14.7369C10.605 14.9118 10.9487 14.8985 11.1387 14.7024C11.1387 14.7024 11.6161 14.1627 11.8839 13.9263C12.7002 13.1632 13.3349 12.991 14.3226 12.991H15.3387C16.2618 12.991 17.0323 12.4629 17.0323 11.6191V2.64004C17.0323 2.50012 16.9133 2.39062 16.7613 2.39062H6.46452C6.31249 2.39062 6.19355 2.50012 6.19355 2.64004V11.6191C6.19355 12.4629 6.96404 12.991 7.8871 12.991ZM7.54839 11.3697V3.63773H15.6774V11.3697C15.6774 11.5963 15.5343 11.7439 15.271 11.7439H14.3226C13.1629 11.7439 12.2952 12.0804 11.4097 12.8039V11.7439H7.95484C7.69152 11.7439 7.54839 11.5963 7.54839 11.3697Z" fill="var(--fill-0, #CC0029)"/>
</g>
</svg>
