<svg preserveAspectRatio="none" width="100%" height="100%" overflow="visible" style="display: block;" viewBox="0 0 24 24" fill="none" xmlns="http://www.w3.org/2000/svg">
<g id="VK Logo / Main">
<g id="&#226;&#134;&#179; Background">
</g>
<path id="&#226;&#134;&#179; Foreground" d="M5.64437 7H3.67516C3.11253 7 3 7.27254 3 7.57307C3 8.10977 3.66761 10.7717 6.10848 14.2924C7.73572 16.6967 10.0284 18 12.1146 18C13.3663 18 13.5212 17.7105 13.5212 17.2119V15.3947C13.5212 14.8158 13.6398 14.7002 14.0362 14.7002C14.3282 14.7002 14.8289 14.8505 15.9972 16.0098C17.3324 17.3837 17.5525 18 18.3036 18H20.2728C20.8354 18 21.1167 17.7105 20.9544 17.1393C20.7768 16.5699 20.1394 15.7439 19.2935 14.7646C18.8345 14.2065 18.1461 13.6054 17.9374 13.3048C17.6453 12.9185 17.7288 12.7467 17.9374 12.4032L17.9725 12.3521C18.2692 11.9181 20.3545 8.84119 20.587 7.74485C20.7121 7.31549 20.587 7 19.9914 7H18.0222C17.5215 7 17.2907 7.27254 17.1655 7.57307C17.1655 7.57307 16.1641 10.0848 14.7455 11.7163C14.2865 12.1886 14.0779 12.3388 13.8275 12.3388C13.7024 12.3388 13.5212 12.1885 13.5212 11.7592V7.74485C13.5212 7.22962 13.3759 7 12.9586 7H9.8641C9.5512 7 9.36302 7.23913 9.36302 7.46576C9.36302 7.95418 10.0723 8.06682 10.1454 9.44075V12.4247C10.1454 13.0789 10.0306 13.1976 9.78024 13.1976C9.11267 13.1976 7.4888 10.6746 6.5257 7.78777C6.33695 7.22666 6.14764 7 5.64437 7Z" fill="var(--fill-0, #4680C2)"/>
</g>
</svg>
