<svg preserveAspectRatio="none" width="100%" height="100%" overflow="visible" style="display: block;" viewBox="0 0 23.5198 24" fill="none" xmlns="http://www.w3.org/2000/svg">
<g id="Group">
<path id="Vector" d="M11.9998 9.81817V14.4654H18.458C18.1744 15.96 17.3234 17.2255 16.0471 18.0764L19.9416 21.0982C22.2107 19.0037 23.5198 15.9274 23.5198 12.2728C23.5198 11.4219 23.4434 10.6037 23.3016 9.81831L11.9998 9.81817Z" fill="var(--fill-0, #4285F4)"/>
<path id="Vector_2" d="M5.27467 14.284L4.39631 14.9564L1.28717 17.3782C3.26171 21.2945 7.30867 24 11.9995 24C15.2395 24 17.9558 22.9309 19.9413 21.0982L16.0468 18.0764C14.9777 18.7964 13.614 19.2328 11.9995 19.2328C8.87956 19.2328 6.22873 17.1274 5.27958 14.291L5.27467 14.284Z" fill="var(--fill-0, #34A853)"/>
<path id="Vector_3" d="M1.28718 6.62181C0.469041 8.23629 0 10.0581 0 11.9999C0 13.9417 0.469041 15.7635 1.28718 17.378C1.28718 17.3888 5.27997 14.2798 5.27997 14.2798C5.03997 13.5598 4.89811 12.7963 4.89811 11.9998C4.89811 11.2033 5.03997 10.4397 5.27997 9.71974L1.28718 6.62181Z" fill="var(--fill-0, #FBBC05)"/>
<path id="Vector_4" d="M11.9998 4.77817C13.7671 4.77817 15.338 5.38906 16.5925 6.56726L20.0288 3.13094C17.9452 1.18916 15.2398 0 11.9998 0C7.30892 0 3.26171 2.69454 1.28717 6.62181L5.27984 9.71999C6.22887 6.88361 8.87981 4.77817 11.9998 4.77817Z" fill="var(--fill-0, #EA4335)"/>
</g>
</svg>
