<svg preserveAspectRatio="none" width="100%" height="100%" overflow="visible" style="display: block;" viewBox="0 0 790.046 346.589" fill="none" xmlns="http://www.w3.org/2000/svg">
<g id="Vector Container" opacity="0.3">
<g id="Vector" filter="url(#filter0_d_0_44)">
<path d="M477.386 86.9872L489.752 119.682L484.754 142.59L459.895 167.164L477.386 86.9872Z" fill="url(#paint0_linear_0_44)" fill-opacity="0.43" shape-rendering="crispEdges"/>
<path d="M598.971 125.51L561.747 117.39L545.634 101.875L533.269 69.1804L598.971 125.51Z" fill="url(#paint1_linear_0_44)" fill-opacity="0.43" shape-rendering="crispEdges"/>
<path d="M528.142 182.053L531.89 164.872L515.777 149.358L502.034 212.354L528.142 182.053Z" fill="url(#paint2_linear_0_44)" fill-opacity="0.43" shape-rendering="crispEdges"/>
<path d="M549.25 174.659L489.752 119.682L477.386 86.9872L521.024 125.306L537.387 139.675L539.272 141.33L586.475 182.779L549.25 174.659Z" fill="url(#paint3_linear_0_44)" fill-opacity="0.43" shape-rendering="crispEdges"/>
<path d="M502.034 212.354L526.893 187.78L548.004 180.386L585.228 188.507L502.034 212.354Z" fill="url(#paint4_linear_0_44)" fill-opacity="0.43" shape-rendering="crispEdges"/>
<path d="M458.646 172.89L514.525 155.083L498.412 139.569L483.505 148.316L458.646 172.89Z" fill="url(#paint5_linear_0_44)" fill-opacity="0.43" shape-rendering="crispEdges"/>
<path d="M544.384 107.602L533.269 69.1804L521.024 125.306L537.387 139.675L540.637 124.78L544.384 107.602Z" fill="url(#paint6_linear_0_44)" fill-opacity="0.43" shape-rendering="crispEdges"/>
<path d="M561.747 117.39L561.744 117.388L540.637 124.78L537.387 139.675L539.272 141.33L598.968 125.509L561.747 117.39Z" fill="url(#paint7_linear_0_44)" fill-opacity="0.43" shape-rendering="crispEdges"/>
</g>
<g id="Vector_2" filter="url(#filter1_d_0_44)">
<path d="M577.089 146.99L607.542 192.778V229.409L577.089 275.198V146.99Z" fill="var(--fill-0, #9900FF)" fill-opacity="0.43" shape-rendering="crispEdges"/>
<path d="M577.089 146.99L607.542 192.778V229.409L577.089 275.198V146.99Z" fill="url(#paint8_linear_0_44)" fill-opacity="0.44" shape-rendering="crispEdges"/>
<path d="M780.114 165.304H719.208L688.755 146.989L658.301 101.2L780.114 165.304Z" fill="var(--fill-0, #9900FF)" fill-opacity="0.43" shape-rendering="crispEdges"/>
<path d="M780.114 165.304H719.208L688.755 146.989L658.301 101.2L780.114 165.304Z" fill="url(#paint9_linear_0_44)" fill-opacity="0.44" shape-rendering="crispEdges"/>
<path d="M688.755 275.197V247.724L658.301 229.409V330.144L688.755 275.197Z" fill="var(--fill-0, #9900FF)" fill-opacity="0.43" shape-rendering="crispEdges"/>
<path d="M688.755 275.197V247.724L658.301 229.409V330.144L688.755 275.197Z" fill="url(#paint10_linear_0_44)" fill-opacity="0.44" shape-rendering="crispEdges"/>
<path d="M719.203 256.882L607.542 192.778L577.089 146.99L658.301 190.949L688.755 207.433L692.261 209.331L780.109 256.882H719.203Z" fill="var(--fill-0, #9900FF)" fill-opacity="0.43" shape-rendering="crispEdges"/>
<path d="M719.203 256.882L607.542 192.778L577.089 146.99L658.301 190.949L688.755 207.433L692.261 209.331L780.109 256.882H719.203Z" fill="url(#paint11_linear_0_44)" fill-opacity="0.44" shape-rendering="crispEdges"/>
<path d="M658.301 330.144L688.755 284.355L719.208 266.04H780.114L658.301 330.144Z" fill="var(--fill-0, #9900FF)" fill-opacity="0.43" shape-rendering="crispEdges"/>
<path d="M658.301 330.144L688.755 284.355L719.208 266.04H780.114L658.301 330.144Z" fill="url(#paint12_linear_0_44)" fill-opacity="0.44" shape-rendering="crispEdges"/>
<path d="M577.089 284.354L658.297 238.566L627.844 220.25L607.542 238.566L577.089 284.354Z" fill="var(--fill-0, #9900FF)" fill-opacity="0.43" shape-rendering="crispEdges"/>
<path d="M577.089 284.354L658.297 238.566L627.844 220.25L607.542 238.566L577.089 284.354Z" fill="url(#paint13_linear_0_44)" fill-opacity="0.44" shape-rendering="crispEdges"/>
<path d="M688.755 156.146L658.301 101.2V190.949L688.755 207.433V183.615V156.146Z" fill="var(--fill-0, #9900FF)" fill-opacity="0.43" shape-rendering="crispEdges"/>
<path d="M688.755 156.146L658.301 101.2V190.949L688.755 207.433V183.615V156.146Z" fill="url(#paint14_linear_0_44)" fill-opacity="0.44" shape-rendering="crispEdges"/>
<path d="M719.208 165.304L719.202 165.303L688.755 183.615V207.433L692.261 209.331L780.108 165.303L719.208 165.304Z" fill="var(--fill-0, #9900FF)" fill-opacity="0.43" shape-rendering="crispEdges"/>
<path d="M719.208 165.304L719.202 165.303L688.755 183.615V207.433L692.261 209.331L780.108 165.303L719.208 165.304Z" fill="url(#paint15_linear_0_44)" fill-opacity="0.44" shape-rendering="crispEdges"/>
</g>
<g id="Vector_3">
<path d="M247.017 153.254L237.88 196.209L217.122 217.401L174.365 227.424L247.017 153.254Z" fill="var(--fill-0, #9900FF)" fill-opacity="0.43"/>
<path d="M247.017 153.254L237.88 196.209L217.122 217.401L174.365 227.424L247.017 153.254Z" fill="url(#paint16_linear_0_44)" fill-opacity="0.44"/>
<path d="M348.71 273.626L315.089 240.694L308.658 213.632L317.795 170.676L348.71 273.626Z" fill="var(--fill-0, #9900FF)" fill-opacity="0.43"/>
<path d="M348.71 273.626L315.089 240.694L308.658 213.632L317.795 170.676L348.71 273.626Z" fill="url(#paint17_linear_0_44)" fill-opacity="0.44"/>
<path d="M236.005 287.803L251.573 271.909L245.142 244.847L188.058 303.124L236.005 287.803Z" fill="var(--fill-0, #9900FF)" fill-opacity="0.43"/>
<path d="M236.005 287.803L251.573 271.909L245.142 244.847L188.058 303.124L236.005 287.803Z" fill="url(#paint18_linear_0_44)" fill-opacity="0.44"/>
<path d="M263.192 293.671L237.88 196.209L247.017 153.254L266.936 222.597L274.405 248.6L275.266 251.594L296.812 326.603L263.192 293.671Z" fill="var(--fill-0, #9900FF)" fill-opacity="0.43"/>
<path d="M263.192 293.671L237.88 196.209L247.017 153.254L266.936 222.597L274.405 248.6L275.266 251.594L296.812 326.603L263.192 293.671Z" fill="url(#paint19_linear_0_44)" fill-opacity="0.44"/>
<path d="M188.058 303.124L230.815 293.101L258.005 298.971L291.625 331.904L188.058 303.124Z" fill="var(--fill-0, #9900FF)" fill-opacity="0.43"/>
<path d="M188.058 303.124L230.815 293.101L258.005 298.971L291.625 331.904L188.058 303.124Z" fill="url(#paint20_linear_0_44)" fill-opacity="0.44"/>
<path d="M169.176 232.722L239.95 250.142L233.519 223.08L211.933 222.698L169.176 232.722Z" fill="var(--fill-0, #9900FF)" fill-opacity="0.43"/>
<path d="M169.176 232.722L239.95 250.142L233.519 223.08L211.933 222.698L169.176 232.722Z" fill="url(#paint21_linear_0_44)" fill-opacity="0.44"/>
<path d="M303.468 218.93L317.795 170.676L266.936 222.597L274.405 248.6L287.903 234.821L303.468 218.93Z" fill="var(--fill-0, #9900FF)" fill-opacity="0.43"/>
<path d="M303.468 218.93L317.795 170.676L266.936 222.597L274.405 248.6L287.903 234.821L303.468 218.93Z" fill="url(#paint22_linear_0_44)" fill-opacity="0.44"/>
<path d="M315.089 240.694L315.087 240.69L287.903 234.821L274.405 248.6L275.266 251.594L348.707 273.622L315.089 240.694Z" fill="var(--fill-0, #9900FF)" fill-opacity="0.43"/>
<path d="M315.089 240.694L315.087 240.69L287.903 234.821L274.405 248.6L275.266 251.594L348.707 273.622L315.089 240.694Z" fill="url(#paint23_linear_0_44)" fill-opacity="0.44"/>
</g>
<g id="Vector_4" opacity="0.64">
<path d="M8.41091e-06 64.4104L40.1293 105.384L48.1864 143.276L28.1997 197.032L8.41091e-06 64.4104Z" fill="var(--fill-0, #9900FF)" fill-opacity="0.43"/>
<path d="M8.41091e-06 64.4104L40.1293 105.384L48.1864 143.276L28.1997 197.032L8.41091e-06 64.4104Z" fill="url(#paint24_linear_0_44)" fill-opacity="0.44"/>
<path d="M204.419 40.7458L144.303 53.5284L110.217 40.9737L70.0876 5.43615e-07L204.419 40.7458Z" fill="var(--fill-0, #9900FF)" fill-opacity="0.43"/>
<path d="M204.419 40.7458L144.303 53.5284L110.217 40.9737L70.0876 5.43615e-07L204.419 40.7458Z" fill="url(#paint25_linear_0_44)" fill-opacity="0.44"/>
<path d="M138.417 173.597L132.374 145.178L98.2875 132.623L120.444 236.826L138.417 173.597Z" fill="var(--fill-0, #9900FF)" fill-opacity="0.43"/>
<path d="M138.417 173.597L132.374 145.178L98.2875 132.623L120.444 236.826L138.417 173.597Z" fill="url(#paint26_linear_0_44)" fill-opacity="0.44"/>
<path d="M164.442 148.26L40.1293 105.384L8.41091e-06 64.4104L89.8282 92.8389L123.512 103.499L127.391 104.727L224.558 135.478L164.442 148.26Z" fill="var(--fill-0, #9900FF)" fill-opacity="0.43"/>
<path d="M164.442 148.26L40.1293 105.384L8.41091e-06 64.4104L89.8282 92.8389L123.512 103.499L127.391 104.727L224.558 135.478L164.442 148.26Z" fill="url(#paint27_linear_0_44)" fill-opacity="0.44"/>
<path d="M120.444 236.826L140.431 183.07L166.461 157.732L226.577 144.95L120.444 236.826Z" fill="var(--fill-0, #9900FF)" fill-opacity="0.43"/>
<path d="M120.444 236.826L140.431 183.07L166.461 157.732L226.577 144.95L120.444 236.826Z" fill="url(#paint28_linear_0_44)" fill-opacity="0.44"/>
<path d="M30.2138 206.504L100.297 142.096L66.2106 129.541L50.2004 152.748L30.2138 206.504Z" fill="var(--fill-0, #9900FF)" fill-opacity="0.43"/>
<path d="M30.2138 206.504L100.297 142.096L66.2106 129.541L50.2004 152.748L30.2138 206.504Z" fill="url(#paint29_linear_0_44)" fill-opacity="0.44"/>
<path d="M112.231 50.4467L70.0876 5.43615e-07L89.8282 92.8389L123.512 103.499L118.273 78.861L112.231 50.4467Z" fill="var(--fill-0, #9900FF)" fill-opacity="0.43"/>
<path d="M112.231 50.4467L70.0876 5.43615e-07L89.8282 92.8389L123.512 103.499L118.273 78.861L112.231 50.4467Z" fill="url(#paint30_linear_0_44)" fill-opacity="0.44"/>
<path d="M144.303 53.5284L144.298 53.5284L118.273 78.861L123.512 103.499L127.391 104.727L204.414 40.7458L144.303 53.5284Z" fill="var(--fill-0, #9900FF)" fill-opacity="0.43"/>
<path d="M144.303 53.5284L144.298 53.5284L118.273 78.861L123.512 103.499L127.391 104.727L204.414 40.7458L144.303 53.5284Z" fill="url(#paint31_linear_0_44)" fill-opacity="0.44"/>
</g>
<g id="Vector_5">
<path d="M497.5 24.6736L513.13 49.0969V68.6356L497.5 93.059V24.6736Z" fill="url(#paint32_linear_0_44)" fill-opacity="0.8"/>
<path d="M601.707 34.4424H570.445L554.815 24.673L539.184 0.249687L601.707 34.4424Z" fill="url(#paint33_linear_0_44)" fill-opacity="0.8"/>
<path d="M554.815 93.0589V78.4049L539.184 68.6356V122.367L554.815 93.0589Z" fill="url(#paint34_linear_0_44)" fill-opacity="0.8"/>
<path d="M570.443 83.2896L513.13 49.0969L497.5 24.6736L539.184 48.1213L554.815 56.9137L556.614 57.9262L601.704 83.2896H570.443Z" fill="url(#paint35_linear_0_44)" fill-opacity="0.8"/>
<path d="M539.184 122.367L554.815 97.9437L570.445 88.1743H601.707L539.184 122.367Z" fill="url(#paint36_linear_0_44)" fill-opacity="0.8"/>
<path d="M497.5 97.9431L539.182 73.5198L523.551 63.7504L513.13 73.5198L497.5 97.9431Z" fill="url(#paint37_linear_0_44)" fill-opacity="0.8"/>
<path d="M554.815 29.5577L539.184 0.249687V48.1213L554.815 56.9137V44.2093V29.5577Z" fill="url(#paint38_linear_0_44)" fill-opacity="0.8"/>
<path d="M570.445 34.4424L570.442 34.4418L554.815 44.2093V56.9137L556.614 57.9262L601.704 34.4418L570.445 34.4424Z" fill="url(#paint39_linear_0_44)" fill-opacity="0.8"/>
</g>
</g>
<defs>
<filter id="filter0_d_0_44" x="448.714" y="65.7611" width="160.19" height="163.038" filterUnits="userSpaceOnUse" color-interpolation-filters="sRGB">
<feFlood flood-opacity="0" result="BackgroundImageFix"/>
<feColorMatrix in="SourceAlpha" type="matrix" values="0 0 0 0 0 0 0 0 0 0 0 0 0 0 0 0 0 0 127 0" result="hardAlpha"/>
<feOffset dy="6.51292"/>
<feGaussianBlur stdDeviation="4.9661"/>
<feComposite in2="hardAlpha" operator="out"/>
<feColorMatrix type="matrix" values="0 0 0 0 0.113526 0 0 0 0 0.0641667 0 0 0 0 0.320833 0 0 0 1 0"/>
<feBlend mode="normal" in2="BackgroundImageFix" result="effect1_dropShadow_0_44"/>
<feBlend mode="normal" in="SourceGraphic" in2="effect1_dropShadow_0_44" result="shape"/>
</filter>
<filter id="filter1_d_0_44" x="567.156" y="97.7809" width="222.89" height="248.808" filterUnits="userSpaceOnUse" color-interpolation-filters="sRGB">
<feFlood flood-opacity="0" result="BackgroundImageFix"/>
<feColorMatrix in="SourceAlpha" type="matrix" values="0 0 0 0 0 0 0 0 0 0 0 0 0 0 0 0 0 0 127 0" result="hardAlpha"/>
<feOffset dy="6.51292"/>
<feGaussianBlur stdDeviation="4.9661"/>
<feComposite in2="hardAlpha" operator="out"/>
<feColorMatrix type="matrix" values="0 0 0 0 0.113526 0 0 0 0 0.0641667 0 0 0 0 0.320833 0 0 0 1 0"/>
<feBlend mode="normal" in2="BackgroundImageFix" result="effect1_dropShadow_0_44"/>
<feBlend mode="normal" in="SourceGraphic" in2="effect1_dropShadow_0_44" result="shape"/>
</filter>
<linearGradient id="paint0_linear_0_44" x1="545.675" y1="71.887" x2="514.441" y2="215.06" gradientUnits="userSpaceOnUse">
<stop stop-color="#9900FF"/>
<stop offset="1" stop-color="#5C0099"/>
</linearGradient>
<linearGradient id="paint1_linear_0_44" x1="545.675" y1="71.887" x2="514.441" y2="215.06" gradientUnits="userSpaceOnUse">
<stop stop-color="#9900FF"/>
<stop offset="1" stop-color="#5C0099"/>
</linearGradient>
<linearGradient id="paint2_linear_0_44" x1="545.675" y1="71.887" x2="514.441" y2="215.06" gradientUnits="userSpaceOnUse">
<stop stop-color="#9900FF"/>
<stop offset="1" stop-color="#5C0099"/>
</linearGradient>
<linearGradient id="paint3_linear_0_44" x1="545.675" y1="71.887" x2="514.441" y2="215.06" gradientUnits="userSpaceOnUse">
<stop stop-color="#9900FF"/>
<stop offset="1" stop-color="#5C0099"/>
</linearGradient>
<linearGradient id="paint4_linear_0_44" x1="545.675" y1="71.887" x2="514.441" y2="215.06" gradientUnits="userSpaceOnUse">
<stop stop-color="#9900FF"/>
<stop offset="1" stop-color="#5C0099"/>
</linearGradient>
<linearGradient id="paint5_linear_0_44" x1="545.675" y1="71.887" x2="514.441" y2="215.06" gradientUnits="userSpaceOnUse">
<stop stop-color="#9900FF"/>
<stop offset="1" stop-color="#5C0099"/>
</linearGradient>
<linearGradient id="paint6_linear_0_44" x1="545.675" y1="71.887" x2="514.441" y2="215.06" gradientUnits="userSpaceOnUse">
<stop stop-color="#9900FF"/>
<stop offset="1" stop-color="#5C0099"/>
</linearGradient>
<linearGradient id="paint7_linear_0_44" x1="545.675" y1="71.887" x2="514.441" y2="215.06" gradientUnits="userSpaceOnUse">
<stop stop-color="#9900FF"/>
<stop offset="1" stop-color="#5C0099"/>
</linearGradient>
<linearGradient id="paint8_linear_0_44" x1="678.601" y1="101.2" x2="678.601" y2="330.144" gradientUnits="userSpaceOnUse">
<stop stop-color="#9900FF"/>
<stop offset="1" stop-color="#5C0099"/>
</linearGradient>
<linearGradient id="paint9_linear_0_44" x1="678.601" y1="101.2" x2="678.601" y2="330.144" gradientUnits="userSpaceOnUse">
<stop stop-color="#9900FF"/>
<stop offset="1" stop-color="#5C0099"/>
</linearGradient>
<linearGradient id="paint10_linear_0_44" x1="678.601" y1="101.2" x2="678.601" y2="330.144" gradientUnits="userSpaceOnUse">
<stop stop-color="#9900FF"/>
<stop offset="1" stop-color="#5C0099"/>
</linearGradient>
<linearGradient id="paint11_linear_0_44" x1="678.601" y1="101.2" x2="678.601" y2="330.144" gradientUnits="userSpaceOnUse">
<stop stop-color="#9900FF"/>
<stop offset="1" stop-color="#5C0099"/>
</linearGradient>
<linearGradient id="paint12_linear_0_44" x1="678.601" y1="101.2" x2="678.601" y2="330.144" gradientUnits="userSpaceOnUse">
<stop stop-color="#9900FF"/>
<stop offset="1" stop-color="#5C0099"/>
</linearGradient>
<linearGradient id="paint13_linear_0_44" x1="678.601" y1="101.2" x2="678.601" y2="330.144" gradientUnits="userSpaceOnUse">
<stop stop-color="#9900FF"/>
<stop offset="1" stop-color="#5C0099"/>
</linearGradient>
<linearGradient id="paint14_linear_0_44" x1="678.601" y1="101.2" x2="678.601" y2="330.144" gradientUnits="userSpaceOnUse">
<stop stop-color="#9900FF"/>
<stop offset="1" stop-color="#5C0099"/>
</linearGradient>
<linearGradient id="paint15_linear_0_44" x1="678.601" y1="101.2" x2="678.601" y2="330.144" gradientUnits="userSpaceOnUse">
<stop stop-color="#9900FF"/>
<stop offset="1" stop-color="#5C0099"/>
</linearGradient>
<linearGradient id="paint16_linear_0_44" x1="329" y1="181.652" x2="199.264" y2="314.1" gradientUnits="userSpaceOnUse">
<stop stop-color="#9900FF"/>
<stop offset="1" stop-color="#5C0099"/>
</linearGradient>
<linearGradient id="paint17_linear_0_44" x1="329" y1="181.652" x2="199.264" y2="314.1" gradientUnits="userSpaceOnUse">
<stop stop-color="#9900FF"/>
<stop offset="1" stop-color="#5C0099"/>
</linearGradient>
<linearGradient id="paint18_linear_0_44" x1="329" y1="181.652" x2="199.264" y2="314.1" gradientUnits="userSpaceOnUse">
<stop stop-color="#9900FF"/>
<stop offset="1" stop-color="#5C0099"/>
</linearGradient>
<linearGradient id="paint19_linear_0_44" x1="329" y1="181.652" x2="199.264" y2="314.1" gradientUnits="userSpaceOnUse">
<stop stop-color="#9900FF"/>
<stop offset="1" stop-color="#5C0099"/>
</linearGradient>
<linearGradient id="paint20_linear_0_44" x1="329" y1="181.652" x2="199.264" y2="314.1" gradientUnits="userSpaceOnUse">
<stop stop-color="#9900FF"/>
<stop offset="1" stop-color="#5C0099"/>
</linearGradient>
<linearGradient id="paint21_linear_0_44" x1="329" y1="181.652" x2="199.264" y2="314.1" gradientUnits="userSpaceOnUse">
<stop stop-color="#9900FF"/>
<stop offset="1" stop-color="#5C0099"/>
</linearGradient>
<linearGradient id="paint22_linear_0_44" x1="329" y1="181.652" x2="199.264" y2="314.1" gradientUnits="userSpaceOnUse">
<stop stop-color="#9900FF"/>
<stop offset="1" stop-color="#5C0099"/>
</linearGradient>
<linearGradient id="paint23_linear_0_44" x1="329" y1="181.652" x2="199.264" y2="314.1" gradientUnits="userSpaceOnUse">
<stop stop-color="#9900FF"/>
<stop offset="1" stop-color="#5C0099"/>
</linearGradient>
<linearGradient id="paint24_linear_0_44" x1="90.124" y1="-4.26039" x2="140.481" y2="232.565" gradientUnits="userSpaceOnUse">
<stop stop-color="#9900FF"/>
<stop offset="1" stop-color="#5C0099"/>
</linearGradient>
<linearGradient id="paint25_linear_0_44" x1="90.124" y1="-4.26039" x2="140.481" y2="232.565" gradientUnits="userSpaceOnUse">
<stop stop-color="#9900FF"/>
<stop offset="1" stop-color="#5C0099"/>
</linearGradient>
<linearGradient id="paint26_linear_0_44" x1="90.124" y1="-4.26039" x2="140.481" y2="232.565" gradientUnits="userSpaceOnUse">
<stop stop-color="#9900FF"/>
<stop offset="1" stop-color="#5C0099"/>
</linearGradient>
<linearGradient id="paint27_linear_0_44" x1="90.124" y1="-4.26039" x2="140.481" y2="232.565" gradientUnits="userSpaceOnUse">
<stop stop-color="#9900FF"/>
<stop offset="1" stop-color="#5C0099"/>
</linearGradient>
<linearGradient id="paint28_linear_0_44" x1="90.124" y1="-4.26039" x2="140.481" y2="232.565" gradientUnits="userSpaceOnUse">
<stop stop-color="#9900FF"/>
<stop offset="1" stop-color="#5C0099"/>
</linearGradient>
<linearGradient id="paint29_linear_0_44" x1="90.124" y1="-4.26039" x2="140.481" y2="232.565" gradientUnits="userSpaceOnUse">
<stop stop-color="#9900FF"/>
<stop offset="1" stop-color="#5C0099"/>
</linearGradient>
<linearGradient id="paint30_linear_0_44" x1="90.124" y1="-4.26039" x2="140.481" y2="232.565" gradientUnits="userSpaceOnUse">
<stop stop-color="#9900FF"/>
<stop offset="1" stop-color="#5C0099"/>
</linearGradient>
<linearGradient id="paint31_linear_0_44" x1="90.124" y1="-4.26039" x2="140.481" y2="232.565" gradientUnits="userSpaceOnUse">
<stop stop-color="#9900FF"/>
<stop offset="1" stop-color="#5C0099"/>
</linearGradient>
<linearGradient id="paint32_linear_0_44" x1="549.603" y1="0.249687" x2="549.603" y2="122.367" gradientUnits="userSpaceOnUse">
<stop stop-color="#9900FF"/>
<stop offset="1" stop-color="#5C0099"/>
</linearGradient>
<linearGradient id="paint33_linear_0_44" x1="549.603" y1="0.249687" x2="549.603" y2="122.367" gradientUnits="userSpaceOnUse">
<stop stop-color="#9900FF"/>
<stop offset="1" stop-color="#5C0099"/>
</linearGradient>
<linearGradient id="paint34_linear_0_44" x1="549.603" y1="0.249687" x2="549.603" y2="122.367" gradientUnits="userSpaceOnUse">
<stop stop-color="#9900FF"/>
<stop offset="1" stop-color="#5C0099"/>
</linearGradient>
<linearGradient id="paint35_linear_0_44" x1="549.603" y1="0.249687" x2="549.603" y2="122.367" gradientUnits="userSpaceOnUse">
<stop stop-color="#9900FF"/>
<stop offset="1" stop-color="#5C0099"/>
</linearGradient>
<linearGradient id="paint36_linear_0_44" x1="549.603" y1="0.249687" x2="549.603" y2="122.367" gradientUnits="userSpaceOnUse">
<stop stop-color="#9900FF"/>
<stop offset="1" stop-color="#5C0099"/>
</linearGradient>
<linearGradient id="paint37_linear_0_44" x1="549.603" y1="0.249687" x2="549.603" y2="122.367" gradientUnits="userSpaceOnUse">
<stop stop-color="#9900FF"/>
<stop offset="1" stop-color="#5C0099"/>
</linearGradient>
<linearGradient id="paint38_linear_0_44" x1="549.603" y1="0.249687" x2="549.603" y2="122.367" gradientUnits="userSpaceOnUse">
<stop stop-color="#9900FF"/>
<stop offset="1" stop-color="#5C0099"/>
</linearGradient>
<linearGradient id="paint39_linear_0_44" x1="549.603" y1="0.249687" x2="549.603" y2="122.367" gradientUnits="userSpaceOnUse">
<stop stop-color="#9900FF"/>
<stop offset="1" stop-color="#5C0099"/>
</linearGradient>
</defs>
</svg>
