<svg preserveAspectRatio="none" width="100%" height="100%" overflow="visible" style="display: block;" viewBox="0 0 12.4739 11.9667" fill="none" xmlns="http://www.w3.org/2000/svg">
<path id="Vector" fill-rule="evenodd" clip-rule="evenodd" d="M0.251053 0.251066C0.585788 -0.0836694 1.1285 -0.0836694 1.46324 0.251066L6.2565 4.75634L10.6805 0.251051C11.0152 -0.0836838 11.5579 -0.0836838 11.8927 0.251051C12.2274 0.585786 12.2274 1.1285 11.8927 1.46324L7.46868 5.96852L12.2228 10.5035C12.5576 10.8382 12.5576 11.3809 12.2228 11.7157C11.8881 12.0504 11.3454 12.0504 11.0107 11.7157L6.2565 7.1807L1.46323 11.7157C1.1285 12.0504 0.585786 12.0504 0.251051 11.7157C-0.0836838 11.3809 -0.0836838 10.8382 0.251051 10.5035L5.04432 5.96852L0.251053 1.46325C-0.0836819 1.12851 -0.0836819 0.585801 0.251053 0.251066Z" fill="var(--fill-0, #333333)"/>
</svg>
