<svg width="172" height="58" viewBox="0 0 172 58" fill="none" xmlns="http://www.w3.org/2000/svg">
<path d="M32.211 33.935C34.3411 31.7716 35.6595 28.7907 35.6595 25.5036C35.6595 18.9135 30.3603 13.5524 23.846 13.5524C17.3335 13.5524 12.0322 18.9135 12.0322 25.5036C12.0322 28.7907 13.3746 31.8008 15.4824 33.935C15.7307 34.186 16.0744 34.3498 16.4556 34.3498C17.2041 34.3498 17.8112 33.7353 17.8112 32.9781C17.8112 32.5857 17.6463 32.2347 17.3877 31.9849C15.7544 30.319 14.744 28.0283 14.744 25.5036C14.744 20.4262 18.827 16.294 23.846 16.294C28.8664 16.294 32.9512 20.4262 32.9512 25.5036C32.9512 28.0421 31.9286 30.3431 30.2819 32.0106L18.4816 43.9466L20.3989 45.8844L32.211 33.935ZM14.3656 36.4584C14.3656 36.0729 14.2024 35.7218 13.9506 35.4653C11.4427 32.9286 9.87785 29.3917 9.87785 25.5037C9.87785 17.7126 16.1453 11.3722 23.8453 11.3722C31.5485 11.3722 37.8145 17.7126 37.8145 25.5037C37.8145 29.4003 36.2475 32.9335 33.7176 35.4928L21.9212 47.425L23.8435 49.3697L35.6471 37.4274C38.6617 34.3742 40.5263 30.1593 40.5263 25.5038C40.5263 16.1842 33.0594 8.63037 23.8453 8.63037C14.6344 8.63037 7.16602 16.1842 7.16602 25.5038C7.16602 30.1557 9.03557 34.3809 12.0364 37.4188C12.2935 37.6769 12.6301 37.8283 13.0096 37.8283C13.7583 37.8283 14.3656 37.214 14.3656 36.4584ZM30.7952 25.5028C30.7952 21.6271 27.6765 18.4742 23.8471 18.4742C20.0155 18.4742 16.899 21.6271 16.899 25.5028C16.899 29.3788 20.0155 32.5335 23.8471 32.5335C27.6765 32.5335 30.7952 29.3788 30.7952 25.5028ZM19.609 25.5028C19.609 23.1398 21.5094 21.2158 23.8471 21.2158C26.183 21.2158 28.0832 23.1398 28.0832 25.5028C28.0832 27.8677 26.183 29.792 23.8471 29.792C21.5094 29.792 19.609 27.8677 19.609 25.5028Z" fill="#DA2032"/>
<path d="M90.832 23.1047L93.2996 15.5076H94.5761L96.3141 20.6518H96.3357L98.0522 15.5076H99.3287L101.786 23.1047H99.9723L98.6529 18.6767H98.6314L97.0652 23.1047H95.5523L93.9862 18.6767H93.9648L92.6452 23.1047H90.832Z" fill="#DA2032"/>
<path d="M102.252 20.3481C102.252 18.6768 103.389 17.4937 105.031 17.4937C106.65 17.4937 107.799 18.6768 107.799 20.3481C107.799 22.052 106.65 23.2352 105.031 23.2352C103.389 23.2352 102.252 22.052 102.252 20.3481ZM106.168 20.3481C106.168 19.5014 105.739 18.9046 105.031 18.9046C104.322 18.9046 103.883 19.5014 103.883 20.3481C103.883 21.1731 104.322 21.8242 105.031 21.8242C105.739 21.8242 106.168 21.1731 106.168 20.3481Z" fill="#DA2032"/>
<path d="M108.594 20.3481C108.594 18.6768 109.656 17.4937 111.276 17.4937C111.952 17.4937 112.713 17.6348 113.336 18.2534L112.338 19.2518C112.091 18.9915 111.748 18.8936 111.372 18.8936C110.664 18.8936 110.235 19.5014 110.235 20.3481C110.235 21.1949 110.664 21.8242 111.372 21.8242C111.748 21.8242 112.091 21.7264 112.338 21.4769L113.336 22.4753C112.713 23.0939 111.952 23.2352 111.276 23.2352C109.656 23.2352 108.594 22.052 108.594 20.3481Z" fill="#DA2032"/>
<path d="M114.283 17.624H115.849V19.697H116.086L117.362 17.624H119.154L117.416 20.3372L119.368 23.1047H117.459L116.021 21.021H115.849V23.1047H114.283V17.624Z" fill="#DA2032"/>
<path d="M119.746 20.3481C119.746 18.6768 120.883 17.4937 122.525 17.4937C124.145 17.4937 125.293 18.6768 125.293 20.3481C125.293 22.052 124.145 23.2352 122.525 23.2352C120.883 23.2352 119.746 22.052 119.746 20.3481ZM123.662 20.3481C123.662 19.5014 123.233 18.9046 122.525 18.9046C121.817 18.9046 121.377 19.5014 121.377 20.3481C121.377 21.1731 121.817 21.8242 122.525 21.8242C123.233 21.8242 123.662 21.1731 123.662 20.3481Z" fill="#DA2032"/>
<path d="M126.443 23.1047V17.624H129.244C130.306 17.624 131.228 18.0257 131.228 19.111C131.228 19.6101 130.842 20.0443 130.423 20.1633V20.1851C131.056 20.359 131.453 20.815 131.453 21.4878C131.453 22.2906 130.863 23.1047 129.479 23.1047H126.443ZM128.9 19.8921C129.297 19.8921 129.608 19.7296 129.608 19.317C129.608 18.9046 129.297 18.7741 128.9 18.7741H128.009V19.8921L128.9 19.8921ZM129.19 21.9541C129.63 21.9541 129.78 21.7264 129.78 21.477C129.78 21.2161 129.63 20.9558 129.19 20.9558H128.009V21.9541H129.19Z" fill="#DA2032"/>
<path d="M132.238 20.3481C132.238 18.6768 133.3 17.4937 134.92 17.4937C135.596 17.4937 136.358 17.6348 136.98 18.2534L135.982 19.2518C135.736 18.9915 135.393 18.8936 135.017 18.8936C134.309 18.8936 133.88 19.5014 133.88 20.3481C133.88 21.1949 134.309 21.8242 135.017 21.8242C135.393 21.8242 135.736 21.7264 135.982 21.4769L136.98 22.4753C136.358 23.0939 135.596 23.2352 134.92 23.2352C133.3 23.2352 132.238 22.052 132.238 20.3481Z" fill="#DA2032"/>
<path d="M137.928 17.624H139.494V19.697H139.73L141.007 17.624H142.798L141.06 20.3372L143.013 23.1047H141.103L139.666 21.021H139.494V23.1047H137.928V17.624Z" fill="#DA2032"/>
<path d="M143.756 17.624H145.322V20.7171H145.343L147.414 17.624H148.766V23.1047H147.2V20.0117H147.178L145.118 23.1047H143.756V17.624Z" fill="#DA2032"/>
<path d="M150.27 17.6239H151.836V20.717H151.857L153.928 17.6239H155.279V23.1047H153.713V20.0116H153.692L151.632 23.1047H150.27V17.6239ZM150.924 15.9635L151.739 15.1494C151.889 15.4423 152.19 15.844 152.694 15.844C153.338 15.844 153.563 15.4423 153.724 15.1494L154.497 15.9635C154.293 16.3864 153.692 17.0484 152.726 17.0484C151.772 17.0484 151.171 16.3864 150.924 15.9635Z" fill="#DA2032"/>
<path d="M92.3342 29.2366H93.3963L94.7271 32.6226H94.748L96.0895 29.2366H97.1194L98.5034 34.7173H96.9368L96.3469 31.9824H96.3254L95.2096 34.7173H94.1903L93.1282 31.9715H93.1067L92.4954 34.7173H90.9824L92.3342 29.2366Z" fill="#DA2032"/>
<path d="M99.0312 31.9715C99.0312 30.3002 100.136 29.1062 101.702 29.1062C103.183 29.1062 104.32 30.0181 104.32 32.1128V32.4922H100.726C100.844 33.1977 101.456 33.4259 101.96 33.4259C102.454 33.4259 102.893 33.1867 103.086 32.9047L104.095 33.9248C103.44 34.5651 102.689 34.8477 101.788 34.8477C100.372 34.8477 99.0312 33.8276 99.0312 31.9715ZM102.679 31.3529C102.615 30.7448 102.292 30.3654 101.692 30.3654C101.145 30.3654 100.801 30.7883 100.705 31.3529H102.679Z" fill="#DA2032"/>
<path d="M106.404 30.6149H104.816V29.2366H109.687L109.183 30.6149H107.97V34.7173H106.404V30.6149Z" fill="#DA2032"/>
<path d="M112.017 36.725H110.451V29.2366H112.017V29.779H112.039C112.275 29.486 112.736 29.1062 113.562 29.1062C114.979 29.1062 116.041 30.2893 116.041 31.9607C116.041 33.6427 114.979 34.8477 113.562 34.8477C112.736 34.8477 112.275 34.4678 112.039 34.1748H112.017V36.725ZM113.187 33.415C113.906 33.415 114.41 32.7965 114.41 31.9497C114.41 31.1464 113.906 30.5171 113.187 30.5171C112.468 30.5171 111.953 31.1464 111.953 31.9497C111.953 32.7965 112.468 33.415 113.187 33.415Z" fill="#DA2032"/>
<path d="M116.838 31.9607C116.838 30.2893 117.975 29.1062 119.617 29.1062C121.236 29.1062 122.385 30.2893 122.385 31.9607C122.385 33.6645 121.236 34.8477 119.617 34.8477C117.975 34.8477 116.838 33.6645 116.838 31.9607ZM120.754 31.9607C120.754 31.1139 120.325 30.5171 119.617 30.5171C118.909 30.5171 118.468 31.1139 118.468 31.9607C118.468 32.7856 118.909 33.4367 119.617 33.4367C120.325 33.4367 120.754 32.7856 120.754 31.9607Z" fill="#DA2032"/>
<path d="M123.535 29.2366H128.256V34.7173H126.689V30.6149H125.101V34.7173H123.535V29.2366Z" fill="#DA2032"/>
<path d="M129.385 31.9607C129.385 30.2893 130.522 29.1062 132.163 29.1062C133.783 29.1062 134.931 30.2893 134.931 31.9607C134.931 33.6645 133.783 34.8477 132.163 34.8477C130.522 34.8477 129.385 33.6645 129.385 31.9607ZM133.301 31.9607C133.301 31.1139 132.872 30.5171 132.163 30.5171C131.455 30.5171 131.015 31.1139 131.015 31.9607C131.015 32.7856 131.455 33.4367 132.163 33.4367C132.872 33.4367 133.301 32.7856 133.301 31.9607Z" fill="#DA2032"/>
<path d="M135.566 34.7173V33.5341C135.62 33.5558 135.738 33.5885 135.835 33.5885C136.242 33.5885 136.339 33.3172 136.425 32.3514C136.575 30.3759 136.575 29.2366 136.575 29.2366H140.931V34.7173H139.386V30.6149H137.949C137.927 31.0274 137.938 31.5373 137.884 32.2318C137.766 33.9248 137.509 34.826 136.168 34.826C135.857 34.826 135.566 34.7173 135.566 34.7173Z" fill="#DA2032"/>
<path d="M142.445 29.2366H144.011V32.3297H144.033L146.103 29.2366H147.455V34.7173H145.889V31.6242H145.868L143.808 34.7173H142.445V29.2366Z" fill="#DA2032"/>
<path d="M150.002 30.6149H148.414V29.2366H153.284L152.78 30.6149H151.568V34.7173H150.002V30.6149Z" fill="#DA2032"/>
<path d="M153.512 31.9715C153.512 30.3002 154.617 29.1062 156.183 29.1062C157.664 29.1062 158.801 30.0181 158.801 32.1128V32.4922H155.207C155.325 33.1977 155.936 33.4259 156.44 33.4259C156.934 33.4259 157.374 33.1867 157.567 32.9047L158.575 33.9248C157.921 34.5651 157.17 34.8477 156.269 34.8477C154.853 34.8477 153.512 33.8276 153.512 31.9715ZM157.159 31.3529C157.095 30.7448 156.773 30.3654 156.172 30.3654C155.625 30.3654 155.282 30.7883 155.185 31.3529H157.159Z" fill="#DA2032"/>
<path d="M159.93 29.2366H161.496V31.2552H163.266V29.2366H164.833V34.7173H163.266V32.6444H161.496V34.7173H159.93V29.2366Z" fill="#DA2032"/>
<path d="M63.0639 28.4971H62.1192L63.0388 25.833L65.679 30.2293L68.3193 25.833L69.2405 28.4971H68.2942V30.1078H74.6078V28.4971H73.3812L69.2005 17.8083L65.679 24.0517L62.1576 17.8083L57.977 28.4971H56.752V30.1078H63.0639V28.4971Z" fill="#DA2032"/>
<path d="M82.3578 25.5045C82.3578 16.1855 74.8907 8.63159 65.679 8.63159C56.4672 8.63159 49 16.1855 49 25.5045C49 30.1562 50.8689 34.3822 53.8708 37.4189C54.1264 37.6774 54.4636 37.8291 54.8436 37.8291C55.5915 37.8291 56.198 37.2138 56.198 36.459C56.198 36.0746 56.0361 35.723 55.784 35.4662C53.2761 32.931 51.7106 29.3927 51.7106 25.5045C51.7106 17.7144 57.9766 11.3737 65.679 11.3737C73.3813 11.3737 79.6473 17.7144 79.6473 25.5045C79.6473 29.4014 78.08 32.9345 75.5501 35.4921L63.7538 47.4254L65.6755 49.3695L77.4803 37.4293C80.4941 34.3753 82.3578 30.1614 82.3578 25.5045Z" fill="#DA2032"/>
</svg>
