<svg width="24" height="16" viewBox="0 0 24 16" fill="none" xmlns="http://www.w3.org/2000/svg">
  <rect width="24" height="16" rx="2" fill="#D8DDE3"/>
  <path d="M5.20417 12C5.08108 12 4.95799 11.9557 4.87278 11.8758L4.48458 11.5122C4.25734 11.2994 4.21947 10.9624 4.3899 10.7141C4.72129 10.2352 5.23257 9.43699 5.59237 8.76298C5.51662 8.74525 5.44088 8.71864 5.3746 8.68317L5.02427 8.89601C4.73075 9.08225 4.36149 9.13546 4.01116 9.04678C3.66084 8.95809 3.37679 8.74525 3.21583 8.44372L3.0738 8.18653C2.96018 7.98255 2.97912 7.73423 3.12115 7.53913L4.6266 5.45502L4.39936 4.87857C4.30468 4.64799 4.36149 4.39967 4.54139 4.21343C4.71182 4.03606 4.97693 3.96511 5.2231 4.03606L6.7759 4.44401C7.03155 4.50609 7.17357 4.75441 7.10729 4.99386C7.04102 5.23331 6.7759 5.36634 6.52026 5.30426L5.46928 5.02933L5.60184 5.36634C5.65865 5.49936 5.63971 5.65013 5.55449 5.77429L4.0017 7.92934L4.06797 8.0535C4.10585 8.12445 4.18159 8.17766 4.25734 8.1954C4.34255 8.21314 4.43724 8.1954 4.50352 8.15992L5.10949 7.78745C5.27991 7.68102 5.50715 7.68989 5.66811 7.81405C5.75333 7.885 5.84801 7.92047 5.95216 7.92047C6.02791 7.92047 6.09419 7.92047 6.1794 7.885C6.34983 7.83179 6.54866 7.87613 6.67175 8.00029C6.79484 8.12445 6.84218 8.30182 6.7759 8.46145C6.47292 9.22415 5.73439 10.3771 5.30832 11.0156L5.41247 11.1131H7.04102C7.30613 11.1131 7.51443 11.3083 7.51443 11.5566C7.51443 11.8049 7.30613 12 7.04102 12H5.20417Z" fill="white"/>
  <path d="M12.2675 12H10.4401C10.317 12 10.194 11.9557 10.1087 11.8758L9.72054 11.5122C9.4933 11.2994 9.45543 10.9624 9.62586 10.7141C9.95725 10.2352 10.4685 9.43699 10.8283 8.76298C10.7526 8.74525 10.6768 8.71864 10.6106 8.68317L10.2602 8.89601C9.96672 9.08225 9.59745 9.13546 9.24713 9.04678C8.8968 8.95809 8.61275 8.74525 8.45179 8.44372L8.30977 8.18653C8.19615 7.98255 8.21508 7.73423 8.35711 7.53913L9.86256 5.44615L9.63533 4.8697C9.54064 4.63912 9.59745 4.3908 9.77735 4.21343C9.95725 4.03606 10.2224 3.96511 10.4685 4.02719L12.0213 4.43514C12.277 4.49722 12.419 4.74554 12.3527 4.98499C12.2864 5.22444 12.0213 5.35747 11.7657 5.29539L10.7147 5.02046L10.8473 5.35747C10.9041 5.4905 10.8851 5.64126 10.7999 5.76542L9.24713 7.92047L9.3134 8.04463C9.35128 8.11558 9.42702 8.16879 9.50277 8.18653C9.58798 8.20427 9.68267 8.18653 9.74895 8.15106L10.3549 7.77858C10.5253 7.67215 10.7526 7.68102 10.9135 7.80518C10.9988 7.87613 11.0934 7.91161 11.1976 7.91161C11.2639 7.91161 11.3396 7.91161 11.4248 7.87613C11.5953 7.82292 11.7941 7.86726 11.9172 7.99142C12.0403 8.11558 12.0876 8.29295 12.0213 8.45259C11.7183 9.21528 10.9798 10.3682 10.5537 11.0067L10.6579 11.1043H12.2864C12.5516 11.1043 12.7599 11.2994 12.7599 11.5477C12.7599 11.796 12.5516 11.9911 12.2864 11.9911L12.2675 12Z" fill="white"/>
  <path d="M20.0599 12H15.6761C15.553 12 15.4299 11.9557 15.3447 11.8758L14.9565 11.5122C14.7293 11.2994 14.6914 10.9624 14.8618 10.7052C15.1932 10.2263 15.7045 9.42812 16.0643 8.76298C15.9885 8.74525 15.9128 8.71864 15.8465 8.68317L15.4962 8.89601C15.2027 9.08225 14.8334 9.13546 14.4831 9.04678C14.1328 8.95809 13.8487 8.74525 13.6878 8.44372L13.5457 8.18653C13.4321 7.98255 13.451 7.73423 13.5931 7.53913L15.0985 5.44615L14.8713 4.8697C14.7766 4.63912 14.8334 4.3908 15.0133 4.20456C15.1837 4.02719 15.4489 3.95624 15.695 4.02719L17.1816 4.4174C17.4277 4.4174 18.0148 4.46175 18.6586 4.7278C19.4255 5.05594 20.4102 5.77429 20.789 7.35289C21.2718 9.38378 20.8174 10.9446 20.5049 11.6985C20.4386 11.867 20.2587 11.9823 20.0599 11.9823V12ZM15.8749 11.1131H19.7285C19.9842 10.3859 20.2398 9.14433 19.8611 7.56573C19.5676 6.34187 18.8385 5.79203 18.2704 5.55258C17.7212 5.32199 17.2289 5.32199 17.1247 5.31313C17.0774 5.31313 17.0301 5.31313 16.9922 5.29539L15.9412 5.02046L16.0738 5.35747C16.1306 5.4905 16.1116 5.64126 16.0264 5.76542L14.4736 7.92047L14.5399 8.04463C14.5778 8.11558 14.6535 8.16879 14.7293 8.18653C14.8145 8.20427 14.9092 8.18653 14.9754 8.15106L15.5814 7.77858C15.7518 7.67215 15.9791 7.68102 16.14 7.80518C16.2253 7.87613 16.3199 7.91161 16.4241 7.91161C16.4904 7.91161 16.5661 7.91161 16.6513 7.87613C16.8218 7.82292 17.0206 7.86726 17.1437 7.99142C17.2668 8.11558 17.3141 8.29295 17.2478 8.45259C16.9354 9.21528 16.2063 10.3682 15.7802 11.0067L15.8844 11.1043L15.8749 11.1131Z" fill="white"/>
</svg>
