<svg width="24" height="16" viewBox="0 0 24 16" fill="none" xmlns="http://www.w3.org/2000/svg">
<path d="M6.56082 2.00073H11.0991C11.7327 2.00073 12.1267 2.5171 11.9789 3.15271L9.86598 12.2243C9.71687 12.8577 9.08258 13.3745 8.44863 13.3745H3.91075C3.27812 13.3745 2.88322 12.8577 3.031 12.2243L5.1448 3.15271C5.29259 2.5171 5.92654 2.00073 6.56082 2.00073Z" fill="#E21836"/>
<path d="M10.7207 2H15.9397C16.5731 2 16.2874 2.51636 16.1384 3.15198L14.0259 12.2235C13.8776 12.8569 13.9239 13.3737 13.2891 13.3737H8.07018C7.43545 13.3737 7.04264 12.8569 7.19176 12.2235L9.30423 3.15198C9.45423 2.51636 10.0869 2 10.7207 2Z" fill="#00447C"/>
<path d="M15.7342 2H20.2725C20.9069 2 21.3009 2.51636 21.1519 3.15198L19.0393 12.2235C18.8902 12.8569 18.2555 13.3737 17.6212 13.3737H13.085C12.4502 13.3737 12.0565 12.8569 12.2052 12.2235L14.3181 3.15198C14.4659 2.51636 15.0994 2 15.7342 2Z" fill="#007B84"/>
<path d="M7.74614 4.90713C7.27944 4.91189 7.14161 4.90713 7.09759 4.89673C7.08066 4.97715 6.76573 6.4299 6.76485 6.43111C6.69704 6.72503 6.6477 6.93454 6.48012 7.06982C6.38499 7.14847 6.27393 7.18641 6.14517 7.18641C5.9382 7.18641 5.81763 7.08365 5.79738 6.88874L5.79351 6.82182C5.79351 6.82182 5.85656 6.42813 5.85656 6.42592C5.85656 6.42592 6.18709 5.10204 6.24627 4.92704C6.24937 4.91709 6.25025 4.91189 6.25103 4.90713C5.60767 4.91277 5.49363 4.90713 5.48577 4.89673C5.48146 4.911 5.46553 4.99308 5.46553 4.99308L5.12803 6.48521L5.09905 6.61175L5.04297 7.02569C5.04297 7.14847 5.06708 7.24869 5.11509 7.33343C5.26885 7.60212 5.70745 7.64238 5.95557 7.64238C6.27525 7.64238 6.57514 7.57446 6.77779 7.45046C7.12956 7.24261 7.22159 6.91772 7.30367 6.62901L7.34172 6.48089C7.34172 6.48089 7.6822 5.10591 7.74006 4.92704C7.74227 4.91709 7.74316 4.91189 7.74614 4.90713ZM8.90461 6.01634C8.82253 6.01634 8.67253 6.03625 8.5378 6.10229C8.48891 6.1274 8.44267 6.15638 8.39389 6.18526L8.43791 6.0263L8.4138 5.99953C8.12807 6.05738 8.06413 6.06512 7.8002 6.10229L7.77808 6.117C7.74744 6.37109 7.72022 6.56213 7.60662 7.06157C7.56337 7.24564 7.51846 7.43148 7.47343 7.6151L7.4856 7.63844C7.75606 7.62417 7.83814 7.62417 8.07321 7.62805L8.09223 7.60736C8.1221 7.45438 8.12597 7.41854 8.19212 7.10869C8.2232 6.96179 8.28803 6.63901 8.31999 6.52408C8.37873 6.49687 8.4367 6.4701 8.49201 6.4701C8.62375 6.4701 8.60771 6.58503 8.60262 6.63083C8.59698 6.7077 8.54897 6.95881 8.49975 7.1744L8.4669 7.31356C8.444 7.41632 8.41889 7.51621 8.39599 7.61809L8.40594 7.63844C8.67253 7.62417 8.75384 7.62417 8.98149 7.62805L9.00826 7.60736C9.04941 7.36843 9.06147 7.30449 9.13447 6.95659L9.1712 6.79675C9.24255 6.48392 9.27839 6.3253 9.22441 6.1961C9.16733 6.0513 9.03038 6.01634 8.90461 6.01634ZM10.1988 6.34387C10.0571 6.37108 9.96668 6.38922 9.87685 6.40095C9.78781 6.41522 9.70097 6.42816 9.56403 6.44719L9.55319 6.45703L9.54323 6.46489C9.52896 6.56688 9.51901 6.65504 9.50009 6.75869C9.48405 6.86588 9.45938 6.98767 9.41923 7.16266C9.38814 7.29662 9.3721 7.3433 9.35441 7.39043C9.33715 7.43755 9.31812 7.48335 9.28317 7.61509L9.29135 7.62726L9.29821 7.63843C9.4262 7.63235 9.50993 7.62804 9.596 7.62726C9.68195 7.62416 9.77099 7.62726 9.90882 7.62804L9.92088 7.61819L9.93382 7.60735C9.95373 7.48855 9.95672 7.45658 9.96889 7.39861C9.98095 7.33645 10.0017 7.25039 10.0527 7.02052C10.0769 6.91256 10.1037 6.80493 10.1287 6.69475C10.1547 6.58502 10.1819 6.47694 10.2078 6.36898L10.204 6.35593L10.1988 6.34387ZM10.2018 5.90226C10.073 5.82627 9.84702 5.85038 9.69492 5.95536C9.54326 6.05823 9.52601 6.20425 9.65433 6.28124C9.78087 6.35513 10.0077 6.33312 10.1585 6.22726C10.3098 6.12217 10.3288 5.97748 10.2018 5.90226ZM10.9805 7.66225C11.241 7.66225 11.508 7.59046 11.709 7.37741C11.8636 7.20462 11.9345 6.94755 11.9591 6.84168C12.0391 6.4908 11.9768 6.32698 11.8986 6.2272C11.7798 6.0751 11.5698 6.02632 11.352 6.02632C11.2211 6.02632 10.9091 6.03926 10.6654 6.26393C10.4904 6.42598 10.4096 6.64589 10.3608 6.85673C10.3116 7.07155 10.2549 7.45827 10.6106 7.60218C10.7203 7.64931 10.8785 7.66225 10.9805 7.66225ZM10.9601 6.87277C11.0202 6.60706 11.0911 6.38406 11.2721 6.38406C11.4139 6.38406 11.4242 6.54999 11.3611 6.81657C11.3498 6.87576 11.2981 7.09577 11.228 7.18947C11.1791 7.2586 11.1213 7.30053 11.0573 7.30053C11.0383 7.30053 10.9252 7.30053 10.9234 7.1325C10.9225 7.04954 10.9394 6.9648 10.9601 6.87277ZM12.6103 7.62808L12.6307 7.60739C12.6595 7.45441 12.6643 7.41846 12.7282 7.10873C12.7602 6.96183 12.8264 6.63904 12.8574 6.52411C12.9163 6.49679 12.9733 6.47002 13.0303 6.47002C13.1612 6.47002 13.1453 6.58495 13.1401 6.63075C13.1353 6.70774 13.0873 6.95873 13.0372 7.17432L13.0061 7.31348C12.9823 7.41636 12.9564 7.51613 12.9335 7.61812L12.9435 7.63848C13.211 7.62421 13.2892 7.62421 13.5182 7.62808L13.5458 7.60739C13.586 7.36835 13.5968 7.30441 13.672 6.95663L13.7079 6.79667C13.7795 6.48385 13.8158 6.32533 13.7627 6.19613C13.704 6.05133 13.5662 6.01637 13.4422 6.01637C13.36 6.01637 13.2092 6.03618 13.0752 6.10232C13.0273 6.12744 12.9793 6.15631 12.9322 6.18529L12.9733 6.02633L12.9512 5.99945C12.6656 6.05741 12.6004 6.06516 12.3368 6.10232L12.3165 6.11704C12.2845 6.37113 12.2585 6.56205 12.1449 7.0616C12.1017 7.24567 12.0568 7.43151 12.0119 7.61514L12.0239 7.63848C12.2948 7.62421 12.3757 7.62421 12.6103 7.62808ZM14.5755 7.63842C14.5923 7.55634 14.6922 7.06985 14.6931 7.06985C14.6931 7.06985 14.7782 6.71288 14.7834 6.69994C14.7834 6.69994 14.8101 6.66277 14.8369 6.64806H14.8763C15.2478 6.64806 15.6674 6.64806 15.9963 6.40614C16.2201 6.24021 16.373 5.99519 16.4413 5.69741C16.459 5.6244 16.472 5.53756 16.472 5.45073C16.472 5.33668 16.4491 5.22385 16.383 5.13569C16.2153 4.90107 15.8813 4.89675 15.4958 4.89498C15.4946 4.89498 15.3058 4.89675 15.3058 4.89675C14.8123 4.90284 14.6144 4.90107 14.5331 4.89111C14.5263 4.92706 14.5133 4.991 14.5133 4.991C14.5133 4.991 14.3366 5.81024 14.3366 5.81157C14.3366 5.81157 13.9136 7.55336 13.8937 7.63544C14.3245 7.63024 14.5012 7.63024 14.5755 7.63842ZM14.903 6.18313C14.903 6.18313 15.091 5.36555 15.0901 5.36865L15.0962 5.32673L15.0988 5.29476L15.1739 5.3025C15.1739 5.3025 15.5615 5.3358 15.5706 5.33668C15.7236 5.39586 15.7867 5.54841 15.7426 5.74752C15.7025 5.92948 15.5844 6.08247 15.4328 6.15636C15.3079 6.21897 15.1549 6.22417 14.9973 6.22417H14.8953L14.903 6.18313ZM16.0732 6.88791C16.0235 7.09963 15.9665 7.48636 16.3203 7.62419C16.4332 7.67219 16.5343 7.68646 16.637 7.68126C16.7455 7.6754 16.8461 7.62098 16.9392 7.54266C16.9308 7.57485 16.9224 7.60704 16.914 7.63934L16.93 7.66003C17.1846 7.6493 17.2636 7.6493 17.5393 7.6514L17.5643 7.63237C17.6046 7.39565 17.6425 7.16578 17.7472 6.71291C17.7982 6.49599 17.8491 6.28117 17.9014 6.06514L17.8932 6.04135C17.6085 6.09412 17.5324 6.1054 17.2585 6.14423L17.2377 6.16115C17.2349 6.18316 17.232 6.20429 17.2294 6.22542C17.1868 6.15662 17.1251 6.09788 17.0298 6.06126C16.908 6.01337 16.622 6.07509 16.3761 6.29898C16.2033 6.45882 16.1203 6.67785 16.0732 6.88791ZM16.6712 6.90085C16.7322 6.63991 16.8022 6.41911 16.9836 6.41911C17.0983 6.41911 17.1587 6.52497 17.1464 6.7055C17.1367 6.75052 17.1262 6.79798 17.1137 6.85163C17.0955 6.92917 17.0758 7.00605 17.0567 7.08304C17.0372 7.1357 17.0146 7.18536 16.9897 7.21844C16.943 7.28459 16.8319 7.32563 16.768 7.32563C16.7499 7.32563 16.6379 7.32563 16.634 7.16059C16.6332 7.0784 16.6501 6.99377 16.6712 6.90085ZM19.794 6.03924L19.772 6.01413C19.4902 6.07121 19.4393 6.08028 19.1804 6.11523L19.1614 6.13426C19.1605 6.13736 19.1597 6.14211 19.1584 6.14643L19.1575 6.14211C18.9648 6.58669 18.9705 6.49078 18.8136 6.84078C18.8127 6.82485 18.8127 6.81489 18.8118 6.79797L18.7726 6.03924L18.7479 6.01413C18.4528 6.07121 18.4458 6.08028 18.1732 6.11523L18.152 6.13426C18.149 6.14333 18.149 6.15329 18.1472 6.16413L18.149 6.168C18.1831 6.34211 18.1749 6.30328 18.2091 6.57806C18.225 6.7129 18.2462 6.84852 18.2622 6.9817C18.289 7.2046 18.3041 7.31433 18.3369 7.65448C18.1529 7.95824 18.1093 8.07317 17.9321 8.33976L17.9333 8.34242L17.8085 8.53976C17.7943 8.56056 17.7813 8.57483 17.7632 8.58091C17.7433 8.59075 17.7174 8.59252 17.6814 8.59252H17.6123L17.5095 8.93433L17.8621 8.94042C18.069 8.93953 18.1991 8.84274 18.2691 8.71266L18.4908 8.33279H18.4873L18.5106 8.30602C18.6597 7.98501 19.794 6.03924 19.794 6.03924ZM16.0732 10.5284H15.9236L16.4772 8.69756H16.6608L16.7191 8.50895L16.7247 8.71868C16.7179 8.84833 16.8199 8.96326 17.0878 8.94423H17.3976L17.5043 8.5917H17.3877C17.3206 8.5917 17.2895 8.57477 17.2934 8.53849L17.2878 8.32511H16.714V8.32621C16.5285 8.33008 15.9745 8.34402 15.8624 8.37389C15.7266 8.40884 15.5836 8.51172 15.5836 8.51172L15.6398 8.32289H15.1031L14.9912 8.69756L14.4303 10.5564H14.3214L14.2147 10.9064H15.2837L15.2479 11.0231H15.7746L15.8096 10.9064H15.9574L16.0732 10.5284ZM15.6346 9.06956C15.5486 9.09335 15.3887 9.16547 15.3887 9.16547L15.5309 8.69756H15.9574L15.8545 9.03848C15.8545 9.03848 15.7228 9.04622 15.6346 9.06956ZM15.6428 9.73803C15.6428 9.73803 15.5088 9.75484 15.4207 9.77476C15.3338 9.80108 15.171 9.88404 15.171 9.88404L15.3179 9.3971H15.7465L15.6428 9.73803ZM15.4038 10.5327H14.9761L15.1001 10.1218H15.5265L15.4038 10.5327ZM16.434 9.3971H17.0506L16.962 9.68405H16.3372L16.2434 9.99776H16.7901L16.3761 10.5806C16.3471 10.6234 16.3212 10.6386 16.2923 10.6506C16.2633 10.6653 16.2252 10.6826 16.1812 10.6826H16.0296L15.9254 11.0262H16.322C16.5282 11.0262 16.65 10.9324 16.74 10.8093L17.0238 10.4208L17.0847 10.8152C17.0977 10.8891 17.1508 10.9324 17.1867 10.9492C17.2264 10.9691 17.2675 11.0033 17.3255 11.0084C17.3876 11.011 17.4325 11.0131 17.4624 11.0131H17.6573L17.7743 10.6286H17.6975C17.6533 10.6286 17.5773 10.6212 17.5644 10.6074C17.5514 10.5906 17.5514 10.5647 17.5445 10.5253L17.4826 10.1299H17.2294L17.3405 9.99776H17.9641L18.06 9.68405H17.4826L17.5726 9.3971H18.1481L18.2549 9.04324H16.539L16.434 9.3971ZM11.2263 10.6126L11.3702 10.1339H11.9617L12.0697 9.77777H11.4777L11.5681 9.48309H12.1466L12.2538 9.13829H10.8063L10.7013 9.48309H11.0302L10.9424 9.77777H10.6127L10.5034 10.1399H10.8322L10.6403 10.7733C10.6145 10.8572 10.6525 10.8892 10.6766 10.9281C10.7013 10.966 10.7263 10.9911 10.7825 11.0054C10.8404 11.0184 10.8802 11.0261 10.9341 11.0261H11.6009L11.7198 10.6316L11.4242 10.6722C11.3671 10.6722 11.209 10.6654 11.2263 10.6126ZM11.2941 8.32074L11.1442 8.59164C11.1122 8.65082 11.0833 8.68755 11.0573 8.70447C11.0344 8.71874 10.989 8.72471 10.9233 8.72471H10.8451L10.7406 9.07128H11.0003C11.1252 9.07128 11.2211 9.02548 11.2669 9.00259C11.3161 8.97626 11.3291 8.9913 11.3671 8.95458L11.4549 8.87858H12.2659L12.3735 8.51775H11.7798L11.8835 8.32074H11.2941ZM12.4915 10.6196C12.4777 10.5997 12.4876 10.5646 12.5088 10.4916L12.7304 9.75785H13.519C13.634 9.75619 13.7169 9.75487 13.7709 9.75099C13.8289 9.74491 13.8919 9.72422 13.9606 9.68706C14.0315 9.64812 14.0678 9.60708 14.0984 9.55996C14.1326 9.51294 14.1875 9.41007 14.2346 9.25144L14.5133 8.32292L13.6949 8.32767C13.6949 8.32767 13.4429 8.36484 13.332 8.40588C13.22 8.45167 13.0601 8.57955 13.0601 8.57955L13.134 8.32502H12.6284L11.9207 10.6722C11.8956 10.7634 11.8788 10.8295 11.8749 10.8692C11.8736 10.912 11.9289 10.9544 11.9647 10.9864C12.0071 11.0183 12.0697 11.0131 12.1298 11.0183C12.1929 11.0231 12.2828 11.0261 12.4068 11.0261H12.7953L12.9145 10.6234L12.5667 10.6563C12.5296 10.6563 12.5027 10.6364 12.4915 10.6196ZM12.8735 9.26228H13.7018L13.6491 9.42733C13.6417 9.4312 13.624 9.41914 13.5397 9.4291H12.8225L12.8735 9.26228ZM13.0394 8.70875H13.8747L13.8146 8.90753C13.8146 8.90753 13.4209 8.90366 13.3579 8.91527C13.0804 8.96328 12.9184 9.11151 12.9184 9.11151L13.0394 8.70875ZM13.6677 9.98001C13.6608 10.0047 13.65 10.0197 13.6348 10.031C13.618 10.0418 13.5908 10.0457 13.5502 10.0457H13.4322L13.4391 9.84472H12.9482L12.9283 10.8273C12.9275 10.8982 12.9344 10.9393 12.9863 10.9721C13.0381 11.0132 13.198 11.0184 13.4131 11.0184H13.7208L13.8318 10.6506L13.564 10.6653L13.475 10.6705C13.4628 10.6653 13.4512 10.6605 13.4382 10.6476C13.427 10.6364 13.4079 10.6433 13.411 10.5724L13.4131 10.3205L13.694 10.3089C13.8456 10.3089 13.9105 10.2595 13.9658 10.2125C14.0185 10.1675 14.0358 10.1157 14.0557 10.0457L14.1028 9.82271H13.7169L13.6677 9.98001Z" fill="white"/>
</svg>
