<svg width="24" height="16" viewBox="0 0 24 16" fill="none" xmlns="http://www.w3.org/2000/svg">
  <rect width="24" height="16" rx="2" fill="#D6E0EE"/>
  <!-- logo inset: 30.81% top/bottom, 8.33% left/right = ~4.9px v, ~2px h -->
  <g transform="translate(2, 4.9) scale(0.9999, 0.9999)">
    <svg width="20" height="6.14" viewBox="0 0 19.9997 6.14035" fill="none" xmlns="http://www.w3.org/2000/svg">
      <path d="M18.6547 0.087716H17.3974C17.0173 0.087716 16.7249 0.204675 16.5494 0.584792L14.1518 6.05263H15.8477C15.8477 6.05263 16.1401 5.32163 16.1986 5.1462C16.374 5.1462 18.0407 5.1462 18.2746 5.1462C18.3331 5.35087 18.4793 6.02339 18.4793 6.02339H19.9997L18.6547 0.087716ZM16.6664 3.91813C16.8126 3.56725 17.3097 2.25146 17.3097 2.25146C17.3097 2.2807 17.4559 1.90058 17.5144 1.6959L17.6313 2.22222C17.6313 2.22222 17.953 3.65497 18.0114 3.94737H16.6664V3.91813Z" fill="#3362AB"/>
      <path d="M14.269 4.09357C14.269 5.32164 13.1579 6.14035 11.4327 6.14035C10.7018 6.14035 10 5.99415 9.61988 5.81871L9.8538 4.47368L10.0585 4.5614C10.5848 4.79532 10.9357 4.88304 11.5789 4.88304C12.0468 4.88304 12.5439 4.7076 12.5439 4.29825C12.5439 4.03509 12.3392 3.85965 11.6959 3.56725C11.0819 3.27485 10.2632 2.80702 10.2632 1.95906C10.2632 0.789474 11.4035 0 13.0117 0C13.6257 0 14.152 0.116959 14.4737 0.263158L14.2398 1.54971L14.1228 1.43275C13.8304 1.31579 13.4503 1.19883 12.8947 1.19883C12.2807 1.22807 11.9883 1.49123 11.9883 1.72515C11.9883 1.9883 12.3392 2.19298 12.8947 2.45614C13.8304 2.89474 14.269 3.39181 14.269 4.09357Z" fill="#3362AB"/>
      <path d="M0 0.146218L0.0292398 0.0292587H2.54386C2.89474 0.0292587 3.15789 0.146218 3.24561 0.526335L3.80117 3.15791C3.24561 1.75441 1.95906 0.614054 0 0.146218Z" fill="#F9B50B"/>
      <path d="M7.33918 0.0877191L4.79532 6.02339H3.07017L1.60819 1.05263C2.66082 1.72515 3.53801 2.77778 3.85965 3.50877L4.03509 4.12281L5.61403 0.0584793H7.33918V0.0877191Z" fill="#3362AB"/>
      <path d="M8.0117 0.0584793H9.61989L8.59649 6.02339H6.98831L8.0117 0.0584793Z" fill="#3362AB"/>
    </svg>
  </g>
</svg>
