<svg width="24" height="16" viewBox="0 0 24 16" fill="none" xmlns="http://www.w3.org/2000/svg">
<path d="M21.0672 5.49505C20.7393 5.18874 20.3035 5 19.8234 5H16.2208C16.2282 5.14279 16.2486 5.28198 16.2795 5.41706C16.2871 5.44706 16.2937 5.47739 16.3023 5.50705C16.3054 5.51922 16.3088 5.53122 16.3122 5.54322C16.6113 6.50966 17.4972 7.21058 18.5443 7.21058H21.6362C21.6551 7.10259 21.6667 6.99203 21.6667 6.87855C21.6667 6.33036 21.4349 5.83857 21.0672 5.49505Z" fill="url(#paint0_linear_1478_87904)"/>
<path d="M16.2986 7.53363V10.3327H17.9728V8.75668H19.6581C20.5384 8.75668 21.2893 8.24775 21.5794 7.53363H16.2986Z" fill="#00925A"/>
<path d="M13.3308 5.56352L12.1585 8.15172H12.0398V5.00007H10.3745V10.3333H11.7876C12.1589 10.3333 12.4961 10.1134 12.6517 9.77006L13.824 7.18185H13.9429V10.3333H15.608V5.00007H14.1949C13.8238 5.00007 13.4864 5.22 13.3308 5.56352Z" fill="#00925A"/>
<path d="M5.57716 5.70113L6.27086 8.15169H6.38979L7.08348 5.70113C7.20089 5.28596 7.57382 5.00004 7.99788 5.00004H9.66081V10.3333H7.99569V7.18199H7.87659L6.92503 10.3333H5.73561L4.78404 7.18199H4.66512V10.3333H3V5.00004H4.66293C5.08682 5.00004 5.45975 5.28596 5.57716 5.70113Z" fill="#00925A"/>
<defs>
<linearGradient id="paint0_linear_1478_87904" x1="21.6667" y1="7.66667" x2="3" y2="7.66668" gradientUnits="userSpaceOnUse">
<stop stop-color="#1F5BD7"/>
<stop offset="1" stop-color="#00AFFF"/>
</linearGradient>
</defs>
</svg>
