<svg width="27" height="18" viewBox="0 0 27 18" fill="none" xmlns="http://www.w3.org/2000/svg">
<rect width="27" height="18" fill="white"/>
<g id="ICONS">
<path d="M-803 -632C-803 -645.255 -792.255 -656 -779 -656H650C663.255 -656 674 -645.255 674 -632V409C674 422.255 663.255 433 650 433H-779C-792.255 433 -803 422.255 -803 409V-632Z" fill="#F1F1F1"/>
<g id="Labels/Bank Cards/MirPay">
<rect x="-26.5" y="-67.5" width="81" height="105" rx="4.5" fill="white"/>
<rect x="-26.5" y="-67.5" width="81" height="105" rx="4.5" stroke="#9747FF" stroke-dasharray="10 5"/>
<g id="Size=S">
<g id="icon" clip-path="url(#clip0_286_39190)">
<path id="Vector" d="M15.8008 10.6475H16.4533C16.8488 10.6475 17.1212 10.8517 17.1212 11.2006V11.2059C17.1212 11.5856 16.7948 11.782 16.4198 11.782H15.9345V12.4564H15.8008V10.6475ZM16.4276 11.6579C16.7614 11.6579 16.9875 11.4823 16.9875 11.2135V11.2085C16.9875 10.9216 16.7666 10.7715 16.443 10.7715H15.9345V11.6579H16.4276Z" fill="#006848"/>
<path id="Vector_2" d="M17.2852 12.074V12.069C17.2852 11.795 17.5189 11.64 17.8581 11.64C18.0403 11.64 18.1662 11.6633 18.2921 11.6968V11.64C18.2921 11.3738 18.1301 11.2366 17.8605 11.2366C17.7013 11.2366 17.5704 11.2808 17.4497 11.3428L17.4033 11.2315C17.5473 11.1645 17.6884 11.118 17.8683 11.118C18.0455 11.118 18.1868 11.1669 18.282 11.2625C18.3692 11.3505 18.4155 11.4719 18.4155 11.6348V12.4565H18.2921V12.237C18.2023 12.3633 18.0403 12.4876 17.7912 12.4876C17.5473 12.4876 17.2852 12.3481 17.2852 12.074ZM18.2947 11.963V11.8132C18.1842 11.7847 18.0379 11.7538 17.8502 11.7538C17.573 11.7538 17.4188 11.8778 17.4188 12.0612V12.0664C17.4188 12.2575 17.5985 12.3687 17.799 12.3687C18.066 12.3687 18.2947 12.2033 18.2947 11.963Z" fill="#006848"/>
<path id="Vector_3" d="M19.7377 11.1386H19.8764L19.3087 12.503C19.1932 12.7795 19.0597 12.8779 18.872 12.8779C18.7719 12.8779 18.7 12.8596 18.6127 12.8208L18.6564 12.7098C18.7257 12.7434 18.7823 12.7588 18.8797 12.7588C19.016 12.7588 19.1059 12.6789 19.2033 12.4488L18.5742 11.1386H18.7206L19.265 12.317L19.7377 11.1386Z" fill="#006848"/>
<path id="Vector_4" d="M23.1547 10.0447L23.1961 9.99928C22.3656 9.23318 21.2612 8.76135 20.0456 8.76135H10.3242L10.3275 8.82627C10.346 9.18277 10.3977 9.52956 10.4755 9.86571L10.4757 9.86644V9.86706C10.4943 9.93991 10.5108 10.0159 10.5331 10.0918L10.5919 10.0742L10.533 10.0905C10.5411 10.1206 10.5496 10.1509 10.5581 10.1811L10.5583 10.1818L10.5586 10.1821C11.3135 12.5924 13.5517 14.3402 16.1967 14.3402H24.6281L24.6372 14.2894C24.685 14.02 24.7147 13.7438 24.7147 13.4591C24.7148 12.0882 24.127 10.8579 23.1961 9.99928L23.1547 10.0447L23.1133 10.0903C24.0203 10.9267 24.5921 12.1241 24.5921 13.4591C24.5921 13.735 24.5635 14.0041 24.5166 14.2679L24.5769 14.2786V14.217H16.1967C13.6066 14.2173 11.4146 12.5053 10.6753 10.1453L10.6171 10.1636L10.676 10.1462C10.6672 10.1172 10.6591 10.0875 10.651 10.0579L10.6508 10.0573L10.6505 10.0566C10.6299 9.98666 10.6136 9.91236 10.5945 9.83648L10.535 9.85193L10.5947 9.83795C10.5184 9.50816 10.4681 9.16857 10.4499 8.82L10.3887 8.82314V8.88471H20.0456C21.2296 8.88471 22.3039 9.34369 23.1133 10.0903L23.1547 10.0447Z" fill="#006848"/>
<path id="Vector_5" d="M15.766 5.22154C14.9459 4.46545 13.8568 4 12.6568 4H3C3.01836 4.35232 3.06919 4.69556 3.14625 5.02879C3.16513 5.10289 3.18162 5.17802 3.2032 5.25108C3.2114 5.28093 3.21969 5.31088 3.2282 5.34041C3.97525 7.72569 6.19046 9.45547 8.80771 9.45547H17.1882C17.2355 9.18925 17.2647 8.91614 17.2647 8.63593C17.2647 7.28289 16.6848 6.06916 15.766 5.22154Z" fill="#006848"/>
<path id="Vector_6" d="M12.9408 6.68323H11.1367V7.62718H11.7087V7.09546H11.9501L12.2743 7.62718H12.9245L12.5426 7.051C12.726 6.98514 12.8716 6.85104 12.9408 6.68323Z" fill="white"/>
<path id="Vector_7" d="M12.7571 5.99549C12.645 5.89207 12.4962 5.82861 12.3323 5.82861H11.1016C11.1039 5.87662 11.111 5.92348 11.1215 5.96908C11.1239 5.97931 11.1264 5.98954 11.1293 5.99935C11.1304 6.00363 11.1315 6.0076 11.1326 6.01167C11.2348 6.33758 11.5375 6.57407 11.8952 6.57407H12.9514C12.9579 6.53764 12.9617 6.50018 12.9617 6.46209C12.9617 6.27716 12.8826 6.11143 12.7571 5.99549Z" fill="white"/>
<path id="Vector_8" d="M9.21123 6.06509L8.97431 6.89153H8.93345L8.69664 6.06509C8.6565 5.92515 8.52912 5.82861 8.38431 5.82861H7.81641V7.62728H8.38525V6.56447H8.4257L8.75078 7.62728H9.15709L9.48217 6.56447H9.52283V7.62728H10.0916V5.82861H9.52356C9.37854 5.82861 9.25116 5.92515 9.21123 6.06509Z" fill="white"/>
<path id="Vector_9" d="M10.9028 5.82861H10.334V7.62707H10.9028V5.82861Z" fill="white"/>
</g>
</g>
</g>
</g>
<defs>
<clipPath id="clip0_286_39190">
<rect width="21.7143" height="10.3401" fill="white" transform="translate(3 4)"/>
</clipPath>
</defs>
</svg>
