<svg width="26" height="16" viewBox="0 0 26 16" fill="none" xmlns="http://www.w3.org/2000/svg">
<path d="M0 2C0 0.895431 0.895431 0 2 0H24C25.1046 0 26 0.895431 26 2V14C26 15.1046 25.1046 16 24 16H2C0.89543 16 0 15.1046 0 14V2Z" fill="#FDECD1"/>
<path d="M15.2583 3.35242L10.0938 3.37018L10.2502 12.8251L15.4148 12.8074L15.2583 3.35242Z" fill="#FF5F00"/>
<path d="M10.4327 8.11672C10.4008 6.19366 11.2622 4.48495 12.6116 3.37659C11.5931 2.57737 10.3162 2.09677 8.93207 2.10151C5.65295 2.11274 3.04474 4.81411 3.10004 8.14183C3.15534 11.4696 5.85303 14.1527 9.13215 14.1415C10.5163 14.1368 11.777 13.6475 12.7689 12.8414C11.3831 11.7591 10.4647 10.0398 10.4327 8.11672Z" fill="#EB001B"/>
<path d="M22.407 8.03568C22.4623 11.3634 19.8541 14.0648 16.575 14.076C15.1908 14.0807 13.914 13.6001 12.8955 12.8009C14.2613 11.6925 15.1063 9.98385 15.0743 8.06079C15.0424 6.13774 14.1242 4.43512 12.7382 3.33614C13.73 2.53003 14.9908 2.04073 16.3749 2.03599C19.654 2.02476 22.352 4.72468 22.407 8.03568Z" fill="#F79E1B"/>
</svg>
