<svg width="24" height="16" viewBox="0 0 24 16" fill="none" xmlns="http://www.w3.org/2000/svg">
<rect width="24" height="16" fill="white"/>
<g id="ICONS">
<path d="M-482 -441C-482 -454.255 -471.255 -465 -458 -465H971C984.255 -465 995 -454.255 995 -441V600C995 613.255 984.255 624 971 624H-458C-471.255 624 -482 613.255 -482 600V-441Z" fill="#F1F1F1"/>
<g id="BankCards/SBP">
<rect x="-9.5" y="-113.5" width="87" height="139" rx="4.5" fill="white"/>
<rect x="-9.5" y="-113.5" width="87" height="139" rx="4.5" stroke="#9747FF" stroke-dasharray="10 5"/>
<g id="Size=S, QR=Off">
<path d="M0 2C0 0.895431 0.895431 0 2 0L22 0C23.1046 0 24 0.895431 24 2V14C24 15.1046 23.1046 16 22 16H2C0.89543 16 0 15.1046 0 14L0 2Z" fill="#1D1347"/>
<g id="icon">
<path id="path66" d="M7 4.6001L8.42268 7.2001V8.8001L7 11.4001V4.6001Z" fill="#5B57A2"/>
<path id="path68" d="M12.6895 6.20002L14.0105 5.40002H16.8559L12.6895 7.90002V6.20002Z" fill="#D90751"/>
<path id="path70" d="M12.6903 4.6V8L11.166 7.1V2L12.6903 4.6Z" fill="#FAB718"/>
<path id="path72" d="M16.8567 5.4H14.0114L12.5887 4.6L11.166 2L16.8567 5.4Z" fill="#ED6F26"/>
<path id="path74" d="M12.6903 11.3998V9.79978L11.166 8.89978V13.9998L12.6903 11.3998Z" fill="#63B22F"/>
<path id="path76" d="M14.0118 10.6001L8.42268 7.2001L7 4.6001L16.8571 10.6001H14.0118Z" fill="#1487C9"/>
<g id="path78">
<path d="M11.166 14L12.6903 11.4L14.0114 10.6H16.8567L11.166 14Z" fill="#017F36"/>
</g>
<path id="path80" d="M7 11.4002L11.1664 8.90024L9.74374 8.00024L8.42268 8.80024L7 11.4002Z" fill="#984995"/>
</g>
</g>
</g>
</g>
</svg>
