<svg preserveAspectRatio="none" width="100%" height="100%" overflow="visible" style="display: block;" viewBox="0 0 50 33" fill="none" xmlns="http://www.w3.org/2000/svg">
<path id="Subtract" d="M46 0C48.2091 0 49.9999 1.79097 50 4V29C50 31.2091 48.2091 33 46 33H4C1.79096 32.9999 0 31.2091 0 29V4C0.000129479 1.79105 1.79104 0.000120605 4 0H46ZM15.6582 21.21V23.0605H33.6582V21.21H15.6582ZM22.5635 8.06445H15.8584C15.7479 8.06445 15.6582 8.15419 15.6582 8.26465V10.4541C15.6582 10.5646 15.7479 10.6543 15.8584 10.6543H18.7559C19.1838 10.6543 19.5312 11.0087 19.5312 11.4453V15.2061C19.5312 15.6426 19.1838 15.997 18.7559 15.9971H15.8584C15.7479 15.9971 15.6582 16.0868 15.6582 16.1973V19.21C15.6583 19.3204 15.748 19.4102 15.8584 19.4102H31.3848C32.4985 19.4102 33.4014 18.4886 33.4014 17.3525C33.2549 13.6472 30.299 7.88754 22.5635 8.06445ZM25.3262 10.6543C27.8053 10.6545 29.8152 12.7046 29.8154 15.2334C29.8154 15.6548 29.4804 15.9968 29.0674 15.9971H22.2412C21.8134 15.9969 21.4668 15.6425 21.4668 15.2061V11.4453C21.4668 11.0089 21.8134 10.6545 22.2412 10.6543H25.3262Z" fill="var(--fill-0, #E32C22)"/>
</svg>
