<svg width="168" height="144" viewBox="0 0 168 144" fill="none" xmlns="http://www.w3.org/2000/svg">
<rect width="168" height="144" fill="#6B6B6B"/>
<g id="&#208;&#162;&#209;&#128;&#208;&#190;&#208;&#185;&#208;&#186;&#208;&#176;">
<path d="M-662.5 -3449C-662.5 -3450.1 -661.605 -3451 -660.5 -3451H4095.5C4096.6 -3451 4097.5 -3450.1 4097.5 -3449V4378C4097.5 4379.1 4096.6 4380 4095.5 4380H-660.5C-661.605 4380 -662.5 4379.1 -662.5 4378V-3449Z" fill="#344147"/>
<path d="M-660.5 -3451V-3450H4095.5V-3451V-3452H-660.5V-3451ZM4097.5 -3449H4096.5V4378H4097.5H4098.5V-3449H4097.5ZM4095.5 4380V4379H-660.5V4380V4381H4095.5V4380ZM-662.5 4378H-661.5V-3449H-662.5H-663.5V4378H-662.5ZM-660.5 4380V4379C-661.052 4379 -661.5 4378.55 -661.5 4378H-662.5H-663.5C-663.5 4379.66 -662.157 4381 -660.5 4381V4380ZM4097.5 4378H4096.5C4096.5 4378.55 4096.05 4379 4095.5 4379V4380V4381C4097.16 4381 4098.5 4379.66 4098.5 4378H4097.5ZM4095.5 -3451V-3450C4096.05 -3450 4096.5 -3449.55 4096.5 -3449H4097.5H4098.5C4098.5 -3450.66 4097.16 -3452 4095.5 -3452V-3451ZM-660.5 -3451V-3452C-662.157 -3452 -663.5 -3450.66 -663.5 -3449H-662.5H-661.5C-661.5 -3449.55 -661.052 -3450 -660.5 -3450V-3451Z" fill="white" fill-opacity="0.1"/>
<g id="&#208;&#146;&#208;&#184;&#208;&#180; &#208;&#177;&#208;&#184;&#208;&#187;&#208;&#181;&#209;&#130;&#208;&#176;">
<rect width="375" height="812" transform="translate(-191.5 -258)" fill="#F2F3F5"/>
<g id="Transport Options">
<path d="M-191.5 -24C-191.5 -37.2548 -180.755 -48 -167.5 -48H159.5C172.755 -48 183.5 -37.2548 183.5 -24V136C183.5 149.255 172.755 160 159.5 160H-167.5C-180.755 160 -191.5 149.255 -191.5 136V-24Z" fill="#FEFEFE"/>
<g id="Content">
<g id="Cards/NewPayments/Types">
<g clip-path="url(#clip0_99761_63907)">
<rect width="167.5" height="144" rx="16" fill="#F7F7F7"/>
<g id="Transport Card">
<path id="Caption" d="M19.774 25.529H23.412L21.61 20.718H21.576L19.774 25.529ZM18.125 30H16.187L20.862 18.1H22.409L27.067 30H25.061L23.956 27.008H19.23L18.125 30ZM32.8829 30H28.5479V21.602H32.6279C34.1919 21.602 35.1779 22.571 35.1779 23.744C35.1779 24.526 34.7359 25.189 34.0389 25.529V25.563C34.9569 25.835 35.5859 26.668 35.5859 27.535C35.5859 28.98 34.4809 30 32.8829 30ZM30.2139 24.985H32.3899C33.0019 24.985 33.4949 24.594 33.4949 23.948C33.4949 23.302 33.0019 22.928 32.3899 22.928H30.2139V24.985ZM30.2139 28.674H32.4749C33.2399 28.674 33.8519 28.266 33.8519 27.501C33.8519 26.736 33.2399 26.328 32.4749 26.328H30.2139V28.674ZM39.1091 30V22.979H36.5421V21.602H43.5461L43.0531 22.979H40.7751V30H39.1091ZM48.5044 30.204C46.1754 30.204 44.3224 28.368 44.3224 25.801C44.3224 23.234 46.1754 21.398 48.5044 21.398C50.8334 21.398 52.6864 23.234 52.6864 25.801C52.6864 28.368 50.8334 30.204 48.5044 30.204ZM48.5044 28.725C49.9834 28.725 51.0034 27.501 51.0034 25.801C51.0034 24.118 49.9834 22.877 48.5044 22.877C47.0254 22.877 46.0054 24.118 46.0054 25.801C46.0054 27.501 47.0254 28.725 48.5044 28.725ZM58.6223 30.204C56.1233 30.204 54.3723 28.283 54.3723 25.087V24.815C54.3723 21.092 55.3073 17.93 59.7613 17.794C60.8323 17.76 61.7333 17.607 62.0563 17.386V18.882C61.7333 19.103 60.8323 19.256 59.7613 19.29C56.8883 19.392 56.1063 20.82 55.8343 23.132H55.8683C56.4463 22.333 57.5683 21.704 58.8603 21.704C61.0023 21.704 62.8043 23.353 62.8043 25.903C62.8043 28.47 60.9683 30.204 58.6223 30.204ZM58.6053 28.776C60.0333 28.776 61.1043 27.637 61.1043 25.954C61.1043 24.288 60.0333 23.149 58.6053 23.149C57.1773 23.149 56.1063 24.288 56.1063 25.954C56.1063 27.637 57.1773 28.776 58.6053 28.776ZM65.4683 33.332C64.8393 33.332 64.0403 33.128 63.4283 32.618L64.5333 31.513C64.8053 31.7 65.1283 31.819 65.4683 31.819C66.1313 31.819 66.6753 31.496 67.1173 30.238L63.7513 21.602H65.6043L68.0013 28.096H68.0353L70.1433 21.602H71.9113L68.7323 30.68C68.2053 32.176 67.2533 33.332 65.4683 33.332ZM77.0255 30.204C74.6795 30.204 72.8775 28.368 72.8775 25.801C72.8775 23.234 74.6795 21.398 77.0255 21.398C78.3345 21.398 79.3375 21.925 79.9835 22.571L78.9465 23.608C78.5555 23.251 77.9435 22.86 77.0595 22.86C75.5635 22.86 74.5435 24.135 74.5435 25.801C74.5435 27.484 75.5635 28.759 77.0595 28.759C77.9435 28.759 78.5555 28.368 78.9465 27.994L79.9835 29.031C79.3375 29.677 78.3345 30.204 77.0255 30.204ZM81.7559 21.602H83.4219V24.356H85.2919C87.1279 24.356 88.4709 25.376 88.4539 27.178C88.4709 28.98 87.1279 30 85.2919 30H81.7559V21.602ZM89.5079 30V21.602H91.1739V30H89.5079ZM83.4219 28.674H84.9519C85.8699 28.674 86.7199 28.266 86.7199 27.178C86.7199 26.09 85.8699 25.682 84.9519 25.682H83.4219V28.674ZM17.292 50V41.602H18.958V47.348H18.992L22.902 41.602H24.415V50H22.749V44.271H22.715L18.805 50H17.292ZM32.7175 50V42.979H30.1505V41.602H37.1545L36.6615 42.979H34.3835V50H32.7175ZM40.1238 45.784C40.1238 47.467 41.1608 48.725 42.6568 48.725C44.1528 48.725 45.1898 47.467 45.1898 45.784C45.1898 44.101 44.1528 42.877 42.6568 42.877C41.1608 42.877 40.1238 44.101 40.1238 45.784ZM40.1748 48.725V53.145H38.5088V41.602H40.1748V42.877H40.2088C40.7358 42.044 41.7218 41.398 42.9628 41.398C45.2068 41.398 46.8898 43.234 46.8898 45.801C46.8898 48.368 45.2068 50.204 42.9628 50.204C41.7218 50.204 40.7358 49.558 40.2088 48.725H40.1748ZM51.553 48.81C52.692 48.81 53.678 47.994 53.678 46.617V46.192C53.185 46.124 52.59 46.073 52.199 46.073C50.737 46.073 49.955 46.617 49.955 47.484C49.955 48.164 50.516 48.81 51.553 48.81ZM51.213 50.204C49.496 50.204 48.272 49.014 48.272 47.484C48.272 46.09 49.309 44.747 51.961 44.747C52.437 44.747 53.1 44.815 53.678 44.9V44.492C53.678 43.455 52.93 42.86 51.893 42.86C50.89 42.86 50.125 43.268 49.666 43.591L48.612 42.537C49.428 41.857 50.652 41.398 51.944 41.398C54.069 41.398 55.344 42.537 55.344 44.492V50H53.712V49.082H53.678C53.168 49.762 52.284 50.204 51.213 50.204ZM57.017 50L59.04 41.602H60.842L62.967 47.858H63.001L65.228 41.602H66.979L69.002 50H67.285L65.874 43.931H65.84L63.732 50H62.168L60.111 43.965H60.077L58.717 50H57.017ZM75.1006 50H70.7656V41.602H74.8456C76.4096 41.602 77.3956 42.571 77.3956 43.744C77.3956 44.526 76.9536 45.189 76.2566 45.529V45.563C77.1746 45.835 77.8036 46.668 77.8036 47.535C77.8036 48.98 76.6986 50 75.1006 50ZM72.4316 44.985H74.6076C75.2196 44.985 75.7126 44.594 75.7126 43.948C75.7126 43.302 75.2196 42.928 74.6076 42.928H72.4316V44.985ZM72.4316 48.674H74.6926C75.4576 48.674 76.0696 48.266 76.0696 47.501C76.0696 46.736 75.4576 46.328 74.6926 46.328H72.4316V48.674ZM82.4319 48.81C83.5709 48.81 84.5569 47.994 84.5569 46.617V46.192C84.0639 46.124 83.4689 46.073 83.0779 46.073C81.6159 46.073 80.8339 46.617 80.8339 47.484C80.8339 48.164 81.3949 48.81 82.4319 48.81ZM82.0919 50.204C80.3749 50.204 79.1509 49.014 79.1509 47.484C79.1509 46.09 80.1879 44.747 82.8399 44.747C83.3159 44.747 83.9789 44.815 84.5569 44.9V44.492C84.5569 43.455 83.8089 42.86 82.7719 42.86C81.7689 42.86 81.0039 43.268 80.5449 43.591L79.4909 42.537C80.3069 41.857 81.5309 41.398 82.8229 41.398C84.9479 41.398 86.2229 42.537 86.2229 44.492V50H84.5909V49.082H84.5569C84.0469 49.762 83.1629 50.204 82.0919 50.204ZM88.7119 50V41.602H90.3779V47.348H90.4119L94.3219 41.602H95.8349V50H94.1689V44.271H94.1349L90.2249 50H88.7119Z" fill="#333333"/>
<path id="Card Duration" d="M21.222 68.442C23.224 68.442 24.316 69.66 24.316 71.2C24.316 72.74 23.224 74 21.222 74H17.4V64.2H23.546L23.168 65.25H18.562V68.442H21.222ZM23.14 71.2C23.14 70.136 22.356 69.492 21.152 69.492H18.562V72.95H21.152C22.356 72.95 23.14 72.264 23.14 71.2ZM25.9654 74V67.154H27.0294V72.32H27.0574L30.5434 67.154H31.5514V74H30.4874V68.848H30.4594L26.9734 74H25.9654ZM33.4783 74.14C33.2543 74.14 32.9463 74.056 32.8763 74.028V73.062C32.9043 73.076 33.0863 73.132 33.3383 73.132C33.9123 73.132 34.1223 72.656 34.2763 70.808C34.4163 69.212 34.5283 67.154 34.5283 67.154H39.4423V74H38.3503V68.022H35.5083C35.4663 68.75 35.3963 69.94 35.3123 71.13C35.1723 73.174 34.5843 74.14 33.4783 74.14ZM44.6567 74.168C42.7247 74.168 41.1987 72.712 41.1987 70.598C41.1987 68.442 42.7247 66.986 44.5307 66.986C46.1967 66.986 47.7647 68.204 47.7647 70.85V70.92H42.3047C42.4587 72.306 43.4807 73.174 44.7407 73.174C45.3287 73.174 46.0007 73.006 46.6307 72.502L47.3167 73.202C46.6727 73.804 45.6927 74.168 44.6567 74.168ZM42.3327 70.024H46.5747C46.5047 68.876 45.6787 67.966 44.5307 67.966C43.2847 67.966 42.4587 68.932 42.3327 70.024ZM50.6339 74V68.022H48.3659V67.154H54.1759L53.8679 68.022H51.7259V74H50.6339ZM61.8836 74V67.154H62.9756V74H61.8836ZM55.3736 67.154H56.4656V69.8H58.3136C59.5176 69.8 60.6516 70.472 60.6376 71.9C60.6236 73.328 59.5176 74 58.3136 74H55.3736V67.154ZM56.4656 73.09H58.0896C58.8176 73.09 59.4756 72.754 59.4756 71.9C59.4756 71.046 58.8176 70.71 58.0896 70.71H56.4656V73.09ZM72.384 74L71.068 71.27L72.384 68.526H73.462L72.202 71.27L73.462 74H72.384ZM69.682 74L68.366 71.27L69.682 68.526H70.76L69.514 71.27L70.76 74H69.682ZM76.7341 74V65.25H73.3041V64.2H81.3821L81.0181 65.25H77.8961V74H76.7341ZM81.9729 74H80.7549L84.6609 64.2H85.6829L89.5609 74H88.2729L87.2369 71.228H83.0229L81.9729 74ZM83.3869 70.248H86.8589L85.1509 65.782H85.1229L83.3869 70.248ZM92.4567 74V65.25H89.0267V64.2H97.1047L96.7407 65.25H93.6187V74H92.4567ZM99.5895 74L100.85 71.27L99.5895 68.526H100.668L101.984 71.27L100.668 74H99.5895ZM96.8875 74L98.1335 71.27L96.8875 68.526H97.9655L99.2815 71.27L97.9655 74H96.8875Z" fill="#333333"/>
</g>
<g id="transport types">
<g id="Icons/Main/Transport/RouteBus">
<g id="Subtract">
<path fill-rule="evenodd" clip-rule="evenodd" d="M27.1133 97.7238C28.7444 97.7238 30.0667 99.0169 30.0667 100.612C30.0667 100.877 30.0302 101.134 29.9618 101.378C29.6186 102.601 28.4733 103.5 27.1133 103.5C25.7533 103.5 24.608 102.601 24.2648 101.378C24.1964 101.134 24.1599 100.877 24.1599 100.612C24.1599 99.0169 25.4822 97.7238 27.1133 97.7238ZM27.1133 98.9017C26.1474 98.9017 25.3644 99.6675 25.3644 100.612C25.3644 101.557 26.1474 102.322 27.1133 102.322C28.0792 102.322 28.8622 101.557 28.8622 100.612C28.8622 99.6675 28.0792 98.9017 27.1133 98.9017Z" fill="#017CBA"/>
<path fill-rule="evenodd" clip-rule="evenodd" d="M27.1133 97.7238C28.7444 97.7238 30.0667 99.0169 30.0667 100.612C30.0667 100.877 30.0302 101.134 29.9618 101.378C31.3601 101.378 32.6208 100.489 32.6356 99.4453C32.6588 97.8143 32.6912 95.0103 32.6356 92.9081C32.58 90.8059 29.8042 90.2048 28.8622 90.167H19.3328V92.3669H25.5986C25.7773 92.3669 25.9221 92.5117 25.9221 92.6904V95.7239C25.9221 95.9025 25.7773 96.0474 25.5986 96.0474H19.3328V101.378H24.2648C24.1964 101.134 24.1599 100.877 24.1599 100.612C24.1599 99.0169 25.4822 97.7238 27.1133 97.7238ZM30.9093 96.9923C30.9093 97.2224 30.676 97.3789 30.4631 97.2917L27.6269 96.1297C27.5054 96.0799 27.426 95.9616 27.426 95.8303V92.6904C27.426 92.5117 27.5709 92.3669 27.7496 92.3669H30.5858C30.7645 92.3669 30.9093 92.5117 30.9093 92.6904V96.9923Z" fill="#017CBA"/>
</g>
</g>
<g id="Icons/Main/Transport/RouteElectroBus">
<g id="Vector">
<path fill-rule="evenodd" clip-rule="evenodd" d="M49.1135 96.8898C50.7446 96.8898 52.0669 98.1829 52.0669 99.7781C52.0669 100.043 52.0304 100.3 51.962 100.544C51.6188 101.767 50.4735 102.666 49.1135 102.666C47.7535 102.666 46.6082 101.767 46.265 100.544C46.1966 100.3 46.1601 100.043 46.1601 99.7781C46.1601 98.1829 47.4824 96.8898 49.1135 96.8898ZM49.1135 98.0678C48.1476 98.0678 47.3646 98.8335 47.3646 99.7781C47.3646 100.723 48.1476 101.488 49.1135 101.488C50.0794 101.488 50.8624 100.723 50.8624 99.7781C50.8624 98.8335 50.0794 98.0678 49.1135 98.0678Z" fill="#017CBA"/>
<path fill-rule="evenodd" clip-rule="evenodd" d="M49.1135 96.8898C50.7446 96.8898 52.0669 98.1829 52.0669 99.7781C52.0669 100.043 52.0304 100.3 51.962 100.544C53.3603 100.544 54.621 99.6548 54.6359 98.6114C54.659 96.9803 54.6915 94.1763 54.6359 92.0741C54.5803 89.9719 51.8044 89.3708 50.8624 89.333H45.5001V91.2633C45.5001 91.4122 45.6208 91.5329 45.7697 91.5329H47.9223V94.9438C47.9223 95.0927 47.8016 95.2134 47.6527 95.2134H41.333V100.544H46.265C46.1966 100.3 46.1601 100.043 46.1601 99.7781C46.1601 98.1829 47.4824 96.8898 49.1135 96.8898ZM52.9095 96.2387C52.9095 96.4304 52.7151 96.5609 52.5377 96.4882L49.5936 95.282C49.4924 95.2405 49.4263 95.1419 49.4263 95.0325V91.8025C49.4263 91.6536 49.547 91.5329 49.6959 91.5329H52.6399C52.7888 91.5329 52.9095 91.6536 52.9095 91.8025V96.2387Z" fill="#017CBA"/>
<path fill-rule="evenodd" clip-rule="evenodd" d="M42.742 89.3619C43.0145 89.4568 43.1594 89.7575 43.0658 90.0336L42.586 91.4476H43.3115C43.4854 91.4476 43.6478 91.5353 43.7447 91.6816C43.8416 91.8279 43.8602 92.0135 43.7943 92.1766L43.0552 94.0046C42.9459 94.2748 42.6412 94.4041 42.3746 94.2934C42.1079 94.1828 41.9803 93.874 42.0896 93.6039L42.5339 92.5048H41.855C41.6864 92.5048 41.5282 92.4223 41.4303 92.2832C41.3324 92.1442 41.3068 91.9658 41.3616 91.8043L42.079 89.6899C42.1726 89.4138 42.4695 89.267 42.742 89.3619Z" fill="#017CBA"/>
<path d="M45.7697 91.5329C45.6208 91.5329 45.5001 91.4122 45.5001 91.2633V91.5329H45.7697Z" fill="#017CBA"/>
</g>
</g>
<g id="Icons/Main/Transport/RouteTram/">
<g id="Subtract_2">
<path fill-rule="evenodd" clip-rule="evenodd" d="M68.9577 91.8839C74.325 91.7558 76.3763 95.9226 76.4778 98.603C76.4778 99.4247 75.8513 100.091 75.0787 100.091H64.4157C64.2784 100.091 64.167 99.9796 64.167 99.8422V97.871C64.167 97.7336 64.2784 97.6222 64.4157 97.6222H66.3163C66.6132 97.6222 66.854 97.3662 66.854 97.0504V94.3294C66.854 94.0136 66.6132 93.7576 66.3163 93.7576H64.167V91.8839H66.2059H68.1971H68.9577ZM68.1971 94.3294C68.1971 94.0136 68.4378 93.7576 68.7348 93.7576H70.8746C72.5948 93.7576 73.9893 95.2407 73.9893 97.0702C73.9893 97.3751 73.7569 97.6222 73.4702 97.6222H68.7348C68.4378 97.6222 68.1971 97.3662 68.1971 97.0504V94.3294Z" fill="#017CBA"/>
<path d="M64.167 91.8839H66.2059L68.5761 89.7057H66.3716L64.167 91.8839Z" fill="#017CBA"/>
<path d="M72.9853 88.7488C72.9853 88.6114 72.8739 88.5 72.7365 88.5H64.4157C64.2784 88.5 64.167 88.6114 64.167 88.7488V89.457C64.167 89.5944 64.2784 89.7057 64.4157 89.7057H66.3716H68.5761H72.7365C72.8739 89.7057 72.9853 89.5944 72.9853 89.457V88.7488Z" fill="#017CBA"/>
<path d="M64.167 101.404H76.667V102.667H64.167V101.404Z" fill="#017CBA"/>
</g>
</g>
</g>
<path id="Subtract_3" fill-rule="evenodd" clip-rule="evenodd" d="M172.158 122.954C174.645 123.801 176.055 126.279 175.306 128.488L167.169 152.489C166.42 154.699 163.796 155.803 161.308 154.956L122.268 141.665C119.78 140.818 118.371 138.341 119.12 136.131L127.257 112.13C128.006 109.921 130.63 108.816 133.118 109.663L172.158 122.954ZM135.365 119.352C134.56 119.078 133.688 119.508 133.416 120.311C133.144 121.115 133.574 121.988 134.378 122.262L139.475 123.997L135.529 135.633C135.257 136.437 135.688 137.31 136.492 137.584C137.296 137.857 138.169 137.428 138.441 136.625L142.386 124.988L147.483 126.723C148.287 126.997 149.16 126.567 149.432 125.764C149.705 124.961 149.273 124.087 148.469 123.814L135.365 119.352ZM155.189 135.955C154.36 135.673 153.485 136.04 153.235 136.777L152.783 138.11C152.533 138.847 153.003 139.673 153.832 139.955L155.334 140.466C156.163 140.748 157.038 140.38 157.288 139.644L157.74 138.31C157.989 137.574 157.519 136.748 156.69 136.466L155.189 135.955ZM153.526 128.51C152.697 128.228 151.822 128.596 151.572 129.332L151.12 130.666C150.87 131.402 151.34 132.228 152.169 132.51L153.671 133.022C154.5 133.304 155.375 132.935 155.625 132.199L156.077 130.865C156.326 130.129 155.856 129.304 155.027 129.021L153.526 128.51ZM161.033 131.066C160.204 130.784 159.33 131.152 159.08 131.888L158.628 133.221C158.378 133.958 158.848 134.784 159.677 135.066L161.179 135.578C162.008 135.86 162.883 135.491 163.132 134.755L163.585 133.421C163.834 132.685 163.364 131.86 162.535 131.577L161.033 131.066Z" fill="#017CBA"/>
</g>
</g>
</g>
</g>
</g>
</g>
<defs>
<clipPath id="clip0_99761_63907">
<rect width="167.5" height="144" rx="16" fill="white"/>
</clipPath>
</defs>
</svg>
