<svg preserveAspectRatio="none" width="100%" height="100%" overflow="visible" style="display: block;" viewBox="0 0 17.1429 11.4286" fill="none" xmlns="http://www.w3.org/2000/svg">
<g id="Vector">
<path fill-rule="evenodd" clip-rule="evenodd" d="M1.60714 0H15.5357C16.4233 0 17.1429 0.639593 17.1429 1.42857V10C17.1429 10.789 16.4233 11.4286 15.5357 11.4286H1.60714C0.719542 11.4286 0 10.789 0 10V1.42857C0 0.639593 0.719542 0 1.60714 0ZM3.21426 2.85714C2.9184 2.85714 2.67855 3.09699 2.67855 3.39286V7.67857C2.67855 7.97444 2.9184 8.21429 3.21426 8.21429H5.89284C6.1887 8.21429 6.42855 7.97444 6.42855 7.67857C6.42855 7.3827 6.1887 7.14286 5.89284 7.14286H3.74998V6.07143H5.89284C6.1887 6.07143 6.42855 5.83158 6.42855 5.53571C6.42855 5.23985 6.1887 5 5.89284 5H3.74998V3.92857H5.89284C6.1887 3.92857 6.42855 3.68872 6.42855 3.39286C6.42855 3.09699 6.1887 2.85714 5.89284 2.85714H3.21426ZM10.1786 3.39285H10.7143C11.0102 3.39285 11.25 3.6327 11.25 3.92857V4.46428C11.25 4.76015 11.0102 5 10.7143 5H10.1786C9.88274 5 9.64289 4.76015 9.64289 4.46428V3.92857C9.64289 3.6327 9.88274 3.39285 10.1786 3.39285ZM12.8573 3.39285H13.393C13.6888 3.39285 13.9287 3.6327 13.9287 3.92857V4.46428C13.9287 4.76015 13.6888 5 13.393 5H12.8573C12.5614 5 12.3216 4.76015 12.3216 4.46428V3.92857C12.3216 3.6327 12.5614 3.39285 12.8573 3.39285ZM12.8573 6.07134H13.393C13.6888 6.07134 13.9287 6.31118 13.9287 6.60705V7.14276C13.9287 7.43863 13.6888 7.67848 13.393 7.67848H12.8573C12.5614 7.67848 12.3216 7.43863 12.3216 7.14276V6.60705C12.3216 6.31118 12.5614 6.07134 12.8573 6.07134ZM10.1786 6.07134H10.7143C11.0102 6.07134 11.25 6.31118 11.25 6.60705V7.14276C11.25 7.43863 11.0102 7.67848 10.7143 7.67848H10.1786C9.88274 7.67848 9.64289 7.43863 9.64289 7.14276V6.60705C9.64289 6.31118 9.88274 6.07134 10.1786 6.07134Z" fill="#E32C22"/>
<path d="M2.67855 3.39286C2.67855 3.09699 2.9184 2.85714 3.21426 2.85714H5.89284C6.1887 2.85714 6.42855 3.09699 6.42855 3.39286C6.42855 3.68872 6.1887 3.92857 5.89284 3.92857H3.74998V5H5.89284C6.1887 5 6.42855 5.23985 6.42855 5.53571C6.42855 5.83158 6.1887 6.07143 5.89284 6.07143H3.74998V7.14286H5.89284C6.1887 7.14286 6.42855 7.3827 6.42855 7.67857C6.42855 7.97444 6.1887 8.21429 5.89284 8.21429H3.21426C2.9184 8.21429 2.67855 7.97444 2.67855 7.67857V3.39286Z" fill="var(--fill-0, white)"/>
<path d="M10.7143 3.39285H10.1786C9.88274 3.39285 9.64289 3.6327 9.64289 3.92857V4.46428C9.64289 4.76015 9.88274 5 10.1786 5H10.7143C11.0102 5 11.25 4.76015 11.25 4.46428V3.92857C11.25 3.6327 11.0102 3.39285 10.7143 3.39285Z" fill="var(--fill-0, white)"/>
<path d="M13.393 3.39285H12.8573C12.5614 3.39285 12.3216 3.6327 12.3216 3.92857V4.46428C12.3216 4.76015 12.5614 5 12.8573 5H13.393C13.6888 5 13.9287 4.76015 13.9287 4.46428V3.92857C13.9287 3.6327 13.6888 3.39285 13.393 3.39285Z" fill="var(--fill-0, white)"/>
<path d="M13.393 6.07134H12.8573C12.5614 6.07134 12.3216 6.31118 12.3216 6.60705V7.14276C12.3216 7.43863 12.5614 7.67848 12.8573 7.67848H13.393C13.6888 7.67848 13.9287 7.43863 13.9287 7.14276V6.60705C13.9287 6.31118 13.6888 6.07134 13.393 6.07134Z" fill="var(--fill-0, white)"/>
<path d="M10.7143 6.07134H10.1786C9.88274 6.07134 9.64289 6.31118 9.64289 6.60705V7.14276C9.64289 7.43863 9.88274 7.67848 10.1786 7.67848H10.7143C11.0102 7.67848 11.25 7.43863 11.25 7.14276V6.60705C11.25 6.31118 11.0102 6.07134 10.7143 6.07134Z" fill="var(--fill-0, white)"/>
</g>
</svg>
