<svg width="160" height="144" viewBox="0 0 160 144" fill="none" xmlns="http://www.w3.org/2000/svg">
<rect width="160" height="144" fill="#6B6B6B"/>
<g id="&#208;&#161;&#208;&#190;&#209;&#134;&#208;&#184;&#208;&#176;&#208;&#187;&#208;&#186;&#208;&#176;">
<path d="M-618 -5145C-618 -5146.1 -617.105 -5147 -616 -5147H4140C4141.1 -5147 4142 -5146.1 4142 -5145V993C4142 994.104 4141.1 995 4140 995H-616C-617.105 995 -618 994.104 -618 993V-5145Z" fill="#504850"/>
<path d="M-616 -5147V-5146H4140V-5147V-5148H-616V-5147ZM4142 -5145H4141V993H4142H4143V-5145H4142ZM4140 995V994H-616V995V996H4140V995ZM-618 993H-617V-5145H-618H-619V993H-618ZM-616 995V994C-616.552 994 -617 993.552 -617 993H-618H-619C-619 994.657 -617.657 996 -616 996V995ZM4142 993H4141C4141 993.552 4140.55 994 4140 994V995V996C4141.66 996 4143 994.657 4143 993H4142ZM4140 -5147V-5146C4140.55 -5146 4141 -5145.55 4141 -5145H4142H4143C4143 -5146.66 4141.66 -5148 4140 -5148V-5147ZM-616 -5147V-5148C-617.657 -5148 -619 -5146.66 -619 -5145H-618H-617C-617 -5145.55 -616.552 -5146 -616 -5146V-5147Z" fill="white" fill-opacity="0.1"/>
<g id="&#208;&#157;&#208;&#176;&#208;&#183;&#208;&#181;&#208;&#188;&#208;&#186;&#208;&#176;" clip-path="url(#clip0_99761_63907)">
<rect width="375" height="812" transform="translate(-31 -258)" fill="#F2F3F5"/>
<g id="Transport Options">
<path d="M-31 -24C-31 -37.2548 -20.2548 -48 -7 -48H320C333.255 -48 344 -37.2548 344 -24V136C344 149.255 333.255 160 320 160H-7C-20.2548 160 -31 149.255 -31 136V-24Z" fill="#FEFEFE"/>
<g id="Content">
<g id="Content_2">
<g id="Cards/NewPayments/Types">
<g clip-path="url(#clip1_99761_63907)">
<rect width="160" height="144" rx="16" fill="#F7F7F7"/>
<g id="Transport Card">
<path id="Caption" d="M18.21 30H16.289L20.08 18.1H21.627L24.585 27.127H24.619L27.56 18.1H29.107L32.898 30H30.977L28.291 21.279H28.257L25.401 30H23.786L20.93 21.279H20.896L18.21 30ZM38.1466 30.204C35.8346 30.204 33.8966 28.487 33.8966 25.818C33.8966 23.2 35.7156 21.398 37.9426 21.398C40.1186 21.398 41.9886 22.877 41.9886 26.107V26.345H35.6306C35.8176 27.858 36.9736 28.708 38.2996 28.708C39.0306 28.708 39.7786 28.453 40.4416 27.892L41.4956 28.946C40.6456 29.762 39.4556 30.204 38.1466 30.204ZM35.6476 25.087H40.2036C40.1186 23.948 39.2516 22.877 37.9936 22.877C36.6676 22.877 35.8006 23.897 35.6476 25.087ZM45.4509 30V22.979H42.8839V21.602H49.8879L49.3949 22.979H47.1169V30H45.4509ZM52.8572 25.784C52.8572 27.467 53.8942 28.725 55.3902 28.725C56.8862 28.725 57.9232 27.467 57.9232 25.784C57.9232 24.101 56.8862 22.877 55.3902 22.877C53.8942 22.877 52.8572 24.101 52.8572 25.784ZM52.9082 28.725V33.145H51.2422V21.602H52.9082V22.877H52.9422C53.4692 22.044 54.4552 21.398 55.6962 21.398C57.9402 21.398 59.6232 23.234 59.6232 25.801C59.6232 28.368 57.9402 30.204 55.6962 30.204C54.4552 30.204 53.4692 29.558 52.9422 28.725H52.9082ZM65.2554 30.204C62.9264 30.204 61.0734 28.368 61.0734 25.801C61.0734 23.234 62.9264 21.398 65.2554 21.398C67.5844 21.398 69.4374 23.234 69.4374 25.801C69.4374 28.368 67.5844 30.204 65.2554 30.204ZM65.2554 28.725C66.7344 28.725 67.7544 27.501 67.7544 25.801C67.7544 24.118 66.7344 22.877 65.2554 22.877C63.7764 22.877 62.7564 24.118 62.7564 25.801C62.7564 27.501 63.7764 28.725 65.2554 28.725ZM71.3273 32.346L72.0753 30H71.2933V27.62H73.4013V30L72.4153 32.346H71.3273ZM80.9473 30H79.0263L82.8173 18.1H84.3643L87.3223 27.127H87.3563L90.2973 18.1H91.8443L95.6353 30H93.7143L91.0283 21.279H90.9943L88.1383 30H86.5233L83.6673 21.279H83.6333L80.9473 30ZM106.97 32.465V30H97.5349V18.1H99.2859V28.453H105.491V18.1H107.242V28.453H108.602V32.465H106.97ZM110.916 30V18.1H112.667V23.081H114.418L118.09 18.1H120.164L115.931 23.693L120.793 30H118.532L114.469 24.628H112.667V30H110.916ZM17.292 50V41.602H18.958V47.348H18.992L22.902 41.602H24.415V50H22.749V44.271H22.715L18.805 50H17.292ZM32.1055 50H30.1845L33.9755 38.1H35.5225L38.4805 47.127H38.5145L41.4555 38.1H43.0025L46.7935 50H44.8725L42.1865 41.279H42.1525L39.2965 50H37.6815L34.8255 41.279H34.7915L32.1055 50ZM58.1281 52.465V50H48.6931V38.1H50.4441V48.453H56.6491V38.1H58.4001V48.453H59.7601V52.465H58.1281ZM63.502 48.419V48.453H69.35V39.647H64.913C64.845 41.024 64.641 44.407 64.42 45.835C64.25 46.957 63.961 47.807 63.502 48.419ZM60.68 52.465V48.453H61.496C62.176 48.113 62.499 47.178 62.737 45.648C63.009 43.914 63.366 38.1 63.366 38.1H71.101V48.453H72.461V52.465H70.829V50H62.312V52.465H60.68Z" fill="#333333"/>
<path id="Card Duration" d="M21.222 68.442C23.224 68.442 24.316 69.66 24.316 71.2C24.316 72.74 23.224 74 21.222 74H17.4V64.2H23.546L23.168 65.25H18.562V68.442H21.222ZM23.14 71.2C23.14 70.136 22.356 69.492 21.152 69.492H18.562V72.95H21.152C22.356 72.95 23.14 72.264 23.14 71.2ZM25.9654 74V67.154H27.0294V72.32H27.0574L30.5434 67.154H31.5514V74H30.4874V68.848H30.4594L26.9734 74H25.9654ZM33.4783 74.14C33.2543 74.14 32.9463 74.056 32.8763 74.028V73.062C32.9043 73.076 33.0863 73.132 33.3383 73.132C33.9123 73.132 34.1223 72.656 34.2763 70.808C34.4163 69.212 34.5283 67.154 34.5283 67.154H39.4423V74H38.3503V68.022H35.5083C35.4663 68.75 35.3963 69.94 35.3123 71.13C35.1723 73.174 34.5843 74.14 33.4783 74.14ZM44.6567 74.168C42.7247 74.168 41.1987 72.712 41.1987 70.598C41.1987 68.442 42.7247 66.986 44.5307 66.986C46.1967 66.986 47.7647 68.204 47.7647 70.85V70.92H42.3047C42.4587 72.306 43.4807 73.174 44.7407 73.174C45.3287 73.174 46.0007 73.006 46.6307 72.502L47.3167 73.202C46.6727 73.804 45.6927 74.168 44.6567 74.168ZM42.3327 70.024H46.5747C46.5047 68.876 45.6787 67.966 44.5307 67.966C43.2847 67.966 42.4587 68.932 42.3327 70.024ZM50.6339 74V68.022H48.3659V67.154H54.1759L53.8679 68.022H51.7259V74H50.6339ZM61.8836 74V67.154H62.9756V74H61.8836ZM55.3736 67.154H56.4656V69.8H58.3136C59.5176 69.8 60.6516 70.472 60.6376 71.9C60.6236 73.328 59.5176 74 58.3136 74H55.3736V67.154ZM56.4656 73.09H58.0896C58.8176 73.09 59.4756 72.754 59.4756 71.9C59.4756 71.046 58.8176 70.71 58.0896 70.71H56.4656V73.09ZM68.772 74V67.154H69.864V69.94H73.126V67.154H74.218V74H73.126V70.85H69.864V74H68.772ZM78.2903 74.168C76.8343 74.168 75.8963 73.202 75.8963 71.984C75.8963 70.836 76.7223 69.758 78.9063 69.758C79.3263 69.758 79.9003 69.828 80.4183 69.898V69.422C80.4183 68.47 79.7323 67.952 78.8083 67.952C77.9123 67.952 77.2683 68.316 76.8903 68.582L76.1623 67.854C76.7783 67.378 77.6603 66.986 78.8363 66.986C80.5023 66.986 81.5103 67.98 81.5103 69.422V74H80.4323V73.188H80.4043C79.9843 73.762 79.1723 74.168 78.2903 74.168ZM78.4443 73.216C79.5223 73.216 80.4183 72.418 80.4183 71.186V70.808C79.2843 70.626 78.3743 70.626 77.7863 70.878C77.2823 71.088 77.0023 71.494 77.0023 72.012C77.0023 72.628 77.4783 73.216 78.4443 73.216ZM87.229 74V67.154H92.535V74H91.443V68.022H88.321V74H87.229ZM97.6606 74.168C95.7566 74.168 94.2866 72.67 94.2866 70.584C94.2866 68.484 95.7566 66.986 97.6606 66.986C99.5646 66.986 101.035 68.484 101.035 70.584C101.035 72.67 99.5646 74.168 97.6606 74.168ZM97.6606 73.202C99.0046 73.202 99.9426 72.124 99.9426 70.584C99.9426 69.072 99.0046 67.952 97.6606 67.952C96.3166 67.952 95.3786 69.072 95.3786 70.584C95.3786 72.124 96.3166 73.202 97.6606 73.202ZM105.784 74.168C103.852 74.168 102.326 72.712 102.326 70.598C102.326 68.442 103.852 66.986 105.658 66.986C107.324 66.986 108.892 68.204 108.892 70.85V70.92H103.432C103.586 72.306 104.608 73.174 105.868 73.174C106.456 73.174 107.128 73.006 107.758 72.502L108.444 73.202C107.8 73.804 106.82 74.168 105.784 74.168ZM103.46 70.024H107.702C107.632 68.876 106.806 67.966 105.658 67.966C104.412 67.966 103.586 68.932 103.46 70.024ZM112.528 74.168C111.142 74.168 110.288 73.692 109.812 73.216L110.54 72.488C110.834 72.768 111.464 73.202 112.472 73.202C113.676 73.202 114.138 72.586 114.138 72.04C114.138 71.438 113.732 70.92 112.556 70.92H111.52V70.052H112.514C113.396 70.052 113.956 69.632 113.956 68.96C113.956 68.288 113.326 67.938 112.514 67.938C111.688 67.938 110.988 68.414 110.736 68.652L110.05 67.966C110.484 67.518 111.45 66.986 112.668 66.986C113.97 66.986 115.034 67.7 115.034 68.778C115.034 69.506 114.628 70.066 113.872 70.346V70.374C114.712 70.542 115.272 71.256 115.272 71.998C115.272 73.37 114.012 74.168 112.528 74.168ZM116.069 75.47V73.132H116.615C117.063 72.712 117.329 71.774 117.525 70.57C117.721 69.366 117.861 67.154 117.861 67.154H122.201V73.132H122.929V75.47H121.949V74H117.049V75.47H116.069ZM117.791 73.104V73.132H121.109V68.022H118.813C118.757 68.624 118.687 69.604 118.519 70.794C118.365 71.844 118.099 72.586 117.791 73.104ZM126.511 74.168C125.055 74.168 124.117 73.202 124.117 71.984C124.117 70.836 124.943 69.758 127.127 69.758C127.547 69.758 128.121 69.828 128.639 69.898V69.422C128.639 68.47 127.953 67.952 127.029 67.952C126.133 67.952 125.489 68.316 125.111 68.582L124.383 67.854C124.999 67.378 125.881 66.986 127.057 66.986C128.723 66.986 129.731 67.98 129.731 69.422V74H128.653V73.188H128.625C128.205 73.762 127.393 74.168 126.511 74.168ZM126.665 73.216C127.743 73.216 128.639 72.418 128.639 71.186V70.808C127.505 70.626 126.595 70.626 126.007 70.878C125.503 71.088 125.223 71.494 125.223 72.012C125.223 72.628 125.699 73.216 126.665 73.216Z" fill="#333333"/>
</g>
<g id="transport types">
<g id="Icons / transport labels">
<path id="Shape" d="M34.3337 101.709H28.9025V100.313H29.8146L28.6952 97.1496L26.0003 101.833L23.3055 97.1496L22.1861 100.313H23.0982V101.709H17.667V100.313H18.7035L22.6007 90.166L26.0003 96.4101L29.4 90.166L33.2972 100.313H34.3337V101.709Z" fill="#E32C22"/>
</g>
<g id="Icons / transport labels_2">
<g id="Vector">
<path d="M72.0569 90H45.2617C44.8683 90 44.5907 90.2127 44.4673 90.5909C43.6034 93.2935 41.8834 98.7065 41.0272 101.417C40.927 101.74 41.1121 102 41.4437 102C48.1387 102 68.2312 102 68.2312 102C68.6246 102 68.91 101.787 69.0334 101.409C69.8972 98.7065 71.6173 93.2935 72.4734 90.5831C72.5737 90.2679 72.3808 90 72.0569 90ZM52.5428 98.998L51.4399 95.3106H51.4244L50.2212 98.998H50.1749H49.1337H49.0874L47.8841 95.3106H47.8687L46.7657 98.998H45.5008L47.4059 93.002H48.2929L49.6504 97.2725H49.6659L51.0234 93.002H51.9104L53.8155 98.998H52.5428ZM59.878 98.998H54.4094V93.002H55.5818V97.8004H58.1194V93.002H59.2918V97.8004H60.2636L59.878 98.998ZM66.704 98.998H60.495L60.8729 97.8004H61.49L63.0172 93.002H66.1178V97.8004H67.0897L66.704 98.998Z" fill="#E32C22"/>
<path d="M62.7251 97.8004H64.9311V94.1996H63.805L62.7251 97.8004Z" fill="#E32C22"/>
</g>
</g>
</g>
<path id="Subtract" d="M169.769 123.055C171.845 123.811 172.915 126.106 172.16 128.182L163.609 151.674C162.853 153.75 160.558 154.821 158.482 154.065L119.015 139.7C116.939 138.945 115.869 136.649 116.624 134.573L125.175 111.081C125.931 109.005 128.226 107.935 130.302 108.69L169.769 123.055ZM134.003 132.609L133.37 134.348L150.284 140.504L150.917 138.765L134.003 132.609ZM144.987 122.618L138.687 120.324C138.583 120.286 138.468 120.34 138.43 120.444L137.681 122.501C137.644 122.605 137.697 122.72 137.801 122.758L140.524 123.749C140.926 123.895 141.131 124.347 140.982 124.757L139.696 128.291C139.546 128.702 139.099 128.916 138.696 128.769L135.974 127.778C135.87 127.741 135.755 127.794 135.717 127.898L134.687 130.729C134.649 130.833 134.703 130.948 134.806 130.986L149.396 136.296C150.443 136.677 151.607 136.12 151.995 135.052C153.125 131.52 152.317 125.097 144.987 122.618ZM146.698 125.996C149.027 126.844 150.215 129.458 149.35 131.834C149.206 132.23 148.774 132.437 148.386 132.296L141.972 129.962C141.57 129.815 141.365 129.363 141.514 128.953L142.801 125.419C142.95 125.009 143.397 124.795 143.799 124.941L146.698 125.996Z" fill="#E32C22"/>
</g>
</g>
</g>
</g>
</g>
</g>
</g>
<defs>
<clipPath id="clip0_99761_63907">
<rect width="375" height="812" fill="white" transform="translate(-31 -258)"/>
</clipPath>
<clipPath id="clip1_99761_63907">
<rect width="160" height="144" rx="16" fill="white"/>
</clipPath>
</defs>
</svg>
