<svg preserveAspectRatio="none" width="100%" height="100%" overflow="visible" style="display: block;" viewBox="0 0 74.0849 50.0273" fill="none" xmlns="http://www.w3.org/2000/svg">
<path id="Subtract" fill-rule="evenodd" clip-rule="evenodd" d="M66.2675 0.00171709C70.0609 -0.0774077 73.1972 2.58793 73.2719 5.95515L74.0835 42.5384C74.1582 45.9057 71.1431 48.6998 67.3497 48.7794L7.81737 50.0255C4.02367 50.1049 0.887698 47.4395 0.81299 44.0721L0.00135863 7.48881C-0.0733392 4.12141 2.9415 1.32722 6.7352 1.24781L66.2675 0.00171709ZM14.5677 13.284C13.3417 13.3098 12.3704 14.3234 12.3976 15.5478C12.4248 16.7721 13.4401 17.7442 14.6661 17.7187L22.438 17.5561L22.8315 35.2928C22.8587 36.5173 23.875 37.4893 25.1012 37.4637C26.3272 37.4377 27.2985 36.4241 27.2714 35.1998L26.8779 17.4631L34.6497 17.3004C35.8758 17.2746 36.8481 16.2609 36.8211 15.0366C36.7939 13.8122 35.7774 12.8402 34.5514 12.8657L14.5677 13.284ZM49.664 26.0207C48.3996 26.0471 47.3948 26.978 47.4194 28.1002L47.4645 30.133C47.4894 31.2555 48.5347 32.1444 49.7993 32.1179L52.089 32.07C53.3533 32.0432 54.3585 31.1115 54.3336 29.9892L54.2885 27.9564C54.2632 26.8344 53.2178 25.9466 51.9537 25.9727L49.664 26.0207ZM43.7312 16.741C42.4668 16.7675 41.462 17.6983 41.4866 18.8206L41.5317 20.8534C41.5566 21.9758 42.6019 22.8647 43.8665 22.8382L46.1562 22.7903C47.4205 22.7636 48.4257 21.8319 48.4008 20.7096L48.3557 18.6768C48.3305 17.5547 47.285 16.6669 46.0209 16.6931L43.7312 16.741ZM55.1797 16.5014C53.9153 16.5278 52.9105 17.4587 52.9351 18.5809L52.9802 20.6137C53.0051 21.7362 54.0504 22.6251 55.315 22.5986L57.6047 22.5507C58.8692 22.5241 59.8742 21.5923 59.8493 20.4699L59.8042 18.4371C59.779 17.315 58.7337 16.4271 57.4694 16.4535L55.1797 16.5014Z" fill="var(--fill-0, #017CBA)"/>
</svg>
