<svg preserveAspectRatio="none" width="100%" height="100%" overflow="visible" style="display: block;" viewBox="0 0 13.3335 13.3333" fill="none" xmlns="http://www.w3.org/2000/svg">
<g id="Subtract">
<path fill-rule="evenodd" clip-rule="evenodd" d="M7.78051 7.55682C9.41163 7.55682 10.7339 8.84994 10.7339 10.4451C10.7339 10.7102 10.6974 10.967 10.629 11.2109C10.2858 12.4343 9.14053 13.3333 7.78051 13.3333C6.4205 13.3333 5.27519 12.4343 4.93204 11.2109C4.86364 10.967 4.82711 10.7102 4.82711 10.4451C4.82711 8.84994 6.14939 7.55682 7.78051 7.55682ZM7.78051 8.73475C6.81462 8.73475 6.0316 9.50049 6.0316 10.4451C6.0316 11.3897 6.81462 12.1554 7.78051 12.1554C8.74641 12.1554 9.52942 11.3897 9.52942 10.4451C9.52942 9.50049 8.74641 8.73475 7.78051 8.73475Z" fill="var(--fill-0, #017CBA)"/>
<path fill-rule="evenodd" clip-rule="evenodd" d="M7.78051 7.55682C9.41163 7.55682 10.7339 8.84994 10.7339 10.4451C10.7339 10.7102 10.6974 10.967 10.629 11.2109C12.0273 11.2109 13.288 10.3218 13.3029 9.27835C13.326 7.64732 13.3584 4.84326 13.3029 2.74109C13.2473 0.638916 10.4714 0.0377911 9.52942 0H0V2.19986H6.26579C6.44447 2.19986 6.58932 2.34472 6.58932 2.5234V5.55687C6.58932 5.73555 6.44447 5.8804 6.26579 5.8804H0V11.2109H4.93204C4.86364 10.967 4.82711 10.7102 4.82711 10.4451C4.82711 8.84994 6.14939 7.55682 7.78051 7.55682ZM11.5765 6.82533C11.5765 7.05537 11.3432 7.21193 11.1303 7.12471L8.29412 5.9627C8.17261 5.91292 8.09324 5.79463 8.09324 5.66332V2.5234C8.09324 2.34472 8.2381 2.19986 8.41678 2.19986H11.253C11.4317 2.19986 11.5765 2.34472 11.5765 2.5234V6.82533Z" fill="var(--fill-0, #017CBA)"/>
</g>
</svg>
