<svg preserveAspectRatio="none" width="100%" height="100%" overflow="visible" style="display: block;" viewBox="0 0 24 16" fill="none" xmlns="http://www.w3.org/2000/svg">
<path id="Subtract" fill-rule="evenodd" clip-rule="evenodd" d="M2.25 0H21.75C22.9926 0 24 0.89543 24 2V14C24 15.1046 22.9926 16 21.75 16H2.25C1.00736 16 0 15.1046 0 14V2C0 0.89543 1.00736 0 2.25 0ZM4.72727 4C4.32561 4 4 4.32561 4 4.72727C4 5.12893 4.32561 5.45455 4.72727 5.45455H7.27273V11.2727C7.27273 11.6744 7.59834 12 8 12C8.40166 12 8.72727 11.6744 8.72727 11.2727V5.45455H11.2727C11.6744 5.45455 12 5.12893 12 4.72727C12 4.32561 11.6744 4 11.2727 4H4.72727ZM15 5.3335H14.25C13.8358 5.3335 13.5 5.63197 13.5 6.00016V6.66683C13.5 7.03502 13.8358 7.3335 14.25 7.3335H15C15.4142 7.3335 15.75 7.03502 15.75 6.66683V6.00016C15.75 5.63197 15.4142 5.3335 15 5.3335ZM16.125 8.41672H16.875C17.2892 8.41672 17.625 8.7152 17.625 9.08339V9.75005C17.625 10.1182 17.2892 10.4167 16.875 10.4167H16.125C15.7108 10.4167 15.375 10.1182 15.375 9.75005V9.08339C15.375 8.7152 15.7108 8.41672 16.125 8.41672ZM18.7501 5.3335H18.0001C17.5859 5.3335 17.2501 5.63197 17.2501 6.00016V6.66683C17.2501 7.03502 17.5859 7.3335 18.0001 7.3335H18.7501C19.1643 7.3335 19.5001 7.03502 19.5001 6.66683V6.00016C19.5001 5.63197 19.1643 5.3335 18.7501 5.3335Z" fill="var(--fill-0, #017CBA)"/>
</svg>
