<svg preserveAspectRatio="none" width="100%" height="100%" overflow="visible" style="display: block;" viewBox="0 0 51.3101 34.6482" fill="none" xmlns="http://www.w3.org/2000/svg">
<path id="Subtract" fill-rule="evenodd" clip-rule="evenodd" d="M45.8959 0.00118923C48.5232 -0.0536115 50.6953 1.79236 50.747 4.12445L51.3092 29.4615C51.3609 31.7936 49.2727 33.7287 46.6454 33.7839L5.4142 34.647C2.78673 34.702 0.614807 32.8559 0.563065 30.5237L0.000940965 5.18664C-0.0507937 2.85443 2.03724 0.919213 4.6647 0.864216L45.8959 0.00118923ZM10.0894 9.20028C9.24024 9.2182 8.56757 9.92019 8.58638 10.7682C8.60527 11.6161 9.30842 12.2894 10.1575 12.2717L15.5402 12.1591L15.8128 24.4433C15.8316 25.2913 16.5355 25.9646 17.3847 25.9468C18.2338 25.9288 18.9066 25.2268 18.8878 24.3789L18.6152 12.0947L23.9979 11.982C24.847 11.9641 25.5205 11.262 25.5017 10.4141C25.4829 9.56613 24.7789 8.89294 23.9298 8.91058L10.0894 9.20028ZM34.3966 18.0215C33.5209 18.0399 32.825 18.6846 32.842 19.4618L32.8732 20.8697C32.8904 21.6471 33.6144 22.2627 34.4902 22.2444L36.0761 22.2112C36.9517 22.1927 37.6479 21.5474 37.6306 20.7701L37.5994 19.3622C37.5819 18.5851 36.8579 17.9702 35.9824 17.9883L34.3966 18.0215ZM30.2876 11.5946C29.4119 11.6129 28.716 12.2576 28.733 13.0348L28.7642 14.4427C28.7815 15.2201 29.5055 15.8358 30.3813 15.8174L31.9671 15.7842C32.8427 15.7657 33.5389 15.1204 33.5217 14.3432L33.4904 12.9353C33.473 12.1581 32.7489 11.5433 31.8734 11.5614L30.2876 11.5946ZM38.2167 11.4286C37.341 11.4469 36.645 12.0916 36.6621 12.8689L36.6933 14.2768C36.7106 15.0542 37.4345 15.6698 38.3104 15.6515L39.8962 15.6183C40.7719 15.5999 41.468 14.9545 41.4508 14.1772L41.4195 12.7693C41.4021 11.9921 40.6781 11.3772 39.8025 11.3954L38.2167 11.4286Z" fill="var(--fill-0, #017CBA)"/>
</svg>
