<svg preserveAspectRatio="none" width="100%" height="100%" overflow="visible" style="display: block;" viewBox="0 0 31.5 12" fill="none" xmlns="http://www.w3.org/2000/svg">
<g id="Vector">
<path d="M31.0569 0H4.2617C3.86834 0 3.59066 0.212738 3.46726 0.590939C2.60339 3.2935 0.883378 8.7065 0.027228 11.4169C-0.0730418 11.74 0.112072 12 0.443734 12C7.13868 12 27.2312 12 27.2312 12C27.6246 12 27.91 11.7873 28.0334 11.4091C28.8972 8.7065 30.6173 3.2935 31.4734 0.58306C31.5737 0.267892 31.3808 0 31.0569 0ZM11.5428 8.99803L10.4399 5.31057H10.4244L9.2212 8.99803H9.17492H8.13366H8.08738L6.88414 5.31057H6.86872L5.76575 8.99803H4.50081L6.40593 3.00197H7.29294L8.65044 7.27249H8.66586L10.0234 3.00197H10.9104L12.8155 8.99803H11.5428ZM18.878 8.99803H13.4094V3.00197H14.5818V7.80039H17.1194V3.00197H18.2918V7.80039H19.2636L18.878 8.99803ZM25.704 8.99803H19.495L19.8729 7.80039H20.49L22.0172 3.00197H25.1178V7.80039H26.0897L25.704 8.99803Z" fill="var(--fill-0, #E32C22)"/>
<path d="M21.7251 7.80039H23.9311V4.19961H22.805L21.7251 7.80039Z" fill="var(--fill-0, #E32C22)"/>
</g>
</svg>
