<svg preserveAspectRatio="none" width="100%" height="100%" overflow="visible" style="display: block;" viewBox="0 0 15.8333 11.6667" fill="none" xmlns="http://www.w3.org/2000/svg">
<g id="Vector">
<path d="M10.2046 10.0562C11.1234 9.14869 12.6099 9.14485 13.5337 10.0443L14.2756 10.7336C14.495 10.938 14.5049 11.2798 14.2983 11.4967C14.0913 11.7137 13.7454 11.7236 13.5257 11.5191L12.7852 10.8311L12.7732 10.8193C12.2771 10.3296 11.4731 10.3295 10.9771 10.8193C10.0544 11.7307 8.55887 11.7305 7.63599 10.8193C7.14 10.3294 6.33464 10.3294 5.83865 10.8193L5.1835 11.4993C4.97532 11.7151 4.62943 11.7233 4.41092 11.5178C4.19248 11.3121 4.18414 10.9705 4.39224 10.7547L5.05674 10.0654L5.06608 10.0562C5.98894 9.14466 7.4857 9.14466 8.40857 10.0562C8.90457 10.5458 9.70867 10.546 10.2046 10.0562Z" fill="var(--fill-0, #017CBA)"/>
<path d="M13.9402 8.11589H2.01786C2.2507 8.15891 2.4947 8.2887 2.72967 8.52079C3.65243 9.43187 5.14804 9.43183 6.07083 8.52079C6.56676 8.03094 7.37083 8.03104 7.86683 8.52079C8.78963 9.43226 10.2864 9.43213 11.2093 8.52079C11.4675 8.26583 11.8082 8.14266 12.1474 8.15308C12.4596 8.1627 12.7673 8.28566 13.0053 8.52079L13.7032 9.21007C13.9165 9.4204 14.2624 9.42049 14.4758 9.21007C14.6892 8.9993 14.6891 8.65653 14.4758 8.44567L14.0939 8.0692C14.0494 8.09907 13.9961 8.11589 13.9402 8.11589Z" fill="var(--fill-0, #017CBA)"/>
<path d="M0.922988 8.53133C1.19509 8.27685 1.44632 8.15627 1.66687 8.11589H0.27327C0.166218 8.11589 0.0448326 7.93452 0 7.84597C0 8.14557 0.00655403 8.36018 0.150412 8.51024C0.357987 8.7263 0.703955 8.73616 0.922988 8.53133Z" fill="var(--fill-0, #017CBA)"/>
<path fill-rule="evenodd" clip-rule="evenodd" d="M15.5597 4.43092H13.8608C13.7606 4.43092 13.6684 4.37678 13.6206 4.28983L11.3393 0.141091C11.2915 0.0541405 11.1994 0 11.0992 0H0.27327C0.122347 0 0 0.120845 0 0.269915V0.99531C0 1.14438 0.122347 1.26522 0.27327 1.26522H2.75832C2.90925 1.26522 3.03159 1.38607 3.03159 1.53514V3.78935C3.03159 3.93842 2.90925 4.05926 2.75832 4.05926H0.27327C0.122347 4.05926 0 4.18011 0 4.32918V7.84597C0.0448326 7.93452 0.166218 8.11589 0.27327 8.11589H1.66687C1.74145 8.10223 1.81252 8.09775 1.8797 8.10036C1.9252 8.10215 1.9713 8.10729 2.01786 8.11589H13.9402C13.9961 8.11589 14.0494 8.09907 14.0939 8.0692C14.1313 8.04407 14.1625 8.0097 14.1838 7.96833L15.8033 4.8232C15.8957 4.64363 15.7637 4.43092 15.5597 4.43092ZM4.3339 3.78935V1.53514C4.3339 1.38607 4.45625 1.26522 4.60717 1.26522H9.65696C9.76054 1.26522 9.85522 1.32307 9.90147 1.41461L11.0404 3.66882C11.1311 3.84828 10.999 4.05926 10.7959 4.05926H4.60717C4.45625 4.05926 4.3339 3.93842 4.3339 3.78935Z" fill="var(--fill-0, #017CBA)"/>
</g>
</svg>
