<svg width="375" height="102" viewBox="0 0 375 102" fill="none" xmlns="http://www.w3.org/2000/svg">
<rect width="375" height="102" fill="#6B6B6B"/>
<g id="&#208;&#161;&#208;&#190;&#209;&#134;&#208;&#184;&#208;&#176;&#208;&#187;&#208;&#186;&#208;&#176;">
<path d="M-1469 -5097C-1469 -5098.1 -1468.1 -5099 -1467 -5099H3289C3290.1 -5099 3291 -5098.1 3291 -5097V1041C3291 1042.1 3290.1 1043 3289 1043H-1467C-1468.1 1043 -1469 1042.1 -1469 1041V-5097Z" fill="#504850"/>
<path d="M-1467 -5099V-5098H3289V-5099V-5100H-1467V-5099ZM3291 -5097H3290V1041H3291H3292V-5097H3291ZM3289 1043V1042H-1467V1043V1044H3289V1043ZM-1469 1041H-1468V-5097H-1469H-1470V1041H-1469ZM-1467 1043V1042C-1467.55 1042 -1468 1041.55 -1468 1041H-1469H-1470C-1470 1042.66 -1468.66 1044 -1467 1044V1043ZM3291 1041H3290C3290 1041.55 3289.55 1042 3289 1042V1043V1044C3290.66 1044 3292 1042.66 3292 1041H3291ZM3289 -5099V-5098C3289.55 -5098 3290 -5097.55 3290 -5097H3291H3292C3292 -5098.66 3290.66 -5100 3289 -5100V-5099ZM-1467 -5099V-5100C-1468.66 -5100 -1470 -5098.66 -1470 -5097H-1469H-1468C-1468 -5097.55 -1467.55 -5098 -1467 -5098V-5099Z" fill="white" fill-opacity="0.1"/>
<g id="&#208;&#146;&#209;&#139;&#208;&#177;&#208;&#190;&#209;&#128; &#208;&#177;&#208;&#184;&#208;&#187;&#208;&#181;&#209;&#130;&#208;&#176;">
<rect width="375" height="812" transform="translate(0 -210)" fill="#F2F3F5"/>
<g id="Frame 1948758882">
<g id="Transport Selection">
<g id="Cards/NewPayments/CurrentTicket">
<g clip-path="url(#clip0_99761_63907)">
<path d="M0 24C0 10.7452 10.7452 0 24 0H351C364.255 0 375 10.7452 375 24V78C375 91.2548 364.255 102 351 102H24C10.7452 102 0 91.2548 0 78V24Z" fill="#FEFEFE"/>
<g id="Transport Title">
<path id="Caption" d="M19.435 26.115H22.45L20.95 22.065H20.92L19.435 26.115ZM18.025 30H16.105L20.185 19.5H21.775L25.855 30H23.86L22.99 27.63H18.88L18.025 30ZM31.0009 30H27.0559V22.53H30.7159C32.2909 22.53 33.1309 23.445 33.1159 24.495C33.1009 25.185 32.6659 25.725 32.1259 26.01V26.04C32.9509 26.31 33.4759 26.97 33.4759 27.78C33.4759 29.025 32.5909 30 31.0009 30ZM28.7659 25.56H30.3409C30.9259 25.56 31.3609 25.26 31.3609 24.705C31.3609 24.135 30.9259 23.88 30.3409 23.88H28.7659V25.56ZM28.7659 28.665H30.5959C31.2859 28.665 31.6909 28.35 31.6909 27.75C31.6909 27.18 31.2859 26.85 30.5809 26.85H28.7659V28.665ZM36.5219 30V23.97H34.2719V22.53H40.6619L40.1519 23.97H38.2469V30H36.5219ZM45.0323 30.18C42.9023 30.18 41.2823 28.545 41.2823 26.265C41.2823 23.97 42.9023 22.35 45.0323 22.35C47.1623 22.35 48.7973 23.97 48.7973 26.265C48.7973 28.545 47.1623 30.18 45.0323 30.18ZM45.0323 28.65C46.2323 28.65 47.0423 27.63 47.0423 26.265C47.0423 24.885 46.2323 23.88 45.0323 23.88C43.8323 23.88 43.0373 24.885 43.0373 26.265C43.0373 27.63 43.8323 28.65 45.0323 28.65ZM54.0638 30.18C51.7838 30.18 50.1788 28.485 50.1788 25.605V25.32C50.1788 22.02 51.2288 19.38 54.9638 19.23C55.9688 19.185 56.7338 19.065 57.1538 18.84V20.34C56.7638 20.58 55.9388 20.685 54.8138 20.73C52.9838 20.805 52.0538 21.645 51.7988 23.79H51.8288C52.2638 23.205 53.1788 22.65 54.2738 22.65C56.2688 22.65 57.8138 24.105 57.8138 26.37C57.8138 28.59 56.1788 30.18 54.0638 30.18ZM54.0188 28.695C55.1738 28.695 56.0738 27.72 56.0738 26.4C56.0738 25.095 55.1738 24.105 54.0188 24.105C52.8788 24.105 51.9788 25.095 51.9788 26.4C51.9788 27.72 52.8788 28.695 54.0188 28.695ZM60.2522 32.955C59.5322 32.955 58.8572 32.715 58.3622 32.295L59.4722 31.17C59.6822 31.32 59.9222 31.425 60.2222 31.425C60.8372 31.425 61.2872 31.035 61.5722 30.045L58.5272 22.53H60.4622L62.4572 27.78H62.4872L64.2422 22.53H66.0872L63.2672 30.285C62.6972 31.89 61.7972 32.955 60.2522 32.955ZM70.5195 30.18C68.3895 30.18 66.8295 28.545 66.8295 26.265C66.8295 23.97 68.3895 22.35 70.5195 22.35C71.5995 22.35 72.5595 22.725 73.2195 23.4L72.1395 24.465C71.7945 24.135 71.2845 23.85 70.5795 23.85C69.3795 23.85 68.5695 24.885 68.5695 26.265C68.5695 27.645 69.3795 28.68 70.5795 28.68C71.2845 28.68 71.7945 28.395 72.1395 28.065L73.2195 29.13C72.5595 29.805 71.5995 30.18 70.5195 30.18ZM74.678 22.53H76.388V25.02H77.993C79.868 25.02 80.798 26.205 80.798 27.51C80.798 28.815 79.868 30 77.993 30H74.678V22.53ZM81.533 30V22.53H83.243V30H81.533ZM76.388 28.59H77.723C78.578 28.59 79.013 28.05 79.013 27.51C79.013 26.97 78.578 26.43 77.723 26.43H76.388V28.59ZM89.0042 30V22.53H90.7142V27.315H90.7442L94.0442 22.53H95.5292V30H93.8192V25.215H93.7892L90.5042 30H89.0042ZM102.674 30V23.97H100.424V22.53H106.814L106.304 23.97H104.399V30H102.674ZM109.595 26.265C109.595 27.645 110.45 28.665 111.665 28.665C112.88 28.665 113.72 27.645 113.72 26.265C113.72 24.885 112.88 23.865 111.665 23.865C110.45 23.865 109.595 24.885 109.595 26.265ZM109.655 28.95V32.775H107.945V22.53H109.655V23.58H109.685C110.075 22.92 110.93 22.35 112.025 22.35C114.005 22.35 115.49 23.985 115.49 26.265C115.49 28.545 114.005 30.18 112.025 30.18C110.93 30.18 110.075 29.61 109.685 28.95H109.655ZM119.663 28.785C120.638 28.785 121.358 28.065 121.358 27.045V26.7C120.953 26.625 120.488 26.595 120.158 26.595C118.973 26.595 118.373 27.03 118.373 27.72C118.373 28.245 118.808 28.785 119.663 28.785ZM119.258 30.18C117.743 30.18 116.633 29.115 116.633 27.735C116.633 26.52 117.563 25.29 119.918 25.29C120.308 25.29 120.878 25.335 121.358 25.41V25.17C121.358 24.345 120.803 23.865 119.888 23.865C119.138 23.865 118.448 24.18 118.028 24.495L116.933 23.4C117.698 22.74 118.853 22.35 119.948 22.35C121.883 22.35 123.068 23.385 123.068 25.23V30H121.403V29.235H121.373C120.938 29.835 120.203 30.18 119.258 30.18ZM124.451 30L126.296 22.53H127.661L129.596 27.495H129.626L131.636 22.53H132.971L134.816 30H133.031L132.026 25.425H131.996L130.151 30H128.996L127.181 25.425H127.151L126.161 30H124.451ZM140.234 30H136.289V22.53H139.949C141.524 22.53 142.364 23.445 142.349 24.495C142.334 25.185 141.899 25.725 141.359 26.01V26.04C142.184 26.31 142.709 26.97 142.709 27.78C142.709 29.025 141.824 30 140.234 30ZM137.999 25.56H139.574C140.159 25.56 140.594 25.26 140.594 24.705C140.594 24.135 140.159 23.88 139.574 23.88H137.999V25.56ZM137.999 28.665H139.829C140.519 28.665 140.924 28.35 140.924 27.75C140.924 27.18 140.519 26.85 139.814 26.85H137.999V28.665ZM146.85 28.785C147.825 28.785 148.545 28.065 148.545 27.045V26.7C148.14 26.625 147.675 26.595 147.345 26.595C146.16 26.595 145.56 27.03 145.56 27.72C145.56 28.245 145.995 28.785 146.85 28.785ZM146.445 30.18C144.93 30.18 143.82 29.115 143.82 27.735C143.82 26.52 144.75 25.29 147.105 25.29C147.495 25.29 148.065 25.335 148.545 25.41V25.17C148.545 24.345 147.99 23.865 147.075 23.865C146.325 23.865 145.635 24.18 145.215 24.495L144.12 23.4C144.885 22.74 146.04 22.35 147.135 22.35C149.07 22.35 150.255 23.385 150.255 25.23V30H148.59V29.235H148.56C148.125 29.835 147.39 30.18 146.445 30.18ZM152.359 30V22.53H154.069V27.315H154.099L157.399 22.53H158.884V30H157.174V25.215H157.144L153.859 30H152.359Z" fill="#333333"/>
<g id="Icons/Actions//Down">
<path id="Vector 199" d="M355.633 23.6484L350.997 28.3505L346.367 23.6485" stroke="#7F858D" stroke-width="1.5" stroke-linecap="round" stroke-linejoin="round"/>
</g>
</g>
<g id="Card Subtitle">
<path id="Card Duration" d="M21.222 50.442C23.224 50.442 24.316 51.66 24.316 53.2C24.316 54.74 23.224 56 21.222 56H17.4V46.2H23.546L23.168 47.25H18.562V50.442H21.222ZM23.14 53.2C23.14 52.136 22.356 51.492 21.152 51.492H18.562V54.95H21.152C22.356 54.95 23.14 54.264 23.14 53.2ZM25.9654 56V49.154H27.0294V54.32H27.0574L30.5434 49.154H31.5514V56H30.4874V50.848H30.4594L26.9734 56H25.9654ZM33.4783 56.14C33.2543 56.14 32.9463 56.056 32.8763 56.028V55.062C32.9043 55.076 33.0863 55.132 33.3383 55.132C33.9123 55.132 34.1223 54.656 34.2763 52.808C34.4163 51.212 34.5283 49.154 34.5283 49.154H39.4423V56H38.3503V50.022H35.5083C35.4663 50.75 35.3963 51.94 35.3123 53.13C35.1723 55.174 34.5843 56.14 33.4783 56.14ZM44.6567 56.168C42.7247 56.168 41.1987 54.712 41.1987 52.598C41.1987 50.442 42.7247 48.986 44.5307 48.986C46.1967 48.986 47.7647 50.204 47.7647 52.85V52.92H42.3047C42.4587 54.306 43.4807 55.174 44.7407 55.174C45.3287 55.174 46.0007 55.006 46.6307 54.502L47.3167 55.202C46.6727 55.804 45.6927 56.168 44.6567 56.168ZM42.3327 52.024H46.5747C46.5047 50.876 45.6787 49.966 44.5307 49.966C43.2847 49.966 42.4587 50.932 42.3327 52.024ZM50.6339 56V50.022H48.3659V49.154H54.1759L53.8679 50.022H51.7259V56H50.6339ZM61.8836 56V49.154H62.9756V56H61.8836ZM55.3736 49.154H56.4656V51.8H58.3136C59.5176 51.8 60.6516 52.472 60.6376 53.9C60.6236 55.328 59.5176 56 58.3136 56H55.3736V49.154ZM56.4656 55.09H58.0896C58.8176 55.09 59.4756 54.754 59.4756 53.9C59.4756 53.046 58.8176 52.71 58.0896 52.71H56.4656V55.09ZM72.384 56L71.068 53.27L72.384 50.526H73.462L72.202 53.27L73.462 56H72.384ZM69.682 56L68.366 53.27L69.682 50.526H70.76L69.514 53.27L70.76 56H69.682ZM76.7341 56V47.25H73.3041V46.2H81.3821L81.0181 47.25H77.8961V56H76.7341ZM81.9729 56H80.7549L84.6609 46.2H85.6829L89.5609 56H88.2729L87.2369 53.228H83.0229L81.9729 56ZM83.3869 52.248H86.8589L85.1509 47.782H85.1229L83.3869 52.248ZM92.4567 56V47.25H89.0267V46.2H97.1047L96.7407 47.25H93.6187V56H92.4567ZM99.5895 56L100.85 53.27L99.5895 50.526H100.668L101.984 53.27L100.668 56H99.5895ZM96.8875 56L98.1335 53.27L96.8875 50.526H97.9655L99.2815 53.27L97.9655 56H96.8875Z" fill="#333333"/>
<g id="transport types">
<g id="Icons/Main/Transport/RouteBus">
<g id="Subtract">
<path fill-rule="evenodd" clip-rule="evenodd" d="M27.1143 79.7228C28.7454 79.7228 30.0677 81.016 30.0677 82.6111C30.0677 82.8762 30.0312 83.133 29.9628 83.3769C29.6196 84.6004 28.4743 85.4993 27.1143 85.4993C25.7543 85.4993 24.609 84.6004 24.2658 83.3769C24.1974 83.133 24.1609 82.8762 24.1609 82.6111C24.1609 81.016 25.4832 79.7228 27.1143 79.7228ZM27.1143 80.9008C26.1484 80.9008 25.3654 81.6665 25.3654 82.6111C25.3654 83.5557 26.1484 84.3214 27.1143 84.3214C28.0802 84.3214 28.8632 83.5557 28.8632 82.6111C28.8632 81.6665 28.0802 80.9008 27.1143 80.9008Z" fill="#017CBA"/>
<path fill-rule="evenodd" clip-rule="evenodd" d="M27.1143 79.7228C28.7454 79.7228 30.0677 81.016 30.0677 82.6111C30.0677 82.8762 30.0312 83.133 29.9628 83.3769C31.3611 83.3769 32.6218 82.4878 32.6366 81.4444C32.6598 79.8133 32.6922 77.0093 32.6366 74.9071C32.581 72.8049 29.8052 72.2038 28.8632 72.166H19.3338V74.3659H25.5996C25.7782 74.3659 25.9231 74.5107 25.9231 74.6894V77.7229C25.9231 77.9016 25.7782 78.0464 25.5996 78.0464H19.3338V83.3769H24.2658C24.1974 83.133 24.1609 82.8762 24.1609 82.6111C24.1609 81.016 25.4832 79.7228 27.1143 79.7228ZM30.9103 78.9913C30.9103 79.2214 30.677 79.3779 30.4641 79.2907L27.6279 78.1287C27.5064 78.0789 27.427 77.9606 27.427 77.8293V74.6894C27.427 74.5107 27.5719 74.3659 27.7505 74.3659H30.5868C30.7654 74.3659 30.9103 74.5107 30.9103 74.6894V78.9913Z" fill="#017CBA"/>
</g>
</g>
<g id="Icons/Main/Transport/RouteElectroBus">
<g id="Vector">
<path fill-rule="evenodd" clip-rule="evenodd" d="M49.1125 78.8908C50.7437 78.8908 52.0659 80.1839 52.0659 81.7791C52.0659 82.0442 52.0294 82.301 51.961 82.5448C51.6179 83.7683 50.4726 84.6673 49.1125 84.6673C47.7525 84.6673 46.6072 83.7683 46.2641 82.5448C46.1957 82.301 46.1591 82.0442 46.1591 81.7791C46.1591 80.1839 47.4814 78.8908 49.1125 78.8908ZM49.1125 80.0687C48.1466 80.0687 47.3636 80.8345 47.3636 81.7791C47.3636 82.7237 48.1466 83.4894 49.1125 83.4894C50.0784 83.4894 50.8615 82.7237 50.8615 81.7791C50.8615 80.8345 50.0784 80.0687 49.1125 80.0687Z" fill="#017CBA"/>
<path fill-rule="evenodd" clip-rule="evenodd" d="M49.1125 78.8908C50.7437 78.8908 52.0659 80.1839 52.0659 81.7791C52.0659 82.0442 52.0294 82.301 51.961 82.5448C53.3594 82.5448 54.6201 81.6558 54.6349 80.6123C54.658 78.9813 54.6905 76.1772 54.6349 74.0751C54.5793 71.9729 51.8035 71.3718 50.8615 71.334H45.4991V73.2642C45.4991 73.4131 45.6198 73.5338 45.7687 73.5338H47.9214V76.9448C47.9214 77.0937 47.8006 77.2144 47.6517 77.2144H41.332V82.5448H46.2641C46.1957 82.301 46.1591 82.0442 46.1591 81.7791C46.1591 80.1839 47.4814 78.8908 49.1125 78.8908ZM52.9086 78.2397C52.9086 78.4314 52.7141 78.5618 52.5367 78.4892L49.5927 77.283C49.4914 77.2415 49.4253 77.1429 49.4253 77.0335V73.8035C49.4253 73.6546 49.546 73.5338 49.6949 73.5338H52.6389C52.7879 73.5338 52.9086 73.6546 52.9086 73.8035V78.2397Z" fill="#017CBA"/>
<path fill-rule="evenodd" clip-rule="evenodd" d="M42.741 71.3628C43.0135 71.4577 43.1585 71.7585 43.0648 72.0346L42.585 73.4485H43.3105C43.4844 73.4485 43.6469 73.5363 43.7437 73.6826C43.8406 73.8289 43.8592 74.0145 43.7933 74.1775L43.0542 76.0056C42.945 76.2758 42.6402 76.4051 42.3736 76.2944C42.107 76.1837 41.9794 75.875 42.0886 75.6049L42.533 74.5058H41.854C41.6854 74.5058 41.5272 74.4232 41.4293 74.2842C41.3314 74.1452 41.3058 73.9668 41.3606 73.8053L42.078 71.6909C42.1716 71.4148 42.4685 71.2679 42.741 71.3628Z" fill="#017CBA"/>
<path d="M45.7687 73.5338C45.6198 73.5338 45.4991 73.4131 45.4991 73.2642V73.5338H45.7687Z" fill="#017CBA"/>
</g>
</g>
<g id="Icons/Main/Transport/RouteTram/">
<g id="Subtract_2">
<path fill-rule="evenodd" clip-rule="evenodd" d="M68.9568 73.8839C74.3241 73.7558 76.3753 77.9226 76.4768 80.603C76.4768 81.4247 75.8504 82.091 75.0777 82.091H64.4148C64.2774 82.091 64.166 81.9796 64.166 81.8422V79.871C64.166 79.7336 64.2774 79.6222 64.4148 79.6222H66.3153C66.6123 79.6222 66.853 79.3662 66.853 79.0504V76.3294C66.853 76.0136 66.6123 75.7576 66.3153 75.7576H64.166V73.8839H66.2049H68.1961H68.9568ZM68.1961 76.3294C68.1961 76.0136 68.4368 75.7576 68.7338 75.7576H70.8736C72.5938 75.7576 73.9883 77.2407 73.9883 79.0702C73.9883 79.3751 73.7559 79.6222 73.4692 79.6222H68.7338C68.4368 79.6222 68.1961 79.3662 68.1961 79.0504V76.3294Z" fill="#017CBA"/>
<path d="M64.166 73.8839H66.2049L68.5752 71.7057H66.3706L64.166 73.8839Z" fill="#017CBA"/>
<path d="M72.9843 70.7488C72.9843 70.6114 72.8729 70.5 72.7356 70.5H64.4148C64.2774 70.5 64.166 70.6114 64.166 70.7488V71.457C64.166 71.5944 64.2774 71.7057 64.4148 71.7057H66.3706H68.5752H72.7356C72.8729 71.7057 72.9843 71.5944 72.9843 71.457V70.7488Z" fill="#017CBA"/>
<path d="M64.166 83.4042H76.666V84.6667H64.166V83.4042Z" fill="#017CBA"/>
</g>
</g>
</g>
</g>
<path id="Subtract_3" fill-rule="evenodd" clip-rule="evenodd" d="M374.38 63.6664C377.972 64.8895 380.007 68.4668 378.926 71.6565L367.176 106.311C366.095 109.501 362.306 111.095 358.714 109.873L302.346 90.6823C298.753 89.4594 296.718 85.8821 297.8 82.6923L309.549 48.0376C310.631 44.8478 314.42 43.2532 318.012 44.4761L374.38 63.6664ZM321.255 58.4653C320.094 58.0703 318.835 58.6905 318.442 59.8504C318.049 61.0101 318.67 62.2709 319.831 62.6663L327.19 65.1715L321.493 81.9732C321.1 83.1331 321.722 84.3942 322.883 84.7894C324.044 85.1843 325.304 84.5641 325.697 83.4044L331.394 66.6027L338.752 69.108C339.913 69.503 341.174 68.883 341.567 67.7233C341.96 66.5635 341.338 65.3025 340.177 64.907L321.255 58.4653ZM349.879 82.4375C348.682 82.03 347.419 82.561 347.058 83.6239L346.405 85.5496C346.045 86.6129 346.723 87.8057 347.92 88.2133L350.088 88.9514C351.286 89.3587 352.549 88.827 352.909 87.7638L353.562 85.8382C353.922 84.7752 353.243 83.5834 352.047 83.1756L349.879 82.4375ZM347.477 71.6884C346.28 71.2808 345.018 71.8118 344.657 72.8748L344.004 74.8004C343.644 75.8637 344.322 77.0565 345.519 77.4641L347.687 78.2022C348.884 78.6095 350.148 78.0778 350.508 77.0147L351.161 75.089C351.521 74.026 350.842 72.8342 349.646 72.4265L347.477 71.6884ZM358.318 75.3788C357.12 74.9712 355.858 75.5023 355.497 76.5652L354.844 78.4909C354.484 79.5541 355.162 80.7469 356.359 81.1546L358.527 81.8927C359.725 82.3002 360.988 81.7683 361.348 80.7051L362.001 78.7795C362.361 77.7164 361.683 76.5245 360.486 76.1169L358.318 75.3788Z" fill="#017CBA"/>
</g>
</g>
</g>
</g>
</g>
</g>
<defs>
<clipPath id="clip0_99761_63907">
<path d="M0 24C0 10.7452 10.7452 0 24 0H351C364.255 0 375 10.7452 375 24V78C375 91.2548 364.255 102 351 102H24C10.7452 102 0 91.2548 0 78V24Z" fill="white"/>
</clipPath>
</defs>
</svg>
