<svg width="168" height="144" viewBox="0 0 168 144" fill="none" xmlns="http://www.w3.org/2000/svg">
<rect width="168" height="144" fill="#6B6B6B"/>
<g id="&#208;&#162;&#209;&#128;&#208;&#190;&#208;&#185;&#208;&#186;&#208;&#176;">
<path d="M-487 -3449C-487 -3450.1 -486.105 -3451 -485 -3451H4271C4272.1 -3451 4273 -3450.1 4273 -3449V4378C4273 4379.1 4272.1 4380 4271 4380H-485C-486.105 4380 -487 4379.1 -487 4378V-3449Z" fill="#344147"/>
<path d="M-485 -3451V-3450H4271V-3451V-3452H-485V-3451ZM4273 -3449H4272V4378H4273H4274V-3449H4273ZM4271 4380V4379H-485V4380V4381H4271V4380ZM-487 4378H-486V-3449H-487H-488V4378H-487ZM-485 4380V4379C-485.552 4379 -486 4378.55 -486 4378H-487H-488C-488 4379.66 -486.657 4381 -485 4381V4380ZM4273 4378H4272C4272 4378.55 4271.55 4379 4271 4379V4380V4381C4272.66 4381 4274 4379.66 4274 4378H4273ZM4271 -3451V-3450C4271.55 -3450 4272 -3449.55 4272 -3449H4273H4274C4274 -3450.66 4272.66 -3452 4271 -3452V-3451ZM-485 -3451V-3452C-486.657 -3452 -488 -3450.66 -488 -3449H-487H-486C-486 -3449.55 -485.552 -3450 -485 -3450V-3451Z" fill="white" fill-opacity="0.1"/>
<g id="&#208;&#146;&#208;&#184;&#208;&#180; &#208;&#177;&#208;&#184;&#208;&#187;&#208;&#181;&#209;&#130;&#208;&#176;">
<rect width="375" height="812" transform="translate(-16 -258)" fill="#F2F3F5"/>
<g id="Transport Options">
<path d="M-16 -24C-16 -37.2548 -5.25483 -48 8 -48H335C348.255 -48 359 -37.2548 359 -24V136C359 149.255 348.255 160 335 160H8C-5.25483 160 -16 149.255 -16 136V-24Z" fill="#FEFEFE"/>
<g id="Content">
<g id="Cards/NewPayments/Types">
<g clip-path="url(#clip0_99761_63907)">
<rect width="167.5" height="144" rx="16" fill="#F7F7F7"/>
<g id="Transport Card">
<path id="Caption" d="M17.615 30V18.1H21.661C23.922 18.1 25.129 19.63 25.129 21.075C25.129 22.078 24.602 22.962 23.871 23.387V23.421C25.265 23.829 26.302 24.934 26.302 26.566C26.302 28.402 24.772 30 22.375 30H17.615ZM19.366 23.081H21.389C22.46 23.081 23.327 22.435 23.327 21.347C23.327 20.259 22.46 19.613 21.389 19.613H19.366V23.081ZM19.366 28.504H22.154C23.497 28.504 24.449 27.705 24.449 26.515C24.449 25.308 23.497 24.509 22.154 24.509H19.366V28.504ZM31.9024 30.204C29.5564 30.204 27.7544 28.368 27.7544 25.801C27.7544 23.234 29.5564 21.398 31.9024 21.398C33.2114 21.398 34.2144 21.925 34.8604 22.571L33.8234 23.608C33.4324 23.251 32.8204 22.86 31.9364 22.86C30.4404 22.86 29.4204 24.135 29.4204 25.801C29.4204 27.484 30.4404 28.759 31.9364 28.759C32.8204 28.759 33.4324 28.368 33.8234 27.994L34.8604 29.031C34.2144 29.677 33.2114 30.204 31.9024 30.204ZM40.3048 30.204C37.9928 30.204 36.0548 28.487 36.0548 25.818C36.0548 23.2 37.8738 21.398 40.1008 21.398C42.2768 21.398 44.1468 22.877 44.1468 26.107V26.345H37.7888C37.9758 27.858 39.1318 28.708 40.4578 28.708C41.1888 28.708 41.9368 28.453 42.5998 27.892L43.6538 28.946C42.8038 29.762 41.6138 30.204 40.3048 30.204ZM37.8058 25.087H42.3618C42.2768 23.948 41.4098 22.877 40.1518 22.877C38.8258 22.877 37.9588 23.897 37.8058 25.087ZM54.5977 30H50.2627V21.602H54.3427C55.9067 21.602 56.8927 22.571 56.8927 23.744C56.8927 24.526 56.4507 25.189 55.7537 25.529V25.563C56.6717 25.835 57.3007 26.668 57.3007 27.535C57.3007 28.98 56.1957 30 54.5977 30ZM51.9287 24.985H54.1047C54.7167 24.985 55.2097 24.594 55.2097 23.948C55.2097 23.302 54.7167 22.928 54.1047 22.928H51.9287V24.985ZM51.9287 28.674H54.1897C54.9547 28.674 55.5667 28.266 55.5667 27.501C55.5667 26.736 54.9547 26.328 54.1897 26.328H51.9287V28.674ZM59.294 30V21.602H60.96V27.348H60.994L64.904 21.602H66.417V30H64.751V24.271H64.717L60.807 30H59.294ZM70.4169 28.589V28.623H73.9359V22.979H71.4539C71.3859 23.744 71.3009 24.9 71.1479 26.107C71.0289 27.144 70.7909 27.977 70.4169 28.589ZM67.9689 31.938V28.623H68.5809C69.1589 28.232 69.4309 27.246 69.6009 25.903C69.9409 23.336 70.0259 21.602 70.0259 21.602H75.6019V28.623H76.7069V31.938H75.1939V30H69.4819V31.938H67.9689ZM78.6348 21.602H80.3008V24.356H82.1708C84.0068 24.356 85.3498 25.376 85.3328 27.178C85.3498 28.98 84.0068 30 82.1708 30H78.6348V21.602ZM86.3868 30V21.602H88.0528V30H86.3868ZM80.3008 28.674H81.8308C82.7488 28.674 83.5988 28.266 83.5988 27.178C83.5988 26.09 82.7488 25.682 81.8308 25.682H80.3008V28.674ZM18.822 50V42.979H16.255V41.602H23.259L22.766 42.979H20.488V50H18.822ZM26.2283 45.784C26.2283 47.467 27.2653 48.725 28.7613 48.725C30.2573 48.725 31.2943 47.467 31.2943 45.784C31.2943 44.101 30.2573 42.877 28.7613 42.877C27.2653 42.877 26.2283 44.101 26.2283 45.784ZM26.2793 48.725V53.145H24.6133V41.602H26.2793V42.877H26.3133C26.8403 42.044 27.8263 41.398 29.0673 41.398C31.3113 41.398 32.9943 43.234 32.9943 45.801C32.9943 48.368 31.3113 50.204 29.0673 50.204C27.8263 50.204 26.8403 49.558 26.3133 48.725H26.2793ZM37.6575 48.81C38.7965 48.81 39.7825 47.994 39.7825 46.617V46.192C39.2895 46.124 38.6945 46.073 38.3035 46.073C36.8415 46.073 36.0595 46.617 36.0595 47.484C36.0595 48.164 36.6205 48.81 37.6575 48.81ZM37.3175 50.204C35.6005 50.204 34.3765 49.014 34.3765 47.484C34.3765 46.09 35.4135 44.747 38.0655 44.747C38.5415 44.747 39.2045 44.815 39.7825 44.9V44.492C39.7825 43.455 39.0345 42.86 37.9975 42.86C36.9945 42.86 36.2295 43.268 35.7705 43.591L34.7165 42.537C35.5325 41.857 36.7565 41.398 38.0485 41.398C40.1735 41.398 41.4485 42.537 41.4485 44.492V50H39.8165V49.082H39.7825C39.2725 49.762 38.3885 50.204 37.3175 50.204ZM43.9375 50V41.602H45.6035V44.951H49.2245V41.602H50.8905V50H49.2245V46.328H45.6035V50H43.9375ZM57.0538 50.204C54.7078 50.204 52.9058 48.368 52.9058 45.801C52.9058 43.234 54.7078 41.398 57.0538 41.398C58.3628 41.398 59.3658 41.925 60.0118 42.571L58.9748 43.608C58.5838 43.251 57.9718 42.86 57.0878 42.86C55.5918 42.86 54.5718 44.135 54.5718 45.801C54.5718 47.484 55.5918 48.759 57.0878 48.759C57.9718 48.759 58.5838 48.368 58.9748 47.994L60.0118 49.031C59.3658 49.677 58.3628 50.204 57.0538 50.204ZM61.7842 50V41.602H68.7372V50H67.0712V42.979H63.4502V50H61.7842ZM74.9175 50.204C72.5885 50.204 70.7355 48.368 70.7355 45.801C70.7355 43.234 72.5885 41.398 74.9175 41.398C77.2465 41.398 79.0995 43.234 79.0995 45.801C79.0995 48.368 77.2465 50.204 74.9175 50.204ZM74.9175 48.725C76.3965 48.725 77.4165 47.501 77.4165 45.801C77.4165 44.118 76.3965 42.877 74.9175 42.877C73.4385 42.877 72.4185 44.118 72.4185 45.801C72.4185 47.501 73.4385 48.725 74.9175 48.725ZM82.7234 45.784C82.7234 47.467 83.7604 48.725 85.2564 48.725C86.7524 48.725 87.7894 47.467 87.7894 45.784C87.7894 44.101 86.7524 42.877 85.2564 42.877C83.7604 42.877 82.7234 44.101 82.7234 45.784ZM82.7744 48.725V53.145H81.1084V41.602H82.7744V42.877H82.8084C83.3354 42.044 84.3214 41.398 85.5624 41.398C87.8064 41.398 89.4894 43.234 89.4894 45.801C89.4894 48.368 87.8064 50.204 85.5624 50.204C84.3214 50.204 83.3354 49.558 82.8084 48.725H82.7744ZM93.0476 50V42.979H90.4806V41.602H97.4846L96.9916 42.979H94.7136V50H93.0476ZM101.474 48.81C102.613 48.81 103.599 47.994 103.599 46.617V46.192C103.106 46.124 102.511 46.073 102.12 46.073C100.658 46.073 99.8759 46.617 99.8759 47.484C99.8759 48.164 100.437 48.81 101.474 48.81ZM101.134 50.204C99.4169 50.204 98.1929 49.014 98.1929 47.484C98.1929 46.09 99.2299 44.747 101.882 44.747C102.358 44.747 103.021 44.815 103.599 44.9V44.492C103.599 43.455 102.851 42.86 101.814 42.86C100.811 42.86 100.046 43.268 99.5869 43.591L98.5329 42.537C99.3489 41.857 100.573 41.398 101.865 41.398C103.99 41.398 105.265 42.537 105.265 44.492V50H103.633V49.082H103.599C103.089 49.762 102.205 50.204 101.134 50.204Z" fill="#333333"/>
<g id="Card Subtitle">
<path id="Card Duration" d="M21.222 68.442C23.224 68.442 24.316 69.66 24.316 71.2C24.316 72.74 23.224 74 21.222 74H17.4V64.2H23.546L23.168 65.25H18.562V68.442H21.222ZM23.14 71.2C23.14 70.136 22.356 69.492 21.152 69.492H18.562V72.95H21.152C22.356 72.95 23.14 72.264 23.14 71.2ZM25.9654 74V67.154H27.0294V72.32H27.0574L30.5434 67.154H31.5514V74H30.4874V68.848H30.4594L26.9734 74H25.9654ZM33.4783 74.14C33.2543 74.14 32.9463 74.056 32.8763 74.028V73.062C32.9043 73.076 33.0863 73.132 33.3383 73.132C33.9123 73.132 34.1223 72.656 34.2763 70.808C34.4163 69.212 34.5283 67.154 34.5283 67.154H39.4423V74H38.3503V68.022H35.5083C35.4663 68.75 35.3963 69.94 35.3123 71.13C35.1723 73.174 34.5843 74.14 33.4783 74.14ZM44.6567 74.168C42.7247 74.168 41.1987 72.712 41.1987 70.598C41.1987 68.442 42.7247 66.986 44.5307 66.986C46.1967 66.986 47.7647 68.204 47.7647 70.85V70.92H42.3047C42.4587 72.306 43.4807 73.174 44.7407 73.174C45.3287 73.174 46.0007 73.006 46.6307 72.502L47.3167 73.202C46.6727 73.804 45.6927 74.168 44.6567 74.168ZM42.3327 70.024H46.5747C46.5047 68.876 45.6787 67.966 44.5307 67.966C43.2847 67.966 42.4587 68.932 42.3327 70.024ZM50.6339 74V68.022H48.3659V67.154H54.1759L53.8679 68.022H51.7259V74H50.6339ZM61.8836 74V67.154H62.9756V74H61.8836ZM55.3736 67.154H56.4656V69.8H58.3136C59.5176 69.8 60.6516 70.472 60.6376 71.9C60.6236 73.328 59.5176 74 58.3136 74H55.3736V67.154ZM56.4656 73.09H58.0896C58.8176 73.09 59.4756 72.754 59.4756 71.9C59.4756 71.046 58.8176 70.71 58.0896 70.71H56.4656V73.09ZM72.384 74L71.068 71.27L72.384 68.526H73.462L72.202 71.27L73.462 74H72.384ZM69.682 74L68.366 71.27L69.682 68.526H70.76L69.514 71.27L70.76 74H69.682ZM75.6285 74V64.2H81.7185L81.3405 65.25H76.7905V68.456H79.8985V69.506H76.7905V72.95H81.9285V74H75.6285ZM82.628 75.47V73.132H83.174C83.622 72.712 83.888 71.774 84.084 70.57C84.28 69.366 84.42 67.154 84.42 67.154H88.76V73.132H89.488V75.47H88.508V74H83.608V75.47H82.628ZM84.35 73.104V73.132H87.668V68.022H85.372C85.316 68.624 85.246 69.604 85.078 70.794C84.924 71.844 84.658 72.586 84.35 73.104ZM91.2076 74V67.154H92.2716V72.32H92.2996L95.7856 67.154H96.7936V74H95.7296V68.848H95.7016L92.2156 74H91.2076ZM99.0005 74V67.154H100.093V69.94H103.355V67.154H104.447V74H103.355V70.85H100.093V74H99.0005ZM113.167 74V67.154H114.259V74H113.167ZM106.657 67.154H107.749V69.8H109.597C110.801 69.8 111.935 70.472 111.921 71.9C111.907 73.328 110.801 74 109.597 74H106.657V67.154ZM107.749 73.09H109.373C110.101 73.09 110.759 72.754 110.759 71.9C110.759 71.046 110.101 70.71 109.373 70.71H107.749V73.09ZM119.343 66.188C118.153 66.188 117.369 65.558 117.103 65.222L117.775 64.564C118.055 64.802 118.559 65.18 119.357 65.18C120.155 65.18 120.631 64.802 120.897 64.564L121.597 65.222C121.303 65.558 120.519 66.188 119.343 66.188ZM116.473 74V67.154H117.537V72.32H117.565L121.051 67.154H122.059V74H120.995V68.848H120.967L117.481 74H116.473ZM126.646 74L127.906 71.27L126.646 68.526H127.724L129.04 71.27L127.724 74H126.646ZM123.944 74L125.19 71.27L123.944 68.526H125.022L126.338 71.27L125.022 74H123.944Z" fill="#333333"/>
</g>
</g>
<g id="transport types">
<g id="Icons / transport labels">
<path id="Shape" d="M34.3337 101.71H28.9025V100.314H29.8146L28.6952 97.1506L26.0003 101.834L23.3055 97.1506L22.1861 100.314H23.0982V101.71H17.667V100.314H18.7035L22.6007 90.167L26.0003 96.4111L29.4 90.167L33.2972 100.314H34.3337V101.71Z" fill="#E32C22"/>
</g>
<g id="Icons / transport labels_2">
<g id="Vector">
<path d="M72.0569 90H45.2617C44.8683 90 44.5907 90.2127 44.4673 90.5909C43.6034 93.2935 41.8834 98.7065 41.0272 101.417C40.927 101.74 41.1121 102 41.4437 102C48.1387 102 68.2312 102 68.2312 102C68.6246 102 68.91 101.787 69.0334 101.409C69.8972 98.7065 71.6173 93.2935 72.4734 90.5831C72.5737 90.2679 72.3808 90 72.0569 90ZM52.5428 98.998L51.4399 95.3106H51.4244L50.2212 98.998H50.1749H49.1337H49.0874L47.8841 95.3106H47.8687L46.7657 98.998H45.5008L47.4059 93.002H48.2929L49.6504 97.2725H49.6659L51.0234 93.002H51.9104L53.8155 98.998H52.5428ZM59.878 98.998H54.4094V93.002H55.5818V97.8004H58.1194V93.002H59.2918V97.8004H60.2636L59.878 98.998ZM66.704 98.998H60.495L60.8729 97.8004H61.49L63.0172 93.002H66.1178V97.8004H67.0897L66.704 98.998Z" fill="#E32C22"/>
<path d="M62.7251 97.8004H64.9311V94.1996H63.805L62.7251 97.8004Z" fill="#E32C22"/>
</g>
</g>
<g id="Icons/Main/Transport/RouteBus">
<g id="Subtract">
<path fill-rule="evenodd" clip-rule="evenodd" d="M88.6133 97.7238C90.2444 97.7238 91.5667 99.0169 91.5667 100.612C91.5667 100.877 91.5302 101.134 91.4618 101.378C91.1186 102.601 89.9733 103.5 88.6133 103.5C87.2533 103.5 86.108 102.601 85.7648 101.378C85.6964 101.134 85.6599 100.877 85.6599 100.612C85.6599 99.0169 86.9822 97.7238 88.6133 97.7238ZM88.6133 98.9017C87.6474 98.9017 86.8644 99.6675 86.8644 100.612C86.8644 101.557 87.6474 102.322 88.6133 102.322C89.5792 102.322 90.3622 101.557 90.3622 100.612C90.3622 99.6675 89.5792 98.9017 88.6133 98.9017Z" fill="#017CBA"/>
<path fill-rule="evenodd" clip-rule="evenodd" d="M88.6133 97.7238C90.2444 97.7238 91.5667 99.0169 91.5667 100.612C91.5667 100.877 91.5302 101.134 91.4618 101.378C92.8601 101.378 94.1208 100.489 94.1356 99.4453C94.1588 97.8143 94.1912 95.0103 94.1356 92.9081C94.08 90.8059 91.3042 90.2048 90.3622 90.167H80.8328V92.3669H87.0986C87.2773 92.3669 87.4221 92.5117 87.4221 92.6904V95.7239C87.4221 95.9025 87.2773 96.0474 87.0986 96.0474H80.8328V101.378H85.7648C85.6964 101.134 85.6599 100.877 85.6599 100.612C85.6599 99.0169 86.9822 97.7238 88.6133 97.7238ZM92.4093 96.9923C92.4093 97.2224 92.176 97.3789 91.9631 97.2917L89.1269 96.1297C89.0054 96.0799 88.926 95.9616 88.926 95.8303V92.6904C88.926 92.5117 89.0709 92.3669 89.2496 92.3669H92.0858C92.2645 92.3669 92.4093 92.5117 92.4093 92.6904V96.9923Z" fill="#017CBA"/>
</g>
</g>
<g id="Icons/Main/Transport/RouteElectroBus">
<g id="Vector_2">
<path fill-rule="evenodd" clip-rule="evenodd" d="M27.1135 118.89C28.7446 118.89 30.0669 120.183 30.0669 121.778C30.0669 122.043 30.0304 122.3 29.962 122.544C29.6188 123.767 28.4735 124.666 27.1135 124.666C25.7535 124.666 24.6082 123.767 24.265 122.544C24.1966 122.3 24.1601 122.043 24.1601 121.778C24.1601 120.183 25.4824 118.89 27.1135 118.89ZM27.1135 120.068C26.1476 120.068 25.3646 120.833 25.3646 121.778C25.3646 122.723 26.1476 123.488 27.1135 123.488C28.0794 123.488 28.8624 122.723 28.8624 121.778C28.8624 120.833 28.0794 120.068 27.1135 120.068Z" fill="#017CBA"/>
<path fill-rule="evenodd" clip-rule="evenodd" d="M27.1135 118.89C28.7446 118.89 30.0669 120.183 30.0669 121.778C30.0669 122.043 30.0304 122.3 29.962 122.544C31.3603 122.544 32.621 121.655 32.6359 120.611C32.659 118.98 32.6915 116.176 32.6359 114.074C32.5803 111.972 29.8044 111.371 28.8624 111.333H23.5001V113.263C23.5001 113.412 23.6208 113.533 23.7697 113.533H25.9223V116.944C25.9223 117.093 25.8016 117.213 25.6527 117.213H19.333V122.544H24.265C24.1966 122.3 24.1601 122.043 24.1601 121.778C24.1601 120.183 25.4824 118.89 27.1135 118.89ZM30.9095 118.239C30.9095 118.43 30.7151 118.561 30.5377 118.488L27.5936 117.282C27.4924 117.241 27.4263 117.142 27.4263 117.033V113.802C27.4263 113.654 27.547 113.533 27.6959 113.533H30.6399C30.7888 113.533 30.9095 113.654 30.9095 113.802V118.239Z" fill="#017CBA"/>
<path fill-rule="evenodd" clip-rule="evenodd" d="M20.742 111.362C21.0145 111.457 21.1594 111.758 21.0658 112.034L20.586 113.448H21.3115C21.4854 113.448 21.6478 113.535 21.7447 113.682C21.8416 113.828 21.8602 114.014 21.7943 114.177L21.0552 116.005C20.9459 116.275 20.6412 116.404 20.3746 116.293C20.1079 116.183 19.9803 115.874 20.0896 115.604L20.5339 114.505H19.855C19.6864 114.505 19.5282 114.422 19.4303 114.283C19.3324 114.144 19.3068 113.966 19.3616 113.804L20.079 111.69C20.1726 111.414 20.4695 111.267 20.742 111.362Z" fill="#017CBA"/>
<path d="M23.7697 113.533C23.6208 113.533 23.5001 113.412 23.5001 113.263V113.533H23.7697Z" fill="#017CBA"/>
</g>
</g>
<g id="Icons/Main/Transport/TrolleyBus">
<g id="Subtract_2">
<path fill-rule="evenodd" clip-rule="evenodd" d="M49.1135 119.724C50.7446 119.724 52.0669 121.017 52.0669 122.612C52.0669 122.877 52.0304 123.134 51.962 123.378C51.6188 124.601 50.4735 125.5 49.1135 125.5C47.7535 125.5 46.6082 124.601 46.265 123.378C46.1966 123.134 46.1601 122.877 46.1601 122.612C46.1601 121.017 47.4824 119.724 49.1135 119.724ZM49.1135 120.902C48.1476 120.902 47.3646 121.667 47.3646 122.612C47.3646 123.557 48.1476 124.322 49.1135 124.322C50.0794 124.322 50.8624 123.557 50.8624 122.612C50.8624 121.667 50.0794 120.902 49.1135 120.902Z" fill="#017CBA"/>
<path fill-rule="evenodd" clip-rule="evenodd" d="M49.1135 119.724C50.7446 119.724 52.0669 121.017 52.0669 122.612C52.0669 122.877 52.0304 123.134 51.962 123.378C53.3603 123.378 54.621 122.489 54.6359 121.445C54.659 119.814 54.6915 117.01 54.6359 114.908C54.5803 112.806 51.8044 112.205 50.8624 112.167H46.0977H44.2501H41.333V114.367H47.6527C47.8016 114.367 47.9223 114.488 47.9223 114.636V117.778C47.9223 117.927 47.8016 118.047 47.6527 118.047H41.333V123.378H46.265C46.1966 123.134 46.1601 122.877 46.1601 122.612C46.1601 121.017 47.4824 119.724 49.1135 119.724ZM52.9095 119.073C52.9095 119.264 52.7151 119.395 52.5377 119.322L49.5936 118.116C49.4924 118.074 49.4263 117.976 49.4263 117.866V114.636C49.4263 114.488 49.547 114.367 49.6959 114.367H52.6399C52.7888 114.367 52.9095 114.488 52.9095 114.636V119.073Z" fill="#017CBA"/>
<path d="M46.0977 112.167L43.073 109.726C43.0255 109.688 42.9664 109.667 42.9055 109.667H41.7836C41.6289 109.667 41.5576 109.86 41.6751 109.96L44.2501 112.167H46.0977Z" fill="#017CBA"/>
</g>
</g>
<g id="Icons/Main/Transport/RouteTram/">
<g id="Subtract_3">
<path fill-rule="evenodd" clip-rule="evenodd" d="M68.9577 113.884C74.325 113.756 76.3763 117.923 76.4778 120.603C76.4778 121.425 75.8513 122.091 75.0787 122.091H64.4157C64.2784 122.091 64.167 121.98 64.167 121.842V119.871C64.167 119.734 64.2784 119.622 64.4157 119.622H66.3163C66.6132 119.622 66.854 119.366 66.854 119.05V116.329C66.854 116.014 66.6132 115.758 66.3163 115.758H64.167V113.884H66.2059H68.1971H68.9577ZM68.1971 116.329C68.1971 116.014 68.4378 115.758 68.7348 115.758H70.8746C72.5948 115.758 73.9893 117.241 73.9893 119.07C73.9893 119.375 73.7569 119.622 73.4702 119.622H68.7348C68.4378 119.622 68.1971 119.366 68.1971 119.05V116.329Z" fill="#017CBA"/>
<path d="M64.167 113.884H66.2059L68.5761 111.706H66.3716L64.167 113.884Z" fill="#017CBA"/>
<path d="M72.9853 110.749C72.9853 110.611 72.8739 110.5 72.7365 110.5H64.4157C64.2784 110.5 64.167 110.611 64.167 110.749V111.457C64.167 111.594 64.2784 111.706 64.4157 111.706H66.3716H68.5761H72.7365C72.8739 111.706 72.9853 111.594 72.9853 111.457V110.749Z" fill="#017CBA"/>
<path d="M64.167 123.404H76.667V124.667H64.167V123.404Z" fill="#017CBA"/>
</g>
</g>
<g id="Icons/Main/Transport/River">
<g id="Vector_3">
<path d="M94.8306 122.569C95.7493 121.661 97.2359 121.658 98.1597 122.557L98.9016 123.246C99.121 123.451 99.1309 123.792 98.9243 124.009C98.7172 124.226 98.3714 124.236 98.1517 124.032L97.4111 123.344L97.3991 123.332C96.9031 122.842 96.099 122.842 95.6031 123.332C94.6803 124.243 93.1848 124.243 92.262 123.332C91.766 122.842 90.9606 122.842 90.4646 123.332L89.8095 124.012C89.6013 124.228 89.2554 124.236 89.0369 124.03C88.8185 123.825 88.8101 123.483 89.0182 123.267L89.6827 122.578L89.6921 122.569C90.6149 121.657 92.1117 121.657 93.0345 122.569C93.5305 123.059 94.3346 123.059 94.8306 122.569Z" fill="#017CBA"/>
<path d="M98.5662 120.629H86.6438C86.8767 120.672 87.1207 120.801 87.3556 121.033C88.2784 121.945 89.774 121.945 90.6968 121.033C91.1927 120.544 91.9968 120.544 92.4928 121.033C93.4156 121.945 94.9124 121.945 95.8353 121.033C96.0934 120.779 96.4341 120.655 96.7733 120.666C97.0856 120.675 97.3933 120.798 97.6313 121.033L98.3292 121.723C98.5425 121.933 98.8884 121.933 99.1017 121.723C99.3152 121.512 99.3151 121.169 99.1017 120.958L98.7199 120.582C98.6754 120.612 98.6221 120.629 98.5662 120.629Z" fill="#017CBA"/>
<path d="M85.549 121.044C85.8211 120.79 86.0723 120.669 86.2928 120.629H84.8992C84.7922 120.629 84.6708 120.447 84.626 120.359C84.626 120.658 84.6325 120.873 84.7764 121.023C84.984 121.239 85.3299 121.249 85.549 121.044Z" fill="#017CBA"/>
<path fill-rule="evenodd" clip-rule="evenodd" d="M100.186 116.944H98.4867C98.3866 116.944 98.2944 116.889 98.2466 116.803L95.9653 112.654C95.9175 112.567 95.8253 112.513 95.7252 112.513H84.8992C84.7483 112.513 84.626 112.634 84.626 112.783V113.508C84.626 113.657 84.7483 113.778 84.8992 113.778H87.3843C87.5352 113.778 87.6576 113.899 87.6576 114.048V116.302C87.6576 116.451 87.5352 116.572 87.3843 116.572H84.8992C84.7483 116.572 84.626 116.693 84.626 116.842V120.359C84.6708 120.447 84.7922 120.629 84.8992 120.629H86.2928C86.3674 120.615 86.4385 120.61 86.5057 120.613C86.5512 120.615 86.5973 120.62 86.6438 120.629H98.5662C98.6221 120.629 98.6754 120.612 98.7199 120.582C98.7573 120.557 98.7885 120.522 98.8098 120.481L100.429 117.336C100.522 117.156 100.39 116.944 100.186 116.944ZM88.9599 116.302V114.048C88.9599 113.899 89.0822 113.778 89.2331 113.778H94.2829C94.3865 113.778 94.4812 113.836 94.5274 113.927L95.6664 116.182C95.7571 116.361 95.625 116.572 95.4219 116.572H89.2331C89.0822 116.572 88.9599 116.451 88.9599 116.302Z" fill="#017CBA"/>
</g>
</g>
</g>
<path id="Vector_4" fill-rule="evenodd" clip-rule="evenodd" d="M134.913 107.614L173.348 121.603C175.798 122.495 177.141 124.982 176.348 127.16L167.74 150.812C166.947 152.989 164.319 154.031 161.87 153.14L123.435 139.151C120.986 138.259 119.643 135.771 120.435 133.594L129.044 109.942C129.836 107.765 132.464 106.723 134.913 107.614ZM136.478 117.112C135.662 116.815 134.759 117.236 134.462 118.053L130.158 129.879C129.861 130.695 130.282 131.598 131.098 131.895L138.489 134.585C139.306 134.882 140.209 134.461 140.506 133.645C140.803 132.829 140.382 131.926 139.565 131.629L133.652 129.477L134.728 126.52L140.642 128.672C141.458 128.969 142.361 128.548 142.658 127.732C142.955 126.916 142.534 126.013 141.718 125.716L135.805 123.563L136.881 120.607L142.794 122.759C143.61 123.056 144.513 122.635 144.81 121.819C145.107 121.002 144.686 120.1 143.87 119.803L136.478 117.112ZM155.158 125.585L156.636 126.123C157.453 126.42 157.874 127.323 157.577 128.14L157.039 129.618C156.741 130.434 155.839 130.855 155.022 130.558L153.544 130.02C152.728 129.723 152.307 128.82 152.604 128.004L153.142 126.525C153.439 125.709 154.342 125.288 155.158 125.585ZM162.55 128.276L164.028 128.814C164.844 129.111 165.265 130.014 164.968 130.83L164.43 132.308C164.133 133.125 163.23 133.546 162.414 133.248L160.936 132.71C160.119 132.413 159.698 131.51 159.995 130.694L160.533 129.216C160.831 128.399 161.733 127.978 162.55 128.276ZM159.86 135.667L161.338 136.205C162.154 136.502 162.575 137.405 162.278 138.221L161.74 139.699C161.443 140.516 160.54 140.937 159.724 140.64L158.245 140.101C157.429 139.804 157.008 138.902 157.305 138.085L157.843 136.607C158.14 135.79 159.043 135.37 159.86 135.667ZM152.468 132.976L153.946 133.514C154.763 133.812 155.184 134.714 154.886 135.531L154.348 137.009C154.051 137.825 153.149 138.246 152.332 137.949L150.854 137.411C150.037 137.114 149.616 136.211 149.914 135.395L150.452 133.917C150.749 133.1 151.652 132.679 152.468 132.976Z" fill="#E32C22"/>
</g>
</g>
</g>
</g>
</g>
</g>
<defs>
<clipPath id="clip0_99761_63907">
<rect width="167.5" height="144" rx="16" fill="white"/>
</clipPath>
</defs>
</svg>
