<svg preserveAspectRatio="none" width="100%" height="100%" overflow="visible" style="display: block;" viewBox="0 0 24 16" fill="none" xmlns="http://www.w3.org/2000/svg">
<g id="Vector">
<path fill-rule="evenodd" clip-rule="evenodd" d="M2.25 0H21.75C22.9926 0 24 0.895431 24 2V14C24 15.1046 22.9926 16 21.75 16H2.25C1.00736 16 0 15.1046 0 14V2C0 0.895431 1.00736 0 2.25 0ZM4.49997 4C4.08576 4 3.74997 4.33579 3.74997 4.75V10.75C3.74997 11.1642 4.08576 11.5 4.49997 11.5H8.24997C8.66418 11.5 8.99997 11.1642 8.99997 10.75C8.99997 10.3358 8.66418 10 8.24997 10H5.24997V8.5H8.24997C8.66418 8.5 8.99997 8.16421 8.99997 7.75C8.99997 7.33579 8.66418 7 8.24997 7H5.24997V5.5H8.24997C8.66418 5.5 8.99997 5.16421 8.99997 4.75C8.99997 4.33579 8.66418 4 8.24997 4H4.49997ZM14.25 4.74999H15C15.4143 4.74999 15.75 5.08578 15.75 5.49999V6.24999C15.75 6.66421 15.4143 6.99999 15 6.99999H14.25C13.8358 6.99999 13.5 6.66421 13.5 6.24999V5.49999C13.5 5.08578 13.8358 4.74999 14.25 4.74999ZM18.0002 4.74999H18.7502C19.1644 4.74999 19.5002 5.08578 19.5002 5.49999V6.24999C19.5002 6.66421 19.1644 6.99999 18.7502 6.99999H18.0002C17.586 6.99999 17.2502 6.66421 17.2502 6.24999V5.49999C17.2502 5.08578 17.586 4.74999 18.0002 4.74999ZM18.0002 8.49987H18.7502C19.1644 8.49987 19.5002 8.83566 19.5002 9.24987V9.99987C19.5002 10.4141 19.1644 10.7499 18.7502 10.7499H18.0002C17.586 10.7499 17.2502 10.4141 17.2502 9.99987V9.24987C17.2502 8.83566 17.586 8.49987 18.0002 8.49987ZM14.25 8.49987H15C15.4143 8.49987 15.75 8.83566 15.75 9.24987V9.99987C15.75 10.4141 15.4143 10.7499 15 10.7499H14.25C13.8358 10.7499 13.5 10.4141 13.5 9.99987V9.24987C13.5 8.83566 13.8358 8.49987 14.25 8.49987Z" fill="#E32C22"/>
<path d="M3.74997 4.75C3.74997 4.33579 4.08576 4 4.49997 4H8.24997C8.66418 4 8.99997 4.33579 8.99997 4.75C8.99997 5.16421 8.66418 5.5 8.24997 5.5H5.24997V7H8.24997C8.66418 7 8.99997 7.33579 8.99997 7.75C8.99997 8.16421 8.66418 8.5 8.24997 8.5H5.24997V10H8.24997C8.66418 10 8.99997 10.3358 8.99997 10.75C8.99997 11.1642 8.66418 11.5 8.24997 11.5H4.49997C4.08576 11.5 3.74997 11.1642 3.74997 10.75V4.75Z" fill="var(--fill-0, white)"/>
<path d="M15 4.74999H14.25C13.8358 4.74999 13.5 5.08578 13.5 5.49999V6.24999C13.5 6.66421 13.8358 6.99999 14.25 6.99999H15C15.4143 6.99999 15.75 6.66421 15.75 6.24999V5.49999C15.75 5.08578 15.4143 4.74999 15 4.74999Z" fill="var(--fill-0, white)"/>
<path d="M18.7502 4.74999H18.0002C17.586 4.74999 17.2502 5.08578 17.2502 5.49999V6.24999C17.2502 6.66421 17.586 6.99999 18.0002 6.99999H18.7502C19.1644 6.99999 19.5002 6.66421 19.5002 6.24999V5.49999C19.5002 5.08578 19.1644 4.74999 18.7502 4.74999Z" fill="var(--fill-0, white)"/>
<path d="M18.7502 8.49987H18.0002C17.586 8.49987 17.2502 8.83566 17.2502 9.24987V9.99987C17.2502 10.4141 17.586 10.7499 18.0002 10.7499H18.7502C19.1644 10.7499 19.5002 10.4141 19.5002 9.99987V9.24987C19.5002 8.83566 19.1644 8.49987 18.7502 8.49987Z" fill="var(--fill-0, white)"/>
<path d="M15 8.49987H14.25C13.8358 8.49987 13.5 8.83566 13.5 9.24987V9.99987C13.5 10.4141 13.8358 10.7499 14.25 10.7499H15C15.4143 10.7499 15.75 10.4141 15.75 9.99987V9.24987C15.75 8.83566 15.4143 8.49987 15 8.49987Z" fill="var(--fill-0, white)"/>
</g>
</svg>
