<svg preserveAspectRatio="none" width="100%" height="100%" overflow="visible" style="display: block;" viewBox="0 0 17.1429 11.4286" fill="none" xmlns="http://www.w3.org/2000/svg">
<g id="Vector">
<path fill-rule="evenodd" clip-rule="evenodd" d="M1.60714 0H15.5357C16.4233 0 17.1429 0.639593 17.1429 1.42857V10C17.1429 10.789 16.4233 11.4286 15.5357 11.4286H1.60714C0.719542 11.4286 0 10.789 0 10V1.42857C0 0.639593 0.719542 0 1.60714 0Z" fill="#E32C22"/>
<path fill-rule="evenodd" clip-rule="evenodd" d="M7.74008 2.85866C10.8099 2.79117 11.9832 4.98559 12.0412 6.39718C12.0412 6.82996 11.6829 7.18082 11.241 7.18082H5.13605C5.06091 7.18082 5 7.12235 5 7.05021V6.01131C5 5.93917 5.06091 5.88069 5.13605 5.88069H6.22929C6.39913 5.88069 6.53682 5.74587 6.53682 5.57955V4.14656C6.53682 3.98025 6.39913 3.84542 6.22929 3.84542H5.13605C5.06091 3.84542 5 3.78694 5 3.71481V2.98928C5 2.91714 5.06091 2.85866 5.13605 2.85866H7.74008ZM7.61255 3.84542C7.44271 3.84542 7.30503 3.98025 7.30503 4.14656V5.57955C7.30503 5.74587 7.44271 5.88069 7.61255 5.88069H10.321C10.485 5.88069 10.6179 5.75052 10.6179 5.58994C10.6179 4.62647 9.82032 3.84542 8.83644 3.84542H7.61255Z" fill="var(--fill-0, white)"/>
<path d="M5 7.86646H12.1429V8.57143H5V7.86646Z" fill="var(--fill-0, white)"/>
</g>
</svg>
