<svg width="20" height="20" viewBox="0 0 20 20" fill="none" xmlns="http://www.w3.org/2000/svg">
<rect width="20" height="20" fill="#6B6B6B"/>
<g id="Components">
<path d="M-120 -1182C-120 -1183.1 -119.105 -1184 -118 -1184H1999C2000.1 -1184 2001 -1183.1 2001 -1182V1417C2001 1418.1 2000.1 1419 1999 1419H-118C-119.105 1419 -120 1418.1 -120 1417V-1182Z" fill="#444444"/>
<path d="M-118 -1184V-1183H1999V-1184V-1185H-118V-1184ZM2001 -1182H2000V1417H2001H2002V-1182H2001ZM1999 1419V1418H-118V1419V1420H1999V1419ZM-120 1417H-119V-1182H-120H-121V1417H-120ZM-118 1419V1418C-118.552 1418 -119 1417.55 -119 1417H-120H-121C-121 1418.66 -119.657 1420 -118 1420V1419ZM2001 1417H2000C2000 1417.55 1999.55 1418 1999 1418V1419V1420C2000.66 1420 2002 1418.66 2002 1417H2001ZM1999 -1184V-1183C1999.55 -1183 2000 -1182.55 2000 -1182H2001H2002C2002 -1183.66 2000.66 -1185 1999 -1185V-1184ZM-118 -1184V-1185C-119.657 -1185 -121 -1183.66 -121 -1182H-120H-119C-119 -1182.55 -118.552 -1183 -118 -1183V-1184Z" fill="white" fill-opacity="0.1"/>
<path d="M-58 -195C-58 -203.837 -50.8366 -211 -42 -211H915C923.837 -211 931 -203.837 931 -195V68C931 76.8365 923.837 84 915 84H-42C-50.8366 84 -58 76.8365 -58 68V-195Z" fill="white"/>
<path d="M-42 -211V-210H915V-211V-212H-42V-211ZM931 -195H930V68H931H932V-195H931ZM915 84V83H-42V84V85H915V84ZM-58 68H-57V-195H-58H-59V68H-58ZM-42 84V83C-50.2843 83 -57 76.2843 -57 68H-58H-59C-59 77.3889 -51.3888 85 -42 85V84ZM931 68H930C930 76.2843 923.284 83 915 83V84V85C924.389 85 932 77.3888 932 68H931ZM915 -211V-210C923.284 -210 930 -203.284 930 -195H931H932C932 -204.389 924.389 -212 915 -212V-211ZM-42 -211V-212C-51.3888 -212 -59 -204.389 -59 -195H-58H-57C-57 -203.284 -50.2843 -210 -42 -210V-211Z" fill="white" fill-opacity="0.1"/>
<g id="TopUp/Saved">
<path d="M-12 -91C-12 -97.6274 -6.62742 -103 0 -103H116C122.627 -103 128 -97.6274 128 -91V20C128 26.6274 122.627 32 116 32H-9.53674e-07C-6.62742 32 -12 26.6274 -12 20V-91Z" fill="#F7F7F7"/>
<g id="Payment Method Details">
<g id="Frame 1948758944">
<g id="Icons/Main/Tickets/Union">
<g id="Vector">
<path fill-rule="evenodd" clip-rule="evenodd" d="M3.03585 4.28613H16.9644C17.852 4.28613 18.5716 4.92573 18.5716 5.7147V14.2861C18.5716 15.0751 17.852 15.7147 16.9644 15.7147H3.03585C2.14825 15.7147 1.42871 15.0751 1.42871 14.2861V5.7147C1.42871 4.92573 2.14825 4.28613 3.03585 4.28613ZM4.64298 7.14328C4.34711 7.14328 4.10726 7.38312 4.10726 7.67899V11.9647C4.10726 12.2606 4.34711 12.5004 4.64298 12.5004H7.32155C7.61741 12.5004 7.85726 12.2606 7.85726 11.9647C7.85726 11.6688 7.61741 11.429 7.32155 11.429H5.17869V10.3576H7.32155C7.61741 10.3576 7.85726 10.1177 7.85726 9.82185C7.85726 9.52598 7.61741 9.28613 7.32155 9.28613H5.17869V8.2147H7.32155C7.61741 8.2147 7.85726 7.97486 7.85726 7.67899C7.85726 7.38312 7.61741 7.14328 7.32155 7.14328H4.64298ZM11.6073 7.67899H12.143C12.4389 7.67899 12.6787 7.91883 12.6787 8.2147V8.75041C12.6787 9.04628 12.4389 9.28613 12.143 9.28613H11.6073C11.3114 9.28613 11.0716 9.04628 11.0716 8.75041V8.2147C11.0716 7.91883 11.3114 7.67899 11.6073 7.67899ZM14.286 7.67899H14.8217C15.1176 7.67899 15.3574 7.91883 15.3574 8.2147V8.75041C15.3574 9.04628 15.1176 9.28613 14.8217 9.28613H14.286C13.9901 9.28613 13.7503 9.04628 13.7503 8.75041V8.2147C13.7503 7.91883 13.9901 7.67899 14.286 7.67899ZM14.286 10.3575H14.8217C15.1176 10.3575 15.3574 10.5973 15.3574 10.8932V11.4289C15.3574 11.7248 15.1176 11.9646 14.8217 11.9646H14.286C13.9901 11.9646 13.7503 11.7248 13.7503 11.4289V10.8932C13.7503 10.5973 13.9901 10.3575 14.286 10.3575ZM11.6073 10.3575H12.143C12.4389 10.3575 12.6787 10.5973 12.6787 10.8932V11.4289C12.6787 11.7248 12.4389 11.9646 12.143 11.9646H11.6073C11.3114 11.9646 11.0716 11.7248 11.0716 11.4289V10.8932C11.0716 10.5973 11.3114 10.3575 11.6073 10.3575Z" fill="#E32C22"/>
<path d="M4.10726 7.67899C4.10726 7.38312 4.34711 7.14328 4.64298 7.14328H7.32155C7.61741 7.14328 7.85726 7.38312 7.85726 7.67899C7.85726 7.97486 7.61741 8.2147 7.32155 8.2147H5.17869V9.28613H7.32155C7.61741 9.28613 7.85726 9.52598 7.85726 9.82185C7.85726 10.1177 7.61741 10.3576 7.32155 10.3576H5.17869V11.429H7.32155C7.61741 11.429 7.85726 11.6688 7.85726 11.9647C7.85726 12.2606 7.61741 12.5004 7.32155 12.5004H4.64298C4.34711 12.5004 4.10726 12.2606 4.10726 11.9647V7.67899Z" fill="white"/>
<path d="M12.143 7.67899H11.6073C11.3114 7.67899 11.0716 7.91883 11.0716 8.2147V8.75041C11.0716 9.04628 11.3114 9.28613 11.6073 9.28613H12.143C12.4389 9.28613 12.6787 9.04628 12.6787 8.75041V8.2147C12.6787 7.91883 12.4389 7.67899 12.143 7.67899Z" fill="white"/>
<path d="M14.8217 7.67899H14.286C13.9901 7.67899 13.7503 7.91883 13.7503 8.2147V8.75041C13.7503 9.04628 13.9901 9.28613 14.286 9.28613H14.8217C15.1176 9.28613 15.3574 9.04628 15.3574 8.75041V8.2147C15.3574 7.91883 15.1176 7.67899 14.8217 7.67899Z" fill="white"/>
<path d="M14.8217 10.3575H14.286C13.9901 10.3575 13.7503 10.5973 13.7503 10.8932V11.4289C13.7503 11.7248 13.9901 11.9646 14.286 11.9646H14.8217C15.1176 11.9646 15.3574 11.7248 15.3574 11.4289V10.8932C15.3574 10.5973 15.1176 10.3575 14.8217 10.3575Z" fill="white"/>
<path d="M12.143 10.3575H11.6073C11.3114 10.3575 11.0716 10.5973 11.0716 10.8932V11.4289C11.0716 11.7248 11.3114 11.9646 11.6073 11.9646H12.143C12.4389 11.9646 12.6787 11.7248 12.6787 11.4289V10.8932C12.6787 10.5973 12.4389 10.3575 12.143 10.3575Z" fill="white"/>
</g>
</g>
</g>
</g>
</g>
</g>
</svg>
