<svg preserveAspectRatio="none" width="100%" height="100%" overflow="visible" style="display: block;" viewBox="0 0 24 16" fill="none" xmlns="http://www.w3.org/2000/svg">
<g id="Vector">
<path fill-rule="evenodd" clip-rule="evenodd" d="M2.25 0H21.75C22.9926 0 24 0.895431 24 2V14C24 15.1046 22.9926 16 21.75 16H2.25C1.00736 16 0 15.1046 0 14V2C0 0.895431 1.00736 0 2.25 0Z" fill="#E32C22"/>
<path fill-rule="evenodd" clip-rule="evenodd" d="M10.8361 4.00213C15.1339 3.90764 16.7764 6.97982 16.8577 8.95606C16.8577 9.56195 16.3561 10.0532 15.7374 10.0532H7.19048C7.08528 10.0532 7 9.97129 7 9.8703V8.41583C7 8.31484 7.08528 8.23297 7.19048 8.23297H8.72101C8.95879 8.23297 9.15154 8.04421 9.15154 7.81137V5.80519C9.15154 5.57235 8.95879 5.38359 8.72101 5.38359H7.19048C7.08528 5.38359 7 5.30172 7 5.20073V4.18499C7 4.084 7.08528 4.00213 7.19048 4.00213H10.8361ZM10.6576 5.38359C10.4198 5.38359 10.227 5.57235 10.227 5.80519V7.81137C10.227 8.04421 10.4198 8.23297 10.6576 8.23297H14.4494C14.679 8.23297 14.8651 8.05073 14.8651 7.82592C14.8651 6.47706 13.7484 5.38359 12.371 5.38359H10.6576Z" fill="var(--fill-0, white)"/>
<path d="M7 11.013H17V12H7V11.013Z" fill="var(--fill-0, white)"/>
</g>
</svg>
