<svg preserveAspectRatio="none" width="100%" height="100%" overflow="visible" style="display: block;" viewBox="0 0 12.5 14.1667" fill="none" xmlns="http://www.w3.org/2000/svg">
<g id="Subtract">
<path fill-rule="evenodd" clip-rule="evenodd" d="M4.79074 3.38394C10.158 3.25579 12.2093 7.42259 12.3108 10.103C12.3108 10.9247 11.6844 11.591 10.9117 11.591H0.248758C0.111373 11.591 0 11.4796 0 11.3422V9.371C0 9.23362 0.111372 9.12225 0.248757 9.12225H2.14929C2.44624 9.12225 2.68696 8.86623 2.68696 8.55043V5.82944C2.68696 5.51363 2.44624 5.25762 2.14929 5.25762H0V3.38394H2.03888H4.03009H4.79074ZM4.03009 5.82944C4.03009 5.51363 4.27081 5.25762 4.56776 5.25762H6.7076C8.42781 5.25762 9.82231 6.74069 9.82231 8.57016C9.82231 8.87507 9.5899 9.12225 9.30319 9.12225H4.56776C4.27081 9.12225 4.03009 8.86623 4.03009 8.55043V5.82944Z" fill="var(--fill-0, #017CBA)"/>
<path d="M0 3.38394H2.03888L4.40915 1.20572H2.20457L0 3.38394Z" fill="var(--fill-0, #017CBA)"/>
<path d="M8.81829 0.248757C8.81829 0.111372 8.70692 0 8.56954 0H0.248757C0.111372 0 0 0.111373 0 0.248757V0.956967C0 1.09435 0.111372 1.20572 0.248757 1.20572H2.20457H4.40915H8.56954C8.70692 1.20572 8.81829 1.09435 8.81829 0.956967V0.248757Z" fill="var(--fill-0, #017CBA)"/>
<path d="M0 12.9042H12.5V14.1667H0V12.9042Z" fill="var(--fill-0, #017CBA)"/>
</g>
</svg>
