<svg width="140" height="135" viewBox="0 0 140 135" fill="none" xmlns="http://www.w3.org/2000/svg">
<rect width="140" height="135" fill="#6B6B6B"/>
<g id="Components">
<path d="M-543 -1079C-543 -1080.1 -542.105 -1081 -541 -1081H1576C1577.1 -1081 1578 -1080.1 1578 -1079V1520C1578 1521.1 1577.1 1522 1576 1522H-541C-542.105 1522 -543 1521.1 -543 1520V-1079Z" fill="#444444"/>
<path d="M-541 -1081V-1080H1576V-1081V-1082H-541V-1081ZM1578 -1079H1577V1520H1578H1579V-1079H1578ZM1576 1522V1521H-541V1522V1523H1576V1522ZM-543 1520H-542V-1079H-543H-544V1520H-543ZM-541 1522V1521C-541.552 1521 -542 1520.55 -542 1520H-543H-544C-544 1521.66 -542.657 1523 -541 1523V1522ZM1578 1520H1577C1577 1520.55 1576.55 1521 1576 1521V1522V1523C1577.66 1523 1579 1521.66 1579 1520H1578ZM1576 -1081V-1080C1576.55 -1080 1577 -1079.55 1577 -1079H1578H1579C1579 -1080.66 1577.66 -1082 1576 -1082V-1081ZM-541 -1081V-1082C-542.657 -1082 -544 -1080.66 -544 -1079H-543H-542C-542 -1079.55 -541.552 -1080 -541 -1080V-1081Z" fill="white" fill-opacity="0.1"/>
<path d="M-481 -92C-481 -100.837 -473.837 -108 -465 -108H492C500.837 -108 508 -100.837 508 -92V171C508 179.837 500.837 187 492 187H-465C-473.837 187 -481 179.837 -481 171V-92Z" fill="white"/>
<path d="M-465 -108V-107H492V-108V-109H-465V-108ZM508 -92H507V171H508H509V-92H508ZM492 187V186H-465V187V188H492V187ZM-481 171H-480V-92H-481H-482V171H-481ZM-465 187V186C-473.284 186 -480 179.284 -480 171H-481H-482C-482 180.389 -474.389 188 -465 188V187ZM508 171H507C507 179.284 500.284 186 492 186V187V188C501.389 188 509 180.389 509 171H508ZM492 -108V-107C500.284 -107 507 -100.284 507 -92H508H509C509 -101.389 501.389 -109 492 -109V-108ZM-465 -108V-109C-474.389 -109 -482 -101.389 -482 -92H-481H-480C-480 -100.284 -473.284 -107 -465 -107V-108Z" fill="white" fill-opacity="0.1"/>
<g id="TopUp/Saved">
<path d="M0 12C0 5.37258 5.37258 0 12 0H128C134.627 0 140 5.37258 140 12V123C140 129.627 134.627 135 128 135H12C5.37258 135 0 129.627 0 123V12Z" fill="#F7F7F7"/>
<g id="Payment Method Info">
<g id="Icons/Main/TransportCards/Social">
<g id="TROIKA_CARD">
<g clip-path="url(#clip0_99761_63907)">
<rect x="13" y="17.5" width="26" height="17" rx="3" fill="url(#paint0_radial_99761_63907)"/>
<path id="Vector 202" d="M31.1563 24.0625V30.625L39.6875 26.4688V39.8125H24.1562V27.8359L31.1563 24.0625Z" fill="#AFC7D7" stroke="white" stroke-width="0.175"/>
<path id="Vector 201" d="M20.4375 22.9688L10.5938 18.1563V16.4062H33.7813L20.4375 22.9688Z" fill="#AFC7D7" stroke="white" stroke-width="0.175"/>
<g id="Group 8187">
<rect id="Rectangle 36605" x="15.5625" y="19.6875" width="6" height="5" rx="1" fill="#FCF2D1"/>
<g id="Mask group">
<mask id="mask0_99761_63907" style="mask-type:alpha" maskUnits="userSpaceOnUse" x="15" y="19" width="7" height="6">
<rect id="Rectangle 36607" width="6" height="5" rx="1" transform="matrix(-1 0 0 1 21.5625 19.6875)" fill="#FFFAEA"/>
</mask>
<g mask="url(#mask0_99761_63907)">
<path id="Vector 200 (Stroke)" fill-rule="evenodd" clip-rule="evenodd" d="M17.0625 19.6875H18.0625V20.6875H22.0625V21.6875H20.5625V24.6875H19.5625V21.6875H18.0625V24.6875H17.0625V23.9375H15.0625V22.9375H17.0625V19.6875Z" fill="#F8D978"/>
</g>
</g>
</g>
<rect id="Rectangle 36612" opacity="0.8" x="31.688" y="19.6875" width="5" height="3" rx="1.5" fill="#E32C22"/>
<g id="Vector" opacity="0.4">
<path d="M15.8755 29.5312C15.8755 28.979 16.3232 28.5312 16.8755 28.5312C17.4278 28.5312 17.8755 28.979 17.8755 29.5312C17.8755 30.0835 17.4278 30.5312 16.8755 30.5312C16.3232 30.5312 15.8755 30.0835 15.8755 29.5312Z" fill="white"/>
<path d="M18.8755 29.5312C18.8755 28.979 19.3232 28.5312 19.8755 28.5312C20.4278 28.5312 20.8755 28.979 20.8755 29.5312C20.8755 30.0835 20.4278 30.5312 19.8755 30.5312C19.3232 30.5312 18.8755 30.0835 18.8755 29.5312Z" fill="white"/>
<path d="M21.8755 29.5312C21.8755 28.979 22.3232 28.5312 22.8755 28.5312C23.4278 28.5312 23.8755 28.979 23.8755 29.5312C23.8755 30.0835 23.4278 30.5312 22.8755 30.5312C22.3232 30.5312 21.8755 30.0835 21.8755 29.5312Z" fill="white"/>
<path d="M24.8755 29.5312C24.8755 28.979 25.3232 28.5312 25.8755 28.5312C26.4278 28.5312 26.8755 28.979 26.8755 29.5312C26.8755 30.0835 26.4278 30.5312 25.8755 30.5312C25.3232 30.5312 24.8755 30.0835 24.8755 29.5312Z" fill="white"/>
<path d="M27.8755 29.5312C27.8755 28.979 28.3232 28.5312 28.8755 28.5312C29.4278 28.5312 29.8755 28.979 29.8755 29.5312C29.8755 30.0835 29.4278 30.5312 28.8755 30.5312C28.3232 30.5312 27.8755 30.0835 27.8755 29.5312Z" fill="white"/>
</g>
</g>
</g>
</g>
<g id="Icons/Actions/Close">
<path id="Vector_2" fill-rule="evenodd" clip-rule="evenodd" d="M109.84 21.8398C110.133 21.5469 110.608 21.5469 110.9 21.8398L114 24.9391L117.099 21.8398C117.392 21.5469 117.867 21.5469 118.16 21.8398C118.453 22.1327 118.453 22.6076 118.16 22.9004L115.06 25.9997L118.16 29.099C118.453 29.3919 118.453 29.8668 118.16 30.1597C117.867 30.4526 117.392 30.4526 117.099 30.1597L114 27.0604L110.9 30.1597C110.608 30.4526 110.133 30.4526 109.84 30.1597C109.547 29.8668 109.547 29.3919 109.84 29.099L112.939 25.9997L109.84 22.9004C109.547 22.6076 109.547 22.1327 109.84 21.8398Z" fill="#333333"/>
</g>
</g>
<g id="Payment Method Details">
<path id="Label" d="M13.4 59V49.2H14.562V53.428H16.214L19.364 49.2H20.708L17.194 53.82L21.254 59H19.77L16.228 54.45H14.562V59H13.4ZM24.3915 58.216C25.4695 58.216 26.3655 57.418 26.3655 56.186V55.808C25.2315 55.626 24.3215 55.626 23.7335 55.878C23.2295 56.088 22.9495 56.494 22.9495 57.012C22.9495 57.628 23.4255 58.216 24.3915 58.216ZM24.2375 59.168C22.7815 59.168 21.8435 58.202 21.8435 56.984C21.8435 55.836 22.6695 54.758 24.8535 54.758C25.2735 54.758 25.8475 54.828 26.3655 54.898V54.422C26.3655 53.47 25.6795 52.952 24.7555 52.952C23.8595 52.952 23.2155 53.316 22.8375 53.582L22.1095 52.854C22.7255 52.378 23.6075 51.986 24.7835 51.986C26.4495 51.986 27.4575 52.98 27.4575 54.422V59H26.3795V58.188H26.3515C25.9315 58.762 25.1195 59.168 24.2375 59.168ZM30.6723 55.57C30.6723 57.068 31.5963 58.216 32.9403 58.216C34.2983 58.216 35.2363 57.068 35.2363 55.57C35.2363 54.044 34.2983 52.952 32.9403 52.952C31.5963 52.952 30.6723 54.044 30.6723 55.57ZM30.6863 57.81V61.59H29.5943V52.154H30.6863V53.344H30.7143C31.2043 52.532 32.1003 51.986 33.0943 51.986C34.9423 51.986 36.3283 53.484 36.3283 55.584C36.3283 57.67 34.9423 59.168 33.0943 59.168C32.1003 59.168 31.2043 58.622 30.7143 57.81H30.6863ZM39.4562 59V53.022H37.1882V52.154H42.9982L42.6902 53.022H40.5482V59H39.4562ZM46.2118 58.216C47.2898 58.216 48.1858 57.418 48.1858 56.186V55.808C47.0518 55.626 46.1418 55.626 45.5538 55.878C45.0498 56.088 44.7698 56.494 44.7698 57.012C44.7698 57.628 45.2458 58.216 46.2118 58.216ZM46.0578 59.168C44.6018 59.168 43.6638 58.202 43.6638 56.984C43.6638 55.836 44.4898 54.758 46.6738 54.758C47.0938 54.758 47.6678 54.828 48.1858 54.898V54.422C48.1858 53.47 47.4998 52.952 46.5758 52.952C45.6798 52.952 45.0358 53.316 44.6578 53.582L43.9298 52.854C44.5458 52.378 45.4278 51.986 46.6038 51.986C48.2698 51.986 49.2778 52.98 49.2778 54.422V59H48.1998V58.188H48.1718C47.7518 58.762 46.9398 59.168 46.0578 59.168ZM12.42 75L14.338 68.154H15.346L17.25 73.6H17.278L19.182 68.154H20.19L22.108 75H21.016L19.616 69.792H19.588L17.768 75H16.76L14.94 69.792H14.912L13.512 75H12.42ZM26.5453 75.168C24.7113 75.168 23.1713 73.67 23.1713 71.584C23.1713 69.484 24.7113 67.986 26.5453 67.986C28.3793 67.986 29.9193 69.484 29.9193 71.584C29.9193 73.67 28.3793 75.168 26.5453 75.168ZM26.5453 74.202C27.8893 74.202 28.8273 73.124 28.8273 71.584C28.8273 70.072 27.8893 68.952 26.5453 68.952C25.2013 68.952 24.2633 70.072 24.2633 71.584C24.2633 73.124 25.2013 74.202 26.5453 74.202ZM34.5844 75.182C32.6244 75.182 31.2244 73.684 31.2244 71.584C31.2244 69.484 32.6664 67.986 34.6264 67.986C35.7744 67.986 36.5164 68.518 36.9364 68.938L36.2644 69.624C35.9424 69.372 35.4244 68.966 34.5984 68.966C33.2264 68.966 32.2884 70.114 32.2884 71.584C32.2884 73.054 33.2264 74.202 34.5984 74.202C35.4244 74.202 35.9424 73.796 36.2644 73.544L36.9364 74.23C36.5164 74.65 35.7324 75.182 34.5844 75.182ZM38.5083 75V68.154H39.6003V71.024H40.6503L42.9043 68.154H44.1503L41.5463 71.444L44.4443 75H43.1003L40.6083 71.92H39.6003V75H38.5083ZM48.8094 75H45.6314V68.154H48.6274C50.2654 68.154 50.8114 69.036 50.8114 69.82C50.8114 70.52 50.4054 71.052 49.7754 71.276V71.304C50.5174 71.472 51.1754 72.116 51.1754 73.012C51.1754 74.244 50.1674 75 48.8094 75ZM46.7234 70.954H48.6414C49.1734 70.954 49.7334 70.688 49.7334 70.002C49.7334 69.316 49.1734 69.064 48.6414 69.064H46.7234V70.954ZM46.7234 74.09H48.7114C49.4674 74.09 50.0134 73.712 50.0134 72.97C50.0134 72.242 49.4674 71.864 48.7114 71.864H46.7234V74.09ZM52.9048 75V68.154H53.9688V73.32H53.9968L57.4828 68.154H58.4908V75H57.4268V69.848H57.3988L53.9128 75H52.9048ZM64.5198 75V72.046H64.4918C64.2118 72.256 63.5538 72.578 62.6438 72.578C61.5798 72.578 60.1938 72.088 60.1938 70.24V68.154H61.2858V70.114C61.2858 71.29 62.0138 71.626 62.8258 71.626C63.5398 71.626 64.2118 71.318 64.5198 71.08V68.154H65.6118V75H64.5198ZM69.8368 74.216C70.9148 74.216 71.8108 73.418 71.8108 72.186V71.808C70.6768 71.626 69.7668 71.626 69.1788 71.878C68.6748 72.088 68.3948 72.494 68.3948 73.012C68.3948 73.628 68.8708 74.216 69.8368 74.216ZM69.6828 75.168C68.2268 75.168 67.2888 74.202 67.2888 72.984C67.2888 71.836 68.1148 70.758 70.2988 70.758C70.7188 70.758 71.2928 70.828 71.8108 70.898V70.422C71.8108 69.47 71.1248 68.952 70.2008 68.952C69.3048 68.952 68.6608 69.316 68.2828 69.582L67.5548 68.854C68.1708 68.378 69.0528 67.986 70.2288 67.986C71.8948 67.986 72.9028 68.98 72.9028 70.422V75H71.8248V74.188H71.7968C71.3768 74.762 70.5648 75.168 69.6828 75.168Z" fill="#333333"/>
<path id="title" d="M12.48 94V93.1H14.268V86.5H12.624V85.6H15.264V93.1H17.184L16.764 94H12.48ZM23.2983 94H17.9223V93.22L20.0343 91.108C21.6183 89.5 22.1823 88.756 22.1823 87.904C22.1823 86.968 21.4863 86.344 20.5143 86.344C19.4703 86.344 18.6903 86.872 18.2343 87.304L17.6343 86.704C18.0663 86.224 19.1103 85.456 20.4783 85.456C22.2423 85.456 23.1903 86.608 23.1903 87.88C23.1903 89.068 22.3743 90.004 21.1623 91.204L19.2903 93.076V93.1H23.6223L23.2983 94ZM27.2749 94.144C26.0509 94.144 25.0669 93.712 24.3829 93.052L25.0309 92.404C25.6069 92.92 26.2549 93.292 27.2629 93.292C28.3669 93.292 29.3149 92.62 29.3149 91.444C29.3149 90.172 28.1989 89.644 27.0109 89.644C26.8429 89.644 26.6269 89.644 26.4469 89.668V89.116L29.0629 86.5H24.8749V85.6H30.1309V86.512L27.8029 88.84V88.864C29.3869 89.02 30.2989 90.124 30.2989 91.444C30.2989 92.908 29.0629 94.144 27.2749 94.144ZM35.4721 94V92.116H31.3561V91.42L33.8401 85.6H34.8241L32.3761 91.252V91.276H35.4721V88.54H36.4201V91.276H37.8721L37.5601 92.116H36.4201V94H35.4721ZM41.2928 94.144C40.1648 94.144 39.1328 93.772 38.4368 93.088L39.0848 92.44C39.7327 93.028 40.5488 93.292 41.2568 93.292C42.4088 93.292 43.3448 92.548 43.3448 91.396C43.3448 90.388 42.6608 89.572 41.3768 89.572C40.7408 89.572 40.1768 89.776 39.7808 90.016L38.9168 89.908L39.1688 85.6H44.2088L43.8848 86.5H39.9608L39.8168 89.152H39.8408C40.2368 88.948 40.8008 88.732 41.5448 88.732C42.9008 88.732 44.3528 89.584 44.3528 91.372C44.3528 93.088 42.8888 94.144 41.2928 94.144ZM48.4694 94.144C46.8254 94.144 45.5174 93.016 45.5174 91.312C45.5174 90.028 46.2614 88.768 47.4854 87.112L48.7334 85.456L49.7294 85.6L47.0294 89.176L47.0534 89.2C47.5094 88.876 48.0974 88.72 48.7214 88.72C50.1014 88.72 51.4094 89.788 51.4094 91.384C51.4094 92.8 50.2574 94.144 48.4694 94.144ZM48.4694 93.364C49.6934 93.364 50.4854 92.416 50.4854 91.408C50.4854 90.364 49.6934 89.452 48.4694 89.452C47.2454 89.452 46.4534 90.364 46.4534 91.408C46.4534 92.416 47.2454 93.364 48.4694 93.364ZM53.2609 94L56.3449 86.5H51.9289V85.6H57.3769V86.368L54.3049 94H53.2609ZM61.3157 85.456C62.9837 85.456 64.0757 86.452 64.0757 87.784C64.0757 88.54 63.5597 89.332 62.7317 89.668V89.692C63.6077 90.028 64.2677 90.868 64.2677 91.732C64.2677 93.184 63.0557 94.144 61.3157 94.144C59.5757 94.144 58.3637 93.184 58.3637 91.732C58.3637 90.868 59.0117 90.028 59.8997 89.692V89.668C59.0597 89.332 58.5557 88.54 58.5557 87.784C58.5557 86.452 59.6357 85.456 61.3157 85.456ZM61.3157 89.248C62.4557 89.248 63.0917 88.54 63.0917 87.784C63.0917 87.004 62.4557 86.308 61.3157 86.308C60.1637 86.308 59.5397 87.004 59.5397 87.784C59.5397 88.54 60.1637 89.248 61.3157 89.248ZM61.3157 90.136C60.0437 90.136 59.3597 90.916 59.3597 91.744C59.3597 92.536 60.0437 93.316 61.3157 93.316C62.5757 93.316 63.2717 92.536 63.2717 91.744C63.2717 90.916 62.5757 90.136 61.3157 90.136ZM68.281 85.456C69.925 85.456 71.233 86.584 71.233 88.288C71.233 89.572 70.489 90.832 69.265 92.488L68.017 94.144L67.021 94L69.721 90.424L69.697 90.4C69.241 90.724 68.653 90.88 68.029 90.88C66.649 90.88 65.341 89.812 65.341 88.216C65.341 86.8 66.493 85.456 68.281 85.456ZM68.281 86.236C67.057 86.236 66.265 87.184 66.265 88.192C66.265 89.236 67.057 90.148 68.281 90.148C69.505 90.148 70.297 89.236 70.297 88.192C70.297 87.184 69.505 86.236 68.281 86.236ZM75.6162 94.144C73.6602 94.144 72.5082 92.416 72.5082 89.8C72.5082 87.208 73.6602 85.456 75.6162 85.456C77.5842 85.456 78.7362 87.208 78.7362 89.8C78.7362 92.416 77.5842 94.144 75.6162 94.144ZM75.6162 93.268C77.0082 93.268 77.7162 91.888 77.7162 89.8C77.7162 87.712 77.0082 86.332 75.6162 86.332C74.2362 86.332 73.5162 87.712 73.5162 89.8C73.5162 91.888 74.2362 93.268 75.6162 93.268ZM79.9097 94V93.1H81.6977V86.5H80.0537V85.6H82.6937V93.1H84.6137L84.1937 94H79.9097ZM90.728 94H85.352V93.22L87.464 91.108C89.048 89.5 89.612 88.756 89.612 87.904C89.612 86.968 88.916 86.344 87.944 86.344C86.9 86.344 86.12 86.872 85.664 87.304L85.064 86.704C85.496 86.224 86.54 85.456 87.908 85.456C89.672 85.456 90.62 86.608 90.62 87.88C90.62 89.068 89.804 90.004 88.592 91.204L86.72 93.076V93.1H91.052L90.728 94ZM97.7749 94.144C96.5509 94.144 95.5669 93.712 94.8829 93.052L95.5309 92.404C96.1069 92.92 96.7549 93.292 97.7629 93.292C98.8669 93.292 99.8149 92.62 99.8149 91.444C99.8149 90.172 98.6989 89.644 97.5109 89.644C97.3429 89.644 97.1269 89.644 96.9469 89.668V89.116L99.5629 86.5H95.3749V85.6H100.631V86.512L98.3029 88.84V88.864C99.8869 89.02 100.799 90.124 100.799 91.444C100.799 92.908 99.5629 94.144 97.7749 94.144Z" fill="#7B7F85"/>
<g id="Frame 1948758944">
<g id="Icons/Main/Tickets/MetroMCD">
<g id="Vector_3">
<path fill-rule="evenodd" clip-rule="evenodd" d="M15.0359 107.286H28.9644C29.852 107.286 30.5716 107.926 30.5716 108.715V117.286C30.5716 118.075 29.852 118.715 28.9644 118.715H15.0359C14.1483 118.715 13.4287 118.075 13.4287 117.286V108.715C13.4287 107.926 14.1483 107.286 15.0359 107.286Z" fill="#E32C22"/>
<path fill-rule="evenodd" clip-rule="evenodd" d="M21.1688 110.145C24.2386 110.077 25.4119 112.272 25.4699 113.683C25.4699 114.116 25.1116 114.467 24.6697 114.467H18.5648C18.4896 114.467 18.4287 114.408 18.4287 114.336V113.297C18.4287 113.225 18.4896 113.167 18.5648 113.167H19.658C19.8278 113.167 19.9655 113.032 19.9655 112.866V111.433C19.9655 111.266 19.8278 111.132 19.658 111.132H18.5648C18.4896 111.132 18.4287 111.073 18.4287 111.001V110.275C18.4287 110.203 18.4896 110.145 18.5648 110.145H21.1688ZM21.0413 111.132C20.8714 111.132 20.7337 111.266 20.7337 111.433V112.866C20.7337 113.032 20.8714 113.167 21.0413 113.167H23.7497C23.9137 113.167 24.0466 113.037 24.0466 112.876C24.0466 111.913 23.249 111.132 22.2651 111.132H21.0413Z" fill="white"/>
<path d="M18.4287 115.153H25.5716V115.858H18.4287V115.153Z" fill="white"/>
</g>
</g>
<path id="Title" d="M39.96 117.18C38.49 117.18 37.185 116.64 36.285 115.74L37.47 114.54C38.205 115.215 39.015 115.56 39.96 115.56C41.205 115.56 42.075 114.78 42.075 113.79C42.075 112.545 40.875 111.975 39.675 111.975C39.36 111.975 39.03 112.005 38.73 112.065V110.805L41.445 108.09H36.93V106.5H43.68V107.805L40.95 110.535V110.565C42.525 110.76 43.935 111.915 43.935 113.715C43.935 115.725 42.24 117.18 39.96 117.18ZM49.4569 117.18C46.9069 117.18 45.4069 115.095 45.4069 111.75C45.4069 108.405 46.9069 106.32 49.4569 106.32C52.0069 106.32 53.5069 108.405 53.5069 111.75C53.5069 115.095 52.0069 117.18 49.4569 117.18ZM49.4569 115.575C50.9419 115.575 51.6769 114.09 51.6769 111.75C51.6769 109.41 50.9419 107.925 49.4569 107.925C47.9719 107.925 47.2369 109.41 47.2369 111.75C47.2369 114.09 47.9719 115.575 49.4569 115.575ZM60.4365 115.53V115.56H63.3465V110.97H61.2765C61.2315 111.675 61.1565 112.68 61.0365 113.565C60.9465 114.315 60.7515 115.02 60.4365 115.53ZM58.0665 118.83V115.56H58.5765C59.0565 115.275 59.2965 114.405 59.4165 113.43C59.6565 111.69 59.7915 109.53 59.7915 109.53H65.0565V115.56H66.1815V118.83H64.6065V117H59.6415V118.83H58.0665Z" fill="#333333"/>
</g>
</g>
</g>
</g>
<defs>
<radialGradient id="paint0_radial_99761_63907" cx="0" cy="0" r="1" gradientTransform="matrix(30.931 17.8947 -27.3684 47.115 13 20.1842)" gradientUnits="userSpaceOnUse">
<stop stop-color="#E6BCC6"/>
<stop offset="1" stop-color="#B499C7"/>
</radialGradient>
<clipPath id="clip0_99761_63907">
<rect x="13" y="17.5" width="26" height="17" rx="3" fill="white"/>
</clipPath>
</defs>
</svg>
